%TF.GenerationSoftware,KiCad,Pcbnew,(6.0.7)*%
%TF.CreationDate,2022-09-11T16:04:50-07:00*%
%TF.ProjectId,All-in-one,416c6c2d-696e-42d6-9f6e-652e6b696361,rev?*%
%TF.SameCoordinates,Original*%
%TF.FileFunction,Paste,Top*%
%TF.FilePolarity,Positive*%
%FSLAX46Y46*%
G04 Gerber Fmt 4.6, Leading zero omitted, Abs format (unit mm)*
G04 Created by KiCad (PCBNEW (6.0.7)) date 2022-09-11 16:04:50*
%MOMM*%
%LPD*%
G01*
G04 APERTURE LIST*
G04 Aperture macros list*
%AMRoundRect*
0 Rectangle with rounded corners*
0 $1 Rounding radius*
0 $2 $3 $4 $5 $6 $7 $8 $9 X,Y pos of 4 corners*
0 Add a 4 corners polygon primitive as box body*
4,1,4,$2,$3,$4,$5,$6,$7,$8,$9,$2,$3,0*
0 Add four circle primitives for the rounded corners*
1,1,$1+$1,$2,$3*
1,1,$1+$1,$4,$5*
1,1,$1+$1,$6,$7*
1,1,$1+$1,$8,$9*
0 Add four rect primitives between the rounded corners*
20,1,$1+$1,$2,$3,$4,$5,0*
20,1,$1+$1,$4,$5,$6,$7,0*
20,1,$1+$1,$6,$7,$8,$9,0*
20,1,$1+$1,$8,$9,$2,$3,0*%
%AMRotRect*
0 Rectangle, with rotation*
0 The origin of the aperture is its center*
0 $1 length*
0 $2 width*
0 $3 Rotation angle, in degrees counterclockwise*
0 Add horizontal line*
21,1,$1,$2,0,0,$3*%
%AMFreePoly0*
4,1,5,0.110000,-0.125000,-0.110000,-0.125000,-0.110000,0.125000,0.360000,0.125000,0.110000,-0.125000,0.110000,-0.125000,$1*%
%AMFreePoly1*
4,1,6,0.290000,-0.055000,0.290000,-0.125000,-0.110000,-0.125000,-0.110000,0.125000,0.110000,0.125000,0.290000,-0.055000,0.290000,-0.055000,$1*%
%AMFreePoly2*
4,1,6,0.110000,-0.125000,-0.290000,-0.125000,-0.290000,-0.055000,-0.110000,0.125000,0.110000,0.125000,0.110000,-0.125000,0.110000,-0.125000,$1*%
%AMFreePoly3*
4,1,6,0.110000,-0.125000,-0.110000,-0.125000,-0.290000,0.055000,-0.290000,0.125000,0.110000,0.125000,0.110000,-0.125000,0.110000,-0.125000,$1*%
G04 Aperture macros list end*
%ADD10RoundRect,0.150000X-0.512500X-0.150000X0.512500X-0.150000X0.512500X0.150000X-0.512500X0.150000X0*%
%ADD11RoundRect,0.250000X0.650000X-0.325000X0.650000X0.325000X-0.650000X0.325000X-0.650000X-0.325000X0*%
%ADD12R,1.200000X1.400000*%
%ADD13R,0.500000X0.375000*%
%ADD14R,0.650000X0.300000*%
%ADD15RoundRect,0.250000X0.275000X0.700000X-0.275000X0.700000X-0.275000X-0.700000X0.275000X-0.700000X0*%
%ADD16RoundRect,0.200000X0.200000X0.275000X-0.200000X0.275000X-0.200000X-0.275000X0.200000X-0.275000X0*%
%ADD17RoundRect,0.135000X0.135000X0.185000X-0.135000X0.185000X-0.135000X-0.185000X0.135000X-0.185000X0*%
%ADD18RoundRect,0.200000X-0.200000X-0.275000X0.200000X-0.275000X0.200000X0.275000X-0.200000X0.275000X0*%
%ADD19RoundRect,0.218750X-0.218750X-0.256250X0.218750X-0.256250X0.218750X0.256250X-0.218750X0.256250X0*%
%ADD20RoundRect,0.262500X0.537500X-0.262500X0.537500X0.262500X-0.537500X0.262500X-0.537500X-0.262500X0*%
%ADD21RoundRect,0.140000X-0.170000X0.140000X-0.170000X-0.140000X0.170000X-0.140000X0.170000X0.140000X0*%
%ADD22RoundRect,0.135000X-0.185000X0.135000X-0.185000X-0.135000X0.185000X-0.135000X0.185000X0.135000X0*%
%ADD23RoundRect,0.250000X-0.250000X-0.475000X0.250000X-0.475000X0.250000X0.475000X-0.250000X0.475000X0*%
%ADD24RoundRect,0.140000X0.170000X-0.140000X0.170000X0.140000X-0.170000X0.140000X-0.170000X-0.140000X0*%
%ADD25RoundRect,0.140000X-0.140000X-0.170000X0.140000X-0.170000X0.140000X0.170000X-0.140000X0.170000X0*%
%ADD26RoundRect,0.150000X0.150000X-0.587500X0.150000X0.587500X-0.150000X0.587500X-0.150000X-0.587500X0*%
%ADD27RoundRect,0.147500X-0.147500X-0.172500X0.147500X-0.172500X0.147500X0.172500X-0.147500X0.172500X0*%
%ADD28RoundRect,0.250000X-0.475000X0.250000X-0.475000X-0.250000X0.475000X-0.250000X0.475000X0.250000X0*%
%ADD29RoundRect,0.250000X-0.650000X0.325000X-0.650000X-0.325000X0.650000X-0.325000X0.650000X0.325000X0*%
%ADD30RoundRect,0.250000X0.625000X-0.375000X0.625000X0.375000X-0.625000X0.375000X-0.625000X-0.375000X0*%
%ADD31FreePoly0,90.000000*%
%ADD32FreePoly1,90.000000*%
%ADD33FreePoly2,90.000000*%
%ADD34FreePoly3,90.000000*%
%ADD35RotRect,0.480000X0.480000X135.000000*%
%ADD36RoundRect,0.075000X0.075000X-0.350000X0.075000X0.350000X-0.075000X0.350000X-0.075000X-0.350000X0*%
%ADD37RoundRect,0.075000X0.350000X0.075000X-0.350000X0.075000X-0.350000X-0.075000X0.350000X-0.075000X0*%
%ADD38RoundRect,0.225000X0.225000X0.250000X-0.225000X0.250000X-0.225000X-0.250000X0.225000X-0.250000X0*%
%ADD39RoundRect,0.200000X-0.275000X0.200000X-0.275000X-0.200000X0.275000X-0.200000X0.275000X0.200000X0*%
%ADD40RoundRect,0.225000X-0.250000X0.225000X-0.250000X-0.225000X0.250000X-0.225000X0.250000X0.225000X0*%
%ADD41R,1.450000X0.600000*%
%ADD42R,1.450000X0.300000*%
%ADD43R,1.450000X1.800000*%
%ADD44RoundRect,0.237500X-1.412500X0.237500X-1.412500X-0.237500X1.412500X-0.237500X1.412500X0.237500X0*%
%ADD45RoundRect,0.140000X0.140000X0.170000X-0.140000X0.170000X-0.140000X-0.170000X0.140000X-0.170000X0*%
%ADD46R,0.500000X0.350000*%
%ADD47RoundRect,0.175000X-0.175000X-0.325000X0.175000X-0.325000X0.175000X0.325000X-0.175000X0.325000X0*%
%ADD48RoundRect,0.250000X-0.250000X-0.500000X0.250000X-0.500000X0.250000X0.500000X-0.250000X0.500000X0*%
%ADD49RoundRect,0.250000X-0.250000X-0.650000X0.250000X-0.650000X0.250000X0.650000X-0.250000X0.650000X0*%
%ADD50RoundRect,0.200000X0.275000X-0.200000X0.275000X0.200000X-0.275000X0.200000X-0.275000X-0.200000X0*%
%ADD51RoundRect,0.218750X0.256250X-0.218750X0.256250X0.218750X-0.256250X0.218750X-0.256250X-0.218750X0*%
%ADD52RoundRect,0.250000X-0.625000X0.375000X-0.625000X-0.375000X0.625000X-0.375000X0.625000X0.375000X0*%
%ADD53R,1.200000X0.900000*%
%ADD54RoundRect,0.250000X-0.315000X-0.315000X0.315000X-0.315000X0.315000X0.315000X-0.315000X0.315000X0*%
%ADD55RoundRect,0.062500X-0.375000X-0.062500X0.375000X-0.062500X0.375000X0.062500X-0.375000X0.062500X0*%
%ADD56RoundRect,0.062500X-0.062500X-0.375000X0.062500X-0.375000X0.062500X0.375000X-0.062500X0.375000X0*%
G04 APERTURE END LIST*
D10*
%TO.C,U7*%
X57012500Y-54650000D03*
X57012500Y-55600000D03*
X57012500Y-56550000D03*
X59287500Y-56550000D03*
X59287500Y-54650000D03*
%TD*%
D11*
%TO.C,C2*%
X61500000Y-39375000D03*
X61500000Y-36425000D03*
%TD*%
D12*
%TO.C,Y1*%
X32650000Y-39500000D03*
X32650000Y-41700000D03*
X34350000Y-41700000D03*
X34350000Y-39500000D03*
%TD*%
D13*
%TO.C,U6*%
X72600000Y-49197500D03*
D14*
X72675000Y-48660000D03*
D13*
X72600000Y-48122500D03*
X70900000Y-48122500D03*
D14*
X70825000Y-48660000D03*
D13*
X70900000Y-49197500D03*
%TD*%
D15*
%TO.C,FB1*%
X62075000Y-41700000D03*
X58925000Y-41700000D03*
%TD*%
D16*
%TO.C,R1*%
X68925000Y-37100000D03*
X67275000Y-37100000D03*
%TD*%
D17*
%TO.C,R10*%
X36610000Y-41300000D03*
X35590000Y-41300000D03*
%TD*%
D18*
%TO.C,R14*%
X42575000Y-33800000D03*
X44225000Y-33800000D03*
%TD*%
D10*
%TO.C,U8*%
X54762500Y-29750000D03*
X54762500Y-30700000D03*
X54762500Y-31650000D03*
X57037500Y-31650000D03*
X57037500Y-29750000D03*
%TD*%
D19*
%TO.C,D2*%
X58562500Y-53000000D03*
X60137500Y-53000000D03*
%TD*%
D20*
%TO.C,SW2*%
X33600000Y-52925000D03*
X33600000Y-48475000D03*
%TD*%
D21*
%TO.C,C15*%
X46200000Y-37920000D03*
X46200000Y-38880000D03*
%TD*%
D22*
%TO.C,R12*%
X40190000Y-47800000D03*
X40190000Y-48820000D03*
%TD*%
D17*
%TO.C,R15*%
X36190000Y-54300000D03*
X35170000Y-54300000D03*
%TD*%
%TO.C,R9*%
X53410000Y-40600000D03*
X52390000Y-40600000D03*
%TD*%
D23*
%TO.C,C8*%
X61400000Y-58600000D03*
X63300000Y-58600000D03*
%TD*%
D24*
%TO.C,C24*%
X47900000Y-29780000D03*
X47900000Y-28820000D03*
%TD*%
D23*
%TO.C,C3*%
X64650000Y-35350000D03*
X66550000Y-35350000D03*
%TD*%
D25*
%TO.C,C17*%
X32990000Y-37800000D03*
X33950000Y-37800000D03*
%TD*%
D19*
%TO.C,D3*%
X56312500Y-28100000D03*
X57887500Y-28100000D03*
%TD*%
D26*
%TO.C,Q1*%
X66350000Y-43437500D03*
X68250000Y-43437500D03*
X67300000Y-41562500D03*
%TD*%
D27*
%TO.C,L2*%
X36015000Y-44750000D03*
X36985000Y-44750000D03*
%TD*%
D28*
%TO.C,C26*%
X61350000Y-54650000D03*
X61350000Y-56550000D03*
%TD*%
D29*
%TO.C,C5*%
X61900000Y-31425000D03*
X61900000Y-34375000D03*
%TD*%
D20*
%TO.C,SW3*%
X55000000Y-45075000D03*
X55000000Y-40625000D03*
%TD*%
D30*
%TO.C,F1*%
X64200000Y-44000000D03*
X64200000Y-41200000D03*
%TD*%
D31*
%TO.C,U2*%
X63025000Y-57070000D03*
D32*
X63675000Y-57070000D03*
D33*
X63675000Y-55990000D03*
D34*
X63025000Y-55990000D03*
D35*
X63350000Y-56530000D03*
%TD*%
D16*
%TO.C,R2*%
X68925000Y-38400000D03*
X67275000Y-38400000D03*
%TD*%
D36*
%TO.C,U5*%
X43325000Y-32000000D03*
X43825000Y-32000000D03*
X44325000Y-32000000D03*
X44825000Y-32000000D03*
X45325000Y-32000000D03*
X45825000Y-32000000D03*
D37*
X46525000Y-31300000D03*
X46525000Y-30800000D03*
X46525000Y-30300000D03*
X46525000Y-29800000D03*
X46525000Y-29300000D03*
X46525000Y-28800000D03*
D36*
X45825000Y-28100000D03*
X45325000Y-28100000D03*
X44825000Y-28100000D03*
X44325000Y-28100000D03*
X43825000Y-28100000D03*
X43325000Y-28100000D03*
D37*
X42625000Y-28800000D03*
X42625000Y-29300000D03*
X42625000Y-29800000D03*
X42625000Y-30300000D03*
X42625000Y-30800000D03*
X42625000Y-31300000D03*
%TD*%
D38*
%TO.C,C12*%
X37475000Y-36400000D03*
X35925000Y-36400000D03*
%TD*%
D28*
%TO.C,C7*%
X65250000Y-56300000D03*
X65250000Y-58200000D03*
%TD*%
D39*
%TO.C,R3*%
X56950000Y-51375000D03*
X56950000Y-53025000D03*
%TD*%
D28*
%TO.C,C27*%
X54950000Y-52250000D03*
X54950000Y-54150000D03*
%TD*%
D40*
%TO.C,C19*%
X43300000Y-46225000D03*
X43300000Y-47775000D03*
%TD*%
D21*
%TO.C,C14*%
X45200000Y-45520000D03*
X45200000Y-46480000D03*
%TD*%
D25*
%TO.C,C16*%
X38720000Y-36600000D03*
X39680000Y-36600000D03*
%TD*%
D40*
%TO.C,C20*%
X34700000Y-30725000D03*
X34700000Y-32275000D03*
%TD*%
%TO.C,C10*%
X36600000Y-45925000D03*
X36600000Y-47475000D03*
%TD*%
D41*
%TO.C,J4*%
X74700000Y-51655000D03*
X74700000Y-45205000D03*
X74700000Y-50880000D03*
D42*
X74700000Y-50180000D03*
X74700000Y-48680000D03*
X74700000Y-47680000D03*
X74700000Y-46680000D03*
D41*
X74700000Y-45980000D03*
D42*
X74700000Y-47180000D03*
X74700000Y-48180000D03*
X74700000Y-49180000D03*
X74700000Y-49680000D03*
D43*
X79795000Y-53500000D03*
X79795000Y-43360000D03*
X75615000Y-53500000D03*
X75615000Y-43360000D03*
%TD*%
D16*
%TO.C,R13*%
X40825000Y-33800000D03*
X39175000Y-33800000D03*
%TD*%
D21*
%TO.C,C21*%
X36100000Y-30720000D03*
X36100000Y-31680000D03*
%TD*%
D44*
%TO.C,L1*%
X55700000Y-38075000D03*
X55700000Y-35025000D03*
%TD*%
D45*
%TO.C,C23*%
X45880000Y-26700000D03*
X44920000Y-26700000D03*
%TD*%
D46*
%TO.C,U4*%
X38900000Y-29425000D03*
X38900000Y-30075000D03*
X38900000Y-30725000D03*
X38900000Y-31375000D03*
X37300000Y-31375000D03*
X37300000Y-30725000D03*
X37300000Y-30075000D03*
X37300000Y-29425000D03*
%TD*%
D47*
%TO.C,J3*%
X45140000Y-55923637D03*
X44040000Y-55907879D03*
X42940000Y-55892121D03*
X41840000Y-55907879D03*
X40740000Y-55907879D03*
X39640000Y-55907879D03*
X38540000Y-55907879D03*
X37440000Y-55907879D03*
X36340000Y-55907879D03*
D48*
X35240000Y-57157879D03*
D49*
X50960000Y-66607879D03*
X35240000Y-66607879D03*
D48*
X50190000Y-57157879D03*
%TD*%
D50*
%TO.C,R5*%
X55150000Y-58425000D03*
X55150000Y-56775000D03*
%TD*%
D21*
%TO.C,C22*%
X47850000Y-30840000D03*
X47850000Y-31800000D03*
%TD*%
D29*
%TO.C,C6*%
X67650000Y-56325000D03*
X67650000Y-59275000D03*
%TD*%
D17*
%TO.C,R17*%
X73260000Y-50240000D03*
X72240000Y-50240000D03*
%TD*%
D51*
%TO.C,D4*%
X50900000Y-51487500D03*
X50900000Y-49912500D03*
%TD*%
D28*
%TO.C,C28*%
X52800000Y-26950000D03*
X52800000Y-28850000D03*
%TD*%
D52*
%TO.C,F2*%
X63550000Y-51700000D03*
X63550000Y-54500000D03*
%TD*%
D29*
%TO.C,C4*%
X59500000Y-31425000D03*
X59500000Y-34375000D03*
%TD*%
D10*
%TO.C,U1*%
X63562500Y-37150000D03*
X63562500Y-38100000D03*
X63562500Y-39050000D03*
X65837500Y-39050000D03*
X65837500Y-38100000D03*
X65837500Y-37150000D03*
%TD*%
D45*
%TO.C,C11*%
X36880000Y-43700000D03*
X35920000Y-43700000D03*
%TD*%
D18*
%TO.C,R4*%
X57925000Y-58400000D03*
X59575000Y-58400000D03*
%TD*%
D45*
%TO.C,C18*%
X33980000Y-43300000D03*
X33020000Y-43300000D03*
%TD*%
D24*
%TO.C,C25*%
X41300000Y-29280000D03*
X41300000Y-28320000D03*
%TD*%
D18*
%TO.C,R7*%
X55075000Y-33300000D03*
X56725000Y-33300000D03*
%TD*%
D50*
%TO.C,R8*%
X53000000Y-33325000D03*
X53000000Y-31675000D03*
%TD*%
D17*
%TO.C,R16*%
X73240000Y-46730000D03*
X72220000Y-46730000D03*
%TD*%
D53*
%TO.C,D1*%
X70575000Y-42780000D03*
X70575000Y-46080000D03*
%TD*%
D39*
%TO.C,R6*%
X54700000Y-26475000D03*
X54700000Y-28125000D03*
%TD*%
%TO.C,R11*%
X50900000Y-52775000D03*
X50900000Y-54425000D03*
%TD*%
D11*
%TO.C,C1*%
X59200000Y-39375000D03*
X59200000Y-36425000D03*
%TD*%
D25*
%TO.C,C9*%
X32320000Y-46200000D03*
X33280000Y-46200000D03*
%TD*%
D24*
%TO.C,C13*%
X36700000Y-38590000D03*
X36700000Y-37630000D03*
%TD*%
D54*
%TO.C,U3*%
X40775000Y-39230000D03*
X40775000Y-40630000D03*
X42175000Y-40630000D03*
X39375000Y-39230000D03*
X40775000Y-42030000D03*
X43575000Y-39230000D03*
X42175000Y-39230000D03*
X39375000Y-40630000D03*
X43575000Y-43430000D03*
X43575000Y-42030000D03*
X39375000Y-42030000D03*
X43575000Y-40630000D03*
X42175000Y-43430000D03*
X39375000Y-43430000D03*
X40775000Y-43430000D03*
X42175000Y-42030000D03*
D55*
X38037500Y-38580000D03*
X38037500Y-39080000D03*
X38037500Y-39580000D03*
X38037500Y-40080000D03*
X38037500Y-40580000D03*
X38037500Y-41080000D03*
X38037500Y-41580000D03*
X38037500Y-42080000D03*
X38037500Y-42580000D03*
X38037500Y-43080000D03*
X38037500Y-43580000D03*
X38037500Y-44080000D03*
D56*
X38725000Y-44767500D03*
X39225000Y-44767500D03*
X39725000Y-44767500D03*
X40225000Y-44767500D03*
X40725000Y-44767500D03*
X41225000Y-44767500D03*
X41725000Y-44767500D03*
X42225000Y-44767500D03*
X42725000Y-44767500D03*
X43225000Y-44767500D03*
X43725000Y-44767500D03*
X44225000Y-44767500D03*
D55*
X44912500Y-44080000D03*
X44912500Y-43580000D03*
X44912500Y-43080000D03*
X44912500Y-42580000D03*
X44912500Y-42080000D03*
X44912500Y-41580000D03*
X44912500Y-41080000D03*
X44912500Y-40580000D03*
X44912500Y-40080000D03*
X44912500Y-39580000D03*
X44912500Y-39080000D03*
X44912500Y-38580000D03*
D56*
X44225000Y-37892500D03*
X43725000Y-37892500D03*
X43225000Y-37892500D03*
X42725000Y-37892500D03*
X42225000Y-37892500D03*
X41725000Y-37892500D03*
X41225000Y-37892500D03*
X40725000Y-37892500D03*
X40225000Y-37892500D03*
X39725000Y-37892500D03*
X39225000Y-37892500D03*
X38725000Y-37892500D03*
%TD*%
M02*
