%TF.GenerationSoftware,KiCad,Pcbnew,(6.0.7)*%
%TF.CreationDate,2022-09-11T16:04:50-07:00*%
%TF.ProjectId,All-in-one,416c6c2d-696e-42d6-9f6e-652e6b696361,rev?*%
%TF.SameCoordinates,Original*%
%TF.FileFunction,Copper,L4,Bot*%
%TF.FilePolarity,Positive*%
%FSLAX46Y46*%
G04 Gerber Fmt 4.6, Leading zero omitted, Abs format (unit mm)*
G04 Created by KiCad (PCBNEW (6.0.7)) date 2022-09-11 16:04:50*
%MOMM*%
%LPD*%
G01*
G04 APERTURE LIST*
%TA.AperFunction,ComponentPad*%
%ADD10R,1.700000X1.700000*%
%TD*%
%TA.AperFunction,ComponentPad*%
%ADD11O,1.700000X1.700000*%
%TD*%
%TA.AperFunction,ComponentPad*%
%ADD12R,2.100000X2.100000*%
%TD*%
%TA.AperFunction,ComponentPad*%
%ADD13C,2.100000*%
%TD*%
%TA.AperFunction,ComponentPad*%
%ADD14C,0.800000*%
%TD*%
%TA.AperFunction,ComponentPad*%
%ADD15C,7.000000*%
%TD*%
%TA.AperFunction,ComponentPad*%
%ADD16C,1.524000*%
%TD*%
%TA.AperFunction,ViaPad*%
%ADD17C,0.800000*%
%TD*%
%TA.AperFunction,ViaPad*%
%ADD18C,0.600000*%
%TD*%
%TA.AperFunction,ViaPad*%
%ADD19C,0.500000*%
%TD*%
%TA.AperFunction,Conductor*%
%ADD20C,0.261112*%
%TD*%
%TA.AperFunction,Conductor*%
%ADD21C,0.500000*%
%TD*%
%TA.AperFunction,Conductor*%
%ADD22C,0.300000*%
%TD*%
G04 APERTURE END LIST*
D10*
%TO.P,J9,1,Pin_1*%
%TO.N,+3.3V*%
X56375000Y-22430000D03*
D11*
%TO.P,J9,2,Pin_2*%
%TO.N,UART2_TX*%
X53835000Y-22430000D03*
%TO.P,J9,3,Pin_3*%
%TO.N,UART2_RX*%
X51295000Y-22430000D03*
%TO.P,J9,4,Pin_4*%
%TO.N,GND*%
X48755000Y-22430000D03*
%TD*%
D12*
%TO.P,J2,1,Pin_1*%
%TO.N,LDO_IN*%
X73000000Y-57000000D03*
D13*
%TO.P,J2,2,Pin_2*%
%TO.N,GND*%
X73000000Y-59540000D03*
%TD*%
D10*
%TO.P,J10,1,Pin_1*%
%TO.N,+3.3V*%
X70575000Y-22225000D03*
D11*
%TO.P,J10,2,Pin_2*%
%TO.N,SWDIO*%
X70575000Y-24765000D03*
%TO.P,J10,3,Pin_3*%
%TO.N,GND*%
X68035000Y-22225000D03*
%TO.P,J10,4,Pin_4*%
%TO.N,SWCLK*%
X68035000Y-24765000D03*
%TO.P,J10,5,Pin_5*%
%TO.N,GND*%
X65495000Y-22225000D03*
%TO.P,J10,6,Pin_6*%
%TO.N,SWO*%
X65495000Y-24765000D03*
%TO.P,J10,7,Pin_7*%
%TO.N,unconnected-(J10-Pad7)*%
X62955000Y-22225000D03*
%TO.P,J10,8,Pin_8*%
%TO.N,unconnected-(J10-Pad8)*%
X62955000Y-24765000D03*
%TO.P,J10,9,Pin_9*%
%TO.N,GND*%
X60415000Y-22225000D03*
%TO.P,J10,10,Pin_10*%
%TO.N,NRST*%
X60415000Y-24765000D03*
%TD*%
D10*
%TO.P,J7,1,Pin_1*%
%TO.N,TIM3_CH4*%
X25200000Y-41060000D03*
D11*
%TO.P,J7,2,Pin_2*%
%TO.N,GND*%
X25200000Y-43600000D03*
%TD*%
D14*
%TO.P,H3,1,1*%
%TO.N,GND*%
X27525000Y-65900000D03*
X26756155Y-67756155D03*
X23043845Y-64043845D03*
X26756155Y-64043845D03*
X22275000Y-65900000D03*
X24900000Y-68525000D03*
X23043845Y-67756155D03*
X24900000Y-63275000D03*
D15*
X24900000Y-65900000D03*
%TD*%
%TO.P,H4,1,1*%
%TO.N,GND*%
X76900000Y-65900000D03*
D14*
X75043845Y-64043845D03*
X79525000Y-65900000D03*
X78756155Y-64043845D03*
X78756155Y-67756155D03*
X74275000Y-65900000D03*
X76900000Y-63275000D03*
X76900000Y-68525000D03*
X75043845Y-67756155D03*
%TD*%
D10*
%TO.P,J5,1,Pin_1*%
%TO.N,GPIO_1*%
X28200000Y-58210000D03*
D11*
%TO.P,J5,2,Pin_2*%
%TO.N,GPIO_2*%
X28200000Y-55670000D03*
%TO.P,J5,3,Pin_3*%
%TO.N,GPIO_3*%
X28200000Y-53130000D03*
%TO.P,J5,4,Pin_4*%
%TO.N,GPIO_4*%
X28200000Y-50590000D03*
%TD*%
D10*
%TO.P,J6,1,Pin_1*%
%TO.N,TIM2_CH4*%
X25200000Y-30960000D03*
D11*
%TO.P,J6,2,Pin_2*%
%TO.N,GND*%
X25200000Y-33500000D03*
%TD*%
D10*
%TO.P,J8,1,Pin_1*%
%TO.N,+3.3V*%
X42000000Y-22430000D03*
D11*
%TO.P,J8,2,Pin_2*%
%TO.N,I2C1_SCL*%
X39460000Y-22430000D03*
%TO.P,J8,3,Pin_3*%
%TO.N,I2C1_SDA*%
X36920000Y-22430000D03*
%TO.P,J8,4,Pin_4*%
%TO.N,GND*%
X34380000Y-22430000D03*
%TD*%
D14*
%TO.P,H1,1,1*%
%TO.N,GND*%
X74943845Y-18843845D03*
X79425000Y-20700000D03*
X76800000Y-18075000D03*
X78656155Y-22556155D03*
X78656155Y-18843845D03*
X74943845Y-22556155D03*
D15*
X76800000Y-20700000D03*
D14*
X76800000Y-23325000D03*
X74175000Y-20700000D03*
%TD*%
D12*
%TO.P,J1,1,Pin_1*%
%TO.N,+12V*%
X73200000Y-37130000D03*
D13*
%TO.P,J1,2,Pin_2*%
%TO.N,GND*%
X73200000Y-39670000D03*
%TD*%
D14*
%TO.P,H2,1,1*%
%TO.N,GND*%
X25000000Y-23325000D03*
X26856155Y-18843845D03*
X23143845Y-22556155D03*
X25000000Y-18075000D03*
X26856155Y-22556155D03*
X23143845Y-18843845D03*
X27625000Y-20700000D03*
X22375000Y-20700000D03*
D15*
X25000000Y-20700000D03*
%TD*%
D16*
%TO.P,SW1,1,1*%
%TO.N,BUCK_VIN*%
X67375000Y-45984783D03*
%TO.P,SW1,2,2*%
%TO.N,unconnected-(SW1-Pad2)*%
X61375000Y-45984783D03*
%TO.P,SW1,3,3*%
%TO.N,BUCK_VIN*%
X65375000Y-45984783D03*
%TO.P,SW1,4,4*%
%TO.N,unconnected-(SW1-Pad4)*%
X59375000Y-45984783D03*
%TO.P,SW1,5,5*%
%TO.N,unconnected-(SW1-Pad5)*%
X67375000Y-49384783D03*
%TO.P,SW1,6,6*%
%TO.N,LDO_IN*%
X61375000Y-49384783D03*
%TO.P,SW1,7,7*%
X65375000Y-49415218D03*
%TO.P,SW1,8,8*%
%TO.N,unconnected-(SW1-Pad8)*%
X59375000Y-49415218D03*
%TD*%
D17*
%TO.N,GND*%
X67800000Y-39500000D03*
X68700000Y-39500000D03*
%TO.N,+3.3V*%
X68375000Y-36125000D03*
D18*
%TO.N,BOOT0*%
X47500000Y-36000000D03*
X39700000Y-35000000D03*
D17*
%TO.N,+3.3V*%
X54400000Y-46100000D03*
X37900000Y-37800000D03*
D18*
X53800000Y-29349500D03*
D17*
X53700000Y-53700000D03*
X35500000Y-29900000D03*
X41800000Y-54900000D03*
X39200000Y-32800000D03*
X46700000Y-26700000D03*
D18*
X46200000Y-37200000D03*
X44900000Y-33000000D03*
D17*
X35400000Y-45450000D03*
X55700000Y-46100000D03*
D18*
X52400000Y-29700000D03*
D17*
X41000000Y-48900000D03*
X39700000Y-29900000D03*
X69275000Y-36125000D03*
X37300000Y-28500000D03*
X35200000Y-55100000D03*
D18*
X48700000Y-30900000D03*
X45900000Y-45500000D03*
X53200000Y-29900000D03*
D17*
X53700000Y-54600000D03*
X37500000Y-35300000D03*
%TO.N,+5V*%
X70400000Y-47018072D03*
X71300500Y-47018072D03*
X72700000Y-51300000D03*
D19*
%TO.N,SPI1_NSS*%
X44000000Y-54900000D03*
X38526444Y-46646444D03*
%TO.N,SPI1_SCK*%
X37820000Y-48130000D03*
X40700000Y-54900000D03*
%TO.N,SD_CARD_DET*%
X41274500Y-45600000D03*
X36110000Y-53450000D03*
%TO.N,GPIO_1*%
X47250500Y-44650000D03*
%TO.N,GPIO_2*%
X47786444Y-44113556D03*
%TO.N,GPIO_3*%
X48450000Y-43800000D03*
%TO.N,GPIO_4*%
X49100000Y-43450000D03*
D17*
%TO.N,I2C1_SDA*%
X40800000Y-32800000D03*
D19*
X41700000Y-30800000D03*
X39900000Y-30800000D03*
%TO.N,UART2_TX*%
X49900000Y-41900000D03*
X50600000Y-34600000D03*
%TO.N,UART2_RX*%
X49600000Y-41200000D03*
X49600000Y-34100000D03*
D17*
%TO.N,SWDIO*%
X51400000Y-38800000D03*
%TO.N,SWCLK*%
X48800000Y-33700000D03*
%TO.N,SWO*%
X45900000Y-34100000D03*
D19*
%TO.N,MPU_INT*%
X47700000Y-26900000D03*
X43400000Y-34600000D03*
D17*
%TO.N,GND*%
X71460000Y-50240000D03*
D19*
X72700000Y-47300000D03*
D17*
X34284598Y-53892919D03*
X62200000Y-53500000D03*
D18*
X36500000Y-29900000D03*
X55100000Y-55600000D03*
X46000000Y-46500000D03*
D19*
X60700000Y-31049500D03*
D17*
X38900000Y-28500000D03*
D19*
X47600000Y-32400000D03*
D17*
X76900000Y-52900000D03*
D18*
X47000000Y-38800000D03*
D17*
X34200000Y-66100000D03*
X74300000Y-44300000D03*
X78500000Y-54100000D03*
X36650000Y-32450000D03*
X34900000Y-37850000D03*
X42350000Y-41250000D03*
X74300000Y-43300000D03*
X74300000Y-53600000D03*
X74300000Y-52600000D03*
X78500000Y-42800000D03*
D18*
X55900000Y-55600000D03*
D17*
X33000000Y-53900000D03*
X56900000Y-50400000D03*
X78500000Y-43800000D03*
X43300000Y-27100000D03*
X43300000Y-41250000D03*
X76900000Y-42900000D03*
D18*
X53300000Y-34100000D03*
D17*
X54100000Y-33800000D03*
D19*
X36000000Y-37600000D03*
D17*
X35500000Y-47350000D03*
D19*
X72100000Y-47300000D03*
D17*
X54200000Y-25600000D03*
D18*
X67000000Y-43900000D03*
D17*
X51900000Y-66900000D03*
X34200000Y-67000000D03*
X54800000Y-59300000D03*
X39550000Y-41250000D03*
X53300000Y-26000000D03*
X63400000Y-32200000D03*
X67900000Y-60400000D03*
X41450000Y-41250000D03*
D18*
X59200000Y-35500000D03*
D17*
X31900000Y-43350000D03*
X47900000Y-28000000D03*
X51900000Y-54500000D03*
D19*
X39700000Y-35800000D03*
X58300000Y-31049500D03*
D17*
X62900000Y-59800000D03*
X39600000Y-54900000D03*
X78500000Y-52900000D03*
X51200000Y-57600000D03*
X55900000Y-51200000D03*
X34300000Y-57400000D03*
X35750000Y-32450000D03*
D19*
X58300000Y-31800000D03*
D17*
X52300000Y-26000000D03*
X40550000Y-41250000D03*
X44300000Y-47800000D03*
D18*
X63900000Y-36400000D03*
X63200000Y-36400000D03*
D17*
X51200000Y-56700000D03*
D18*
X58500000Y-35500000D03*
D19*
X48200000Y-32400000D03*
D17*
X65700000Y-59200000D03*
D18*
X59900000Y-35500000D03*
D17*
X41300000Y-27500000D03*
X67000000Y-60400000D03*
D19*
X60700000Y-31800000D03*
D17*
X34400000Y-45300000D03*
X34300000Y-56500000D03*
X58300000Y-59300000D03*
D18*
X61600000Y-35500000D03*
X52600000Y-34100000D03*
X67000000Y-43000000D03*
X65700000Y-44000000D03*
D17*
X63800000Y-59800000D03*
D19*
X39200000Y-35800000D03*
D17*
X55700000Y-59300000D03*
X52400000Y-39700000D03*
X61300000Y-53500000D03*
X34950000Y-36400000D03*
X55100000Y-25600000D03*
D18*
X65700000Y-43000000D03*
X62300000Y-35500000D03*
D17*
X54600000Y-51200000D03*
X76900000Y-43800000D03*
D18*
X44200000Y-26600000D03*
D17*
X57400000Y-59300000D03*
D18*
X60900000Y-35500000D03*
D17*
X63400000Y-31300000D03*
X54100000Y-32900000D03*
X51900000Y-66000000D03*
X31600000Y-46200000D03*
X76900000Y-54100000D03*
X64800000Y-59200000D03*
%TO.N,TIM2_CH4*%
X38000000Y-44804500D03*
%TO.N,TIM3_CH4*%
X42200000Y-45804500D03*
%TD*%
D20*
%TO.N,BOOT0*%
X47500000Y-36000000D02*
X46630556Y-35130556D01*
X46630556Y-35130556D02*
X39830556Y-35130556D01*
X39830556Y-35130556D02*
X39700000Y-35000000D01*
D21*
%TO.N,+5V*%
X69900000Y-47600000D02*
X69900000Y-49882082D01*
X71117918Y-51100000D02*
X71317918Y-51300000D01*
X70481928Y-47018072D02*
X71300500Y-47018072D01*
X70481928Y-47018072D02*
X69900000Y-47600000D01*
X69900000Y-49882082D02*
X71117918Y-51100000D01*
X71317918Y-51300000D02*
X72700000Y-51300000D01*
D22*
%TO.N,SPI1_NSS*%
X44000000Y-54480000D02*
X38526444Y-49006444D01*
X38526444Y-49006444D02*
X38526444Y-46646444D01*
X44000000Y-54900000D02*
X44000000Y-54480000D01*
%TO.N,SPI1_SCK*%
X40700000Y-54900000D02*
X40700000Y-53500000D01*
X40700000Y-53500000D02*
X37820000Y-50620000D01*
X37820000Y-50620000D02*
X37820000Y-48130000D01*
%TO.N,SD_CARD_DET*%
X40880000Y-46080000D02*
X41274500Y-45685500D01*
X38180000Y-46080000D02*
X40880000Y-46080000D01*
X41274500Y-45685500D02*
X41274500Y-45600000D01*
X36110000Y-53450000D02*
X36110000Y-48150000D01*
X36110000Y-48150000D02*
X38180000Y-46080000D01*
%TO.N,GPIO_1*%
X47250500Y-44650000D02*
X47350000Y-44749500D01*
X47350000Y-44749500D02*
X47350000Y-55700000D01*
X47350000Y-55700000D02*
X44840000Y-58210000D01*
X44840000Y-58210000D02*
X28200000Y-58210000D01*
%TO.N,GPIO_2*%
X27130000Y-55670000D02*
X28200000Y-55670000D01*
X47950000Y-55850000D02*
X44100000Y-59700000D01*
X26050000Y-58900000D02*
X26050000Y-56750000D01*
X26850000Y-59700000D02*
X26050000Y-58900000D01*
X26050000Y-56750000D02*
X27130000Y-55670000D01*
X44100000Y-59700000D02*
X26850000Y-59700000D01*
X47950000Y-44277112D02*
X47950000Y-55850000D01*
X47786444Y-44113556D02*
X47950000Y-44277112D01*
%TO.N,GPIO_3*%
X25250000Y-59250000D02*
X25250000Y-53950000D01*
X48550000Y-56200000D02*
X44250000Y-60500000D01*
X26070000Y-53130000D02*
X28200000Y-53130000D01*
X44250000Y-60500000D02*
X26500000Y-60500000D01*
X48450000Y-43800000D02*
X48550000Y-43900000D01*
X25250000Y-53950000D02*
X26070000Y-53130000D01*
X26500000Y-60500000D02*
X25250000Y-59250000D01*
X48550000Y-43900000D02*
X48550000Y-56200000D01*
%TO.N,GPIO_4*%
X26200000Y-61400000D02*
X24550000Y-59750000D01*
X24550000Y-52250000D02*
X26210000Y-50590000D01*
X24550000Y-59750000D02*
X24550000Y-52250000D01*
X44300000Y-61400000D02*
X26200000Y-61400000D01*
X49100000Y-56600000D02*
X44300000Y-61400000D01*
X26210000Y-50590000D02*
X28200000Y-50590000D01*
X49100000Y-43450000D02*
X49100000Y-56600000D01*
%TO.N,I2C1_SDA*%
X40800000Y-31700000D02*
X41700000Y-30800000D01*
X38150000Y-23660000D02*
X38150000Y-30250000D01*
X38150000Y-30250000D02*
X38700000Y-30800000D01*
X40800000Y-31700000D02*
X39900000Y-30800000D01*
X38700000Y-30800000D02*
X39900000Y-30800000D01*
X40800000Y-32800000D02*
X40800000Y-31700000D01*
X36920000Y-22430000D02*
X38150000Y-23660000D01*
%TO.N,UART2_TX*%
X50300000Y-38300000D02*
X50300000Y-41500000D01*
X49900000Y-37900000D02*
X50300000Y-38300000D01*
X49900000Y-35300000D02*
X49900000Y-37900000D01*
X50300000Y-41500000D02*
X49900000Y-41900000D01*
X50600000Y-34600000D02*
X49900000Y-35300000D01*
%TO.N,UART2_RX*%
X49600000Y-34100000D02*
X49000000Y-34700000D01*
X49000000Y-34700000D02*
X49000000Y-37900000D01*
X49000000Y-37900000D02*
X49600000Y-38500000D01*
X49600000Y-38500000D02*
X49600000Y-41200000D01*
%TO.N,SWDIO*%
X53600000Y-30500000D02*
X65600000Y-30500000D01*
X70575000Y-25525000D02*
X70575000Y-24765000D01*
X51700000Y-38500000D02*
X51700000Y-32400000D01*
X51400000Y-38800000D02*
X51700000Y-38500000D01*
X51700000Y-32400000D02*
X53600000Y-30500000D01*
X65600000Y-30500000D02*
X70575000Y-25525000D01*
%TO.N,SWCLK*%
X64700000Y-28700000D02*
X68035000Y-25365000D01*
X48800000Y-32200000D02*
X52300000Y-28700000D01*
X48800000Y-33700000D02*
X48800000Y-32200000D01*
X52300000Y-28700000D02*
X64700000Y-28700000D01*
X68035000Y-25365000D02*
X68035000Y-24765000D01*
%TO.N,SWO*%
X47050000Y-31550000D02*
X50800000Y-27800000D01*
X47050000Y-33050000D02*
X47050000Y-31550000D01*
X50800000Y-27800000D02*
X62460000Y-27800000D01*
X62460000Y-27800000D02*
X65495000Y-24765000D01*
X45900000Y-34100000D02*
X46000000Y-34100000D01*
X46000000Y-34100000D02*
X47050000Y-33050000D01*
%TO.N,MPU_INT*%
X43400000Y-31200000D02*
X47700000Y-26900000D01*
X43400000Y-34600000D02*
X43400000Y-31200000D01*
%TO.N,TIM2_CH4*%
X38650000Y-35250000D02*
X37300000Y-33900000D01*
X38650000Y-44154500D02*
X38650000Y-35250000D01*
X29200000Y-33900000D02*
X26260000Y-30960000D01*
X26260000Y-30960000D02*
X25200000Y-30960000D01*
X38000000Y-44804500D02*
X38650000Y-44154500D01*
X37300000Y-33900000D02*
X29200000Y-33900000D01*
%TO.N,TIM3_CH4*%
X37972893Y-45580000D02*
X37352893Y-46200000D01*
X42200000Y-45747682D02*
X41502318Y-45050000D01*
X33100000Y-46200000D02*
X27960000Y-41060000D01*
X37352893Y-46200000D02*
X33100000Y-46200000D01*
X27960000Y-41060000D02*
X25200000Y-41060000D01*
X42200000Y-45804500D02*
X42200000Y-45747682D01*
X38300000Y-45580000D02*
X37972893Y-45580000D01*
X38830000Y-45050000D02*
X38300000Y-45580000D01*
X41502318Y-45050000D02*
X38830000Y-45050000D01*
%TD*%
M02*
