M48
; DRILL file {KiCad (6.0.7)} date Sun 11 Sep 2022 04:04:46 PM
; FORMAT={-:-/ absolute / inch / decimal}
; #@! TF.CreationDate,2022-09-11T16:04:46-07:00
; #@! TF.GenerationSoftware,Kicad,Pcbnew,(6.0.7)
; #@! TF.FileFunction,Plated,1,4,PTH
FMAT,2
INCH
; #@! TA.AperFunction,Plated,PTH,ViaDrill
T1C0.0079
; #@! TA.AperFunction,Plated,PTH,ViaDrill
T2C0.0118
; #@! TA.AperFunction,Plated,PTH,ViaDrill
T3C0.0157
; #@! TA.AperFunction,Plated,PTH,ComponentDrill
T4C0.0197
; #@! TA.AperFunction,Plated,PTH,ComponentDrill
T5C0.0354
; #@! TA.AperFunction,Plated,PTH,ComponentDrill
T6C0.0394
; #@! TA.AperFunction,Plated,PTH,ComponentDrill
T7C0.0433
; #@! TA.AperFunction,Plated,PTH,ComponentDrill
T8C0.1378
%
G90
G05
T1
X1.4173Y-1.4803
X1.4217Y-2.1043
X1.489Y-1.8949
X1.5168Y-1.8365
X1.5433Y-1.4094
X1.563Y-1.4094
X1.5709Y-1.2126
X1.6024Y-2.1614
X1.625Y-1.7953
X1.6417Y-1.2126
X1.7087Y-1.3622
X1.7323Y-2.1614
X1.8603Y-1.7579
X1.874Y-1.2756
X1.878Y-1.0591
X1.8814Y-1.7368
X1.8976Y-1.2756
X1.9075Y-1.7244
X1.9331Y-1.7106
X1.9528Y-1.3425
X1.9528Y-1.622
X1.9646Y-1.6496
X1.9921Y-1.3622
X2.2953Y-1.2224
X2.2953Y-1.252
X2.3898Y-1.2224
X2.3898Y-1.252
X2.8386Y-1.8622
X2.8622Y-1.8622
T2
X1.437Y-1.1772
X1.563Y-1.378
X1.7402Y-1.0472
X1.7677Y-1.2992
X1.8071Y-1.7913
X1.811Y-1.8307
X1.8189Y-1.4646
X1.8504Y-1.5276
X1.8701Y-1.4173
X1.9173Y-1.2165
X2.063Y-1.1693
X2.0709Y-1.3425
X2.0945Y-1.1772
X2.0984Y-1.3425
X2.1181Y-1.1555
X2.1693Y-2.189
X2.2008Y-2.189
X2.3031Y-1.3976
X2.3307Y-1.3976
X2.3583Y-1.3976
X2.3976Y-1.3976
X2.4252Y-1.3976
X2.4528Y-1.3976
X2.4882Y-1.4331
X2.5157Y-1.4331
X2.5866Y-1.6929
X2.5866Y-1.7323
X2.6378Y-1.6929
X2.6378Y-1.7283
T3
X1.2441Y-1.8189
X1.2559Y-1.7067
X1.2992Y-2.122
X1.3465Y-2.6024
X1.3465Y-2.6378
X1.3498Y-2.1218
X1.3504Y-2.2244
X1.3504Y-2.2598
X1.3543Y-1.7835
X1.374Y-1.4902
X1.376Y-1.4331
X1.3858Y-2.1693
X1.3937Y-1.7894
X1.3976Y-1.1772
X1.3976Y-1.8642
X1.4075Y-1.2776
X1.4429Y-1.2776
X1.4685Y-1.122
X1.4764Y-1.3898
X1.4921Y-1.4882
X1.4961Y-1.764
X1.5315Y-1.122
X1.5433Y-1.2913
X1.5571Y-1.624
X1.5591Y-2.1614
X1.563Y-1.1772
X1.5965Y-1.624
X1.6063Y-1.2913
X1.6142Y-1.9252
X1.626Y-1.0827
X1.6319Y-1.624
X1.6457Y-2.1614
X1.6614Y-1.8033
X1.6673Y-1.624
X1.7047Y-1.0669
X1.7047Y-1.624
X1.7441Y-1.8819
X1.8071Y-1.3425
X1.8386Y-1.0512
X1.8858Y-1.1024
X1.9213Y-1.3268
X2.0157Y-2.2323
X2.0157Y-2.2677
X2.0236Y-1.5276
X2.0433Y-2.1457
X2.0433Y-2.5984
X2.0433Y-2.6339
X2.0591Y-1.0236
X2.063Y-1.563
X2.0984Y-1.0236
X2.1142Y-2.1142
X2.1142Y-2.1496
X2.1299Y-1.2953
X2.1299Y-1.3307
X2.1339Y-1.0079
X2.1417Y-1.815
X2.1496Y-2.0157
X2.1575Y-2.3346
X2.1693Y-1.0079
X2.1929Y-1.815
X2.1929Y-2.3346
X2.2008Y-2.0157
X2.2402Y-1.9843
X2.2598Y-2.3346
X2.2953Y-2.3346
X2.4134Y-2.1063
X2.4488Y-2.1063
X2.4764Y-2.3543
X2.4961Y-1.2323
X2.4961Y-1.2677
X2.5118Y-2.3543
X2.5512Y-2.3307
X2.5866Y-2.3307
X2.6378Y-2.378
X2.6693Y-1.5551
X2.6732Y-2.378
X2.6919Y-1.4222
X2.7047Y-1.5551
X2.7274Y-1.4222
X2.7717Y-1.8511
X2.8071Y-1.8511
X2.8134Y-1.978
X2.8622Y-2.0197
X2.9252Y-1.7047
X2.9252Y-1.7441
X2.9252Y-2.0709
X2.9252Y-2.1102
X3.0276Y-1.689
X3.0276Y-1.7244
X3.0276Y-2.0827
X3.0276Y-2.1299
X3.0906Y-1.685
X3.0906Y-1.7244
X3.0906Y-2.0827
X3.0906Y-2.1299
T4
X0.877Y-2.5945
X0.8809Y-0.815
X0.9072Y-2.5214
X0.9072Y-2.6676
X0.9112Y-0.7419
X0.9112Y-0.888
X0.9803Y-2.4911
X0.9803Y-2.6978
X0.9843Y-0.7116
X0.9843Y-0.9183
X1.0534Y-2.5214
X1.0534Y-2.6676
X1.0573Y-0.7419
X1.0573Y-0.888
X1.0837Y-2.5945
X1.0876Y-0.815
X2.9203Y-0.815
X2.9242Y-2.5945
X2.9505Y-0.7419
X2.9505Y-0.888
X2.9545Y-2.5214
X2.9545Y-2.6676
X3.0236Y-0.7116
X3.0236Y-0.9183
X3.0276Y-2.4911
X3.0276Y-2.6978
X3.0967Y-0.7419
X3.0967Y-0.888
X3.1006Y-2.5214
X3.1006Y-2.6676
X3.127Y-0.815
X3.1309Y-2.5945
T5
X2.3376Y-1.8104
X2.3376Y-1.9455
X2.4163Y-1.8104
X2.4163Y-1.9443
X2.5738Y-1.8104
X2.5738Y-1.9455
X2.6526Y-1.8104
X2.6526Y-1.9443
T6
X0.9921Y-1.2189
X0.9921Y-1.3189
X0.9921Y-1.6165
X0.9921Y-1.7165
X1.1102Y-1.9917
X1.1102Y-2.0917
X1.1102Y-2.1917
X1.1102Y-2.2917
X1.3535Y-0.8831
X1.4535Y-0.8831
X1.5535Y-0.8831
X1.6535Y-0.8831
X1.9195Y-0.8831
X2.0195Y-0.8831
X2.1195Y-0.8831
X2.2195Y-0.8831
X2.3785Y-0.875
X2.3785Y-0.975
X2.4785Y-0.875
X2.4785Y-0.975
X2.5785Y-0.875
X2.5785Y-0.975
X2.6785Y-0.875
X2.6785Y-0.975
X2.7785Y-0.875
X2.7785Y-0.975
T7
X2.874Y-2.2441
X2.874Y-2.3441
X2.8819Y-1.4618
X2.8819Y-1.5618
T8
X0.9803Y-2.5945
X0.9843Y-0.815
X3.0236Y-0.815
X3.0276Y-2.5945
T0
M30
