%TF.GenerationSoftware,KiCad,Pcbnew,(6.0.7)*%
%TF.CreationDate,2022-09-11T16:04:51-07:00*%
%TF.ProjectId,All-in-one,416c6c2d-696e-42d6-9f6e-652e6b696361,rev?*%
%TF.SameCoordinates,Original*%
%TF.FileFunction,Legend,Bot*%
%TF.FilePolarity,Positive*%
%FSLAX46Y46*%
G04 Gerber Fmt 4.6, Leading zero omitted, Abs format (unit mm)*
G04 Created by KiCad (PCBNEW (6.0.7)) date 2022-09-11 16:04:51*
%MOMM*%
%LPD*%
G01*
G04 APERTURE LIST*
%ADD10C,0.150000*%
G04 APERTURE END LIST*
D10*
X67719047Y-65352380D02*
X67719047Y-66066666D01*
X67766666Y-66209523D01*
X67861904Y-66304761D01*
X68004761Y-66352380D01*
X68100000Y-66352380D01*
X66766666Y-66352380D02*
X67242857Y-66352380D01*
X67242857Y-65352380D01*
X65861904Y-66257142D02*
X65909523Y-66304761D01*
X66052380Y-66352380D01*
X66147619Y-66352380D01*
X66290476Y-66304761D01*
X66385714Y-66209523D01*
X66433333Y-66114285D01*
X66480952Y-65923809D01*
X66480952Y-65780952D01*
X66433333Y-65590476D01*
X66385714Y-65495238D01*
X66290476Y-65400000D01*
X66147619Y-65352380D01*
X66052380Y-65352380D01*
X65909523Y-65400000D01*
X65861904Y-65447619D01*
X65147619Y-65352380D02*
X65147619Y-66066666D01*
X65195238Y-66209523D01*
X65290476Y-66304761D01*
X65433333Y-66352380D01*
X65528571Y-66352380D01*
X64195238Y-66352380D02*
X64671428Y-66352380D01*
X64671428Y-65352380D01*
X63290476Y-66257142D02*
X63338095Y-66304761D01*
X63480952Y-66352380D01*
X63576190Y-66352380D01*
X63719047Y-66304761D01*
X63814285Y-66209523D01*
X63861904Y-66114285D01*
X63909523Y-65923809D01*
X63909523Y-65780952D01*
X63861904Y-65590476D01*
X63814285Y-65495238D01*
X63719047Y-65400000D01*
X63576190Y-65352380D01*
X63480952Y-65352380D01*
X63338095Y-65400000D01*
X63290476Y-65447619D01*
X62576190Y-65352380D02*
X62576190Y-66066666D01*
X62623809Y-66209523D01*
X62719047Y-66304761D01*
X62861904Y-66352380D01*
X62957142Y-66352380D01*
X61623809Y-66352380D02*
X62100000Y-66352380D01*
X62100000Y-65352380D01*
X60719047Y-66257142D02*
X60766666Y-66304761D01*
X60909523Y-66352380D01*
X61004761Y-66352380D01*
X61147619Y-66304761D01*
X61242857Y-66209523D01*
X61290476Y-66114285D01*
X61338095Y-65923809D01*
X61338095Y-65780952D01*
X61290476Y-65590476D01*
X61242857Y-65495238D01*
X61147619Y-65400000D01*
X61004761Y-65352380D01*
X60909523Y-65352380D01*
X60766666Y-65400000D01*
X60719047Y-65447619D01*
X60004761Y-65352380D02*
X60004761Y-66066666D01*
X60052380Y-66209523D01*
X60147619Y-66304761D01*
X60290476Y-66352380D01*
X60385714Y-66352380D01*
X59052380Y-66352380D02*
X59528571Y-66352380D01*
X59528571Y-65352380D01*
X58147619Y-66257142D02*
X58195238Y-66304761D01*
X58338095Y-66352380D01*
X58433333Y-66352380D01*
X58576190Y-66304761D01*
X58671428Y-66209523D01*
X58719047Y-66114285D01*
X58766666Y-65923809D01*
X58766666Y-65780952D01*
X58719047Y-65590476D01*
X58671428Y-65495238D01*
X58576190Y-65400000D01*
X58433333Y-65352380D01*
X58338095Y-65352380D01*
X58195238Y-65400000D01*
X58147619Y-65447619D01*
M02*
