%TF.GenerationSoftware,KiCad,Pcbnew,(6.0.7)*%
%TF.CreationDate,2022-09-16T23:20:04-07:00*%
%TF.ProjectId,All-in-one,416c6c2d-696e-42d6-9f6e-652e6b696361,rev?*%
%TF.SameCoordinates,Original*%
%TF.FileFunction,Soldermask,Bot*%
%TF.FilePolarity,Negative*%
%FSLAX46Y46*%
G04 Gerber Fmt 4.6, Leading zero omitted, Abs format (unit mm)*
G04 Created by KiCad (PCBNEW (6.0.7)) date 2022-09-16 23:20:04*
%MOMM*%
%LPD*%
G01*
G04 APERTURE LIST*
G04 Aperture macros list*
%AMRoundRect*
0 Rectangle with rounded corners*
0 $1 Rounding radius*
0 $2 $3 $4 $5 $6 $7 $8 $9 X,Y pos of 4 corners*
0 Add a 4 corners polygon primitive as box body*
4,1,4,$2,$3,$4,$5,$6,$7,$8,$9,$2,$3,0*
0 Add four circle primitives for the rounded corners*
1,1,$1+$1,$2,$3*
1,1,$1+$1,$4,$5*
1,1,$1+$1,$6,$7*
1,1,$1+$1,$8,$9*
0 Add four rect primitives between the rounded corners*
20,1,$1+$1,$2,$3,$4,$5,0*
20,1,$1+$1,$4,$5,$6,$7,0*
20,1,$1+$1,$6,$7,$8,$9,0*
20,1,$1+$1,$8,$9,$2,$3,0*%
G04 Aperture macros list end*
%ADD10C,0.800000*%
%ADD11C,0.900000*%
%ADD12C,7.100000*%
%ADD13C,0.850000*%
%ADD14O,1.800000X1.800000*%
%ADD15RoundRect,0.050000X0.850000X0.850000X-0.850000X0.850000X-0.850000X-0.850000X0.850000X-0.850000X0*%
%ADD16RoundRect,0.050000X-0.850000X0.850000X-0.850000X-0.850000X0.850000X-0.850000X0.850000X0.850000X0*%
%ADD17RoundRect,0.050000X-0.850000X-0.850000X0.850000X-0.850000X0.850000X0.850000X-0.850000X0.850000X0*%
%ADD18RoundRect,0.050000X1.050000X-1.050000X1.050000X1.050000X-1.050000X1.050000X-1.050000X-1.050000X0*%
%ADD19C,2.200000*%
G04 APERTURE END LIST*
D10*
%TO.C,J3*%
X53180000Y-63045000D03*
X58960000Y-63045000D03*
%TD*%
D11*
%TO.C,H4*%
X26500000Y-23125000D03*
X29125000Y-20500000D03*
D12*
X26500000Y-20500000D03*
D11*
X26500000Y-17875000D03*
X24643845Y-22356155D03*
X24643845Y-18643845D03*
X28356155Y-22356155D03*
X23875000Y-20500000D03*
X28356155Y-18643845D03*
%TD*%
D13*
%TO.C,SW1*%
X26900000Y-47900000D03*
X26900000Y-46100000D03*
%TD*%
D14*
%TO.C,J9*%
X69900000Y-26680000D03*
X69900000Y-29220000D03*
X69900000Y-31760000D03*
D15*
X69900000Y-34300000D03*
%TD*%
D13*
%TO.C,SW2*%
X57775000Y-34700000D03*
X57775000Y-36500000D03*
%TD*%
D14*
%TO.C,J6*%
X51440000Y-22965000D03*
X51440000Y-20425000D03*
X53980000Y-22965000D03*
X53980000Y-20425000D03*
X56520000Y-22965000D03*
X56520000Y-20425000D03*
X59060000Y-22965000D03*
X59060000Y-20425000D03*
X61600000Y-22965000D03*
D16*
X61600000Y-20425000D03*
%TD*%
D15*
%TO.C,J8*%
X26000000Y-41060000D03*
D14*
X26000000Y-38520000D03*
%TD*%
D11*
%TO.C,H3*%
X74125000Y-64000000D03*
X73356155Y-65856155D03*
X69643845Y-62143845D03*
X73356155Y-62143845D03*
X68875000Y-64000000D03*
X71500000Y-66625000D03*
X69643845Y-65856155D03*
X71500000Y-61375000D03*
D12*
X71500000Y-64000000D03*
%TD*%
D11*
%TO.C,J2*%
X34890000Y-63707879D03*
X42890000Y-63707879D03*
%TD*%
D17*
%TO.C,J5*%
X25450000Y-50800000D03*
D14*
X25450000Y-53340000D03*
X25450000Y-55880000D03*
X25450000Y-58420000D03*
%TD*%
D15*
%TO.C,J7*%
X25900000Y-30875000D03*
D14*
X25900000Y-28335000D03*
%TD*%
%TO.C,J4*%
X34480000Y-22900000D03*
X37020000Y-22900000D03*
X39560000Y-22900000D03*
D16*
X42100000Y-22900000D03*
%TD*%
D11*
%TO.C,H1*%
X68875000Y-20500000D03*
X71500000Y-23125000D03*
D12*
X71500000Y-20500000D03*
D11*
X69643845Y-22356155D03*
X73356155Y-18643845D03*
X73356155Y-22356155D03*
X71500000Y-17875000D03*
X74125000Y-20500000D03*
X69643845Y-18643845D03*
%TD*%
D18*
%TO.C,J1*%
X71100000Y-53769999D03*
D19*
X71100000Y-51229999D03*
%TD*%
D11*
%TO.C,H2*%
X26500000Y-66625000D03*
X28356155Y-62143845D03*
X24643845Y-65856155D03*
X26500000Y-61375000D03*
X28356155Y-65856155D03*
X24643845Y-62143845D03*
X29125000Y-64000000D03*
X23875000Y-64000000D03*
D12*
X26500000Y-64000000D03*
%TD*%
M02*
