%TF.GenerationSoftware,KiCad,Pcbnew,(6.0.7)*%
%TF.CreationDate,2022-09-11T16:04:51-07:00*%
%TF.ProjectId,All-in-one,416c6c2d-696e-42d6-9f6e-652e6b696361,rev?*%
%TF.SameCoordinates,Original*%
%TF.FileFunction,Soldermask,Top*%
%TF.FilePolarity,Negative*%
%FSLAX46Y46*%
G04 Gerber Fmt 4.6, Leading zero omitted, Abs format (unit mm)*
G04 Created by KiCad (PCBNEW (6.0.7)) date 2022-09-11 16:04:51*
%MOMM*%
%LPD*%
G01*
G04 APERTURE LIST*
G04 Aperture macros list*
%AMRoundRect*
0 Rectangle with rounded corners*
0 $1 Rounding radius*
0 $2 $3 $4 $5 $6 $7 $8 $9 X,Y pos of 4 corners*
0 Add a 4 corners polygon primitive as box body*
4,1,4,$2,$3,$4,$5,$6,$7,$8,$9,$2,$3,0*
0 Add four circle primitives for the rounded corners*
1,1,$1+$1,$2,$3*
1,1,$1+$1,$4,$5*
1,1,$1+$1,$6,$7*
1,1,$1+$1,$8,$9*
0 Add four rect primitives between the rounded corners*
20,1,$1+$1,$2,$3,$4,$5,0*
20,1,$1+$1,$4,$5,$6,$7,0*
20,1,$1+$1,$6,$7,$8,$9,0*
20,1,$1+$1,$8,$9,$2,$3,0*%
%AMFreePoly0*
4,1,13,0.395355,0.160355,0.410000,0.125000,0.395355,0.089645,0.145355,-0.160355,0.110000,-0.175000,-0.110000,-0.175000,-0.145355,-0.160355,-0.160000,-0.125000,-0.160000,0.125000,-0.145355,0.160355,-0.110000,0.175000,0.360000,0.175000,0.395355,0.160355,0.395355,0.160355,$1*%
%AMFreePoly1*
4,1,14,0.145355,0.160355,0.325355,-0.019645,0.340000,-0.055000,0.340000,-0.125000,0.325355,-0.160355,0.290000,-0.175000,-0.110000,-0.175000,-0.145355,-0.160355,-0.160000,-0.125000,-0.160000,0.125000,-0.145355,0.160355,-0.110000,0.175000,0.110000,0.175000,0.145355,0.160355,0.145355,0.160355,$1*%
%AMFreePoly2*
4,1,14,0.145355,0.160355,0.160000,0.125000,0.160000,-0.125000,0.145355,-0.160355,0.110000,-0.175000,-0.290000,-0.175000,-0.325355,-0.160355,-0.340000,-0.125000,-0.340000,-0.055000,-0.325355,-0.019645,-0.145355,0.160355,-0.110000,0.175000,0.110000,0.175000,0.145355,0.160355,0.145355,0.160355,$1*%
%AMFreePoly3*
4,1,14,0.145355,0.160355,0.160000,0.125000,0.160000,-0.125000,0.145355,-0.160355,0.110000,-0.175000,-0.110000,-0.175000,-0.145355,-0.160355,-0.325355,0.019645,-0.340000,0.055000,-0.340000,0.125000,-0.325355,0.160355,-0.290000,0.175000,0.110000,0.175000,0.145355,0.160355,0.145355,0.160355,$1*%
G04 Aperture macros list end*
%ADD10RoundRect,0.200000X-0.512500X-0.150000X0.512500X-0.150000X0.512500X0.150000X-0.512500X0.150000X0*%
%ADD11RoundRect,0.300000X0.650000X-0.325000X0.650000X0.325000X-0.650000X0.325000X-0.650000X-0.325000X0*%
%ADD12RoundRect,0.050000X-0.600000X0.700000X-0.600000X-0.700000X0.600000X-0.700000X0.600000X0.700000X0*%
%ADD13RoundRect,0.050000X0.250000X0.187500X-0.250000X0.187500X-0.250000X-0.187500X0.250000X-0.187500X0*%
%ADD14RoundRect,0.050000X0.325000X0.150000X-0.325000X0.150000X-0.325000X-0.150000X0.325000X-0.150000X0*%
%ADD15RoundRect,0.300000X0.275000X0.700000X-0.275000X0.700000X-0.275000X-0.700000X0.275000X-0.700000X0*%
%ADD16RoundRect,0.250000X0.200000X0.275000X-0.200000X0.275000X-0.200000X-0.275000X0.200000X-0.275000X0*%
%ADD17RoundRect,0.185000X0.135000X0.185000X-0.135000X0.185000X-0.135000X-0.185000X0.135000X-0.185000X0*%
%ADD18RoundRect,0.250000X-0.200000X-0.275000X0.200000X-0.275000X0.200000X0.275000X-0.200000X0.275000X0*%
%ADD19RoundRect,0.268750X-0.218750X-0.256250X0.218750X-0.256250X0.218750X0.256250X-0.218750X0.256250X0*%
%ADD20C,0.850000*%
%ADD21RoundRect,0.312500X0.537500X-0.262500X0.537500X0.262500X-0.537500X0.262500X-0.537500X-0.262500X0*%
%ADD22RoundRect,0.190000X-0.170000X0.140000X-0.170000X-0.140000X0.170000X-0.140000X0.170000X0.140000X0*%
%ADD23RoundRect,0.185000X-0.185000X0.135000X-0.185000X-0.135000X0.185000X-0.135000X0.185000X0.135000X0*%
%ADD24RoundRect,0.300000X-0.250000X-0.475000X0.250000X-0.475000X0.250000X0.475000X-0.250000X0.475000X0*%
%ADD25RoundRect,0.190000X0.170000X-0.140000X0.170000X0.140000X-0.170000X0.140000X-0.170000X-0.140000X0*%
%ADD26RoundRect,0.190000X-0.140000X-0.170000X0.140000X-0.170000X0.140000X0.170000X-0.140000X0.170000X0*%
%ADD27RoundRect,0.050000X-0.850000X0.850000X-0.850000X-0.850000X0.850000X-0.850000X0.850000X0.850000X0*%
%ADD28O,1.800000X1.800000*%
%ADD29RoundRect,0.200000X0.150000X-0.587500X0.150000X0.587500X-0.150000X0.587500X-0.150000X-0.587500X0*%
%ADD30RoundRect,0.197500X-0.147500X-0.172500X0.147500X-0.172500X0.147500X0.172500X-0.147500X0.172500X0*%
%ADD31RoundRect,0.300000X-0.475000X0.250000X-0.475000X-0.250000X0.475000X-0.250000X0.475000X0.250000X0*%
%ADD32RoundRect,0.300000X-0.650000X0.325000X-0.650000X-0.325000X0.650000X-0.325000X0.650000X0.325000X0*%
%ADD33RoundRect,0.050000X-1.050000X1.050000X-1.050000X-1.050000X1.050000X-1.050000X1.050000X1.050000X0*%
%ADD34C,2.200000*%
%ADD35RoundRect,0.300000X0.625000X-0.375000X0.625000X0.375000X-0.625000X0.375000X-0.625000X-0.375000X0*%
%ADD36FreePoly0,90.000000*%
%ADD37FreePoly1,90.000000*%
%ADD38FreePoly2,90.000000*%
%ADD39FreePoly3,90.000000*%
%ADD40RoundRect,0.050000X0.339411X0.000000X0.000000X0.339411X-0.339411X0.000000X0.000000X-0.339411X0*%
%ADD41RoundRect,0.125000X0.075000X-0.350000X0.075000X0.350000X-0.075000X0.350000X-0.075000X-0.350000X0*%
%ADD42RoundRect,0.125000X0.350000X0.075000X-0.350000X0.075000X-0.350000X-0.075000X0.350000X-0.075000X0*%
%ADD43RoundRect,0.275000X0.225000X0.250000X-0.225000X0.250000X-0.225000X-0.250000X0.225000X-0.250000X0*%
%ADD44RoundRect,0.050000X-0.850000X-0.850000X0.850000X-0.850000X0.850000X0.850000X-0.850000X0.850000X0*%
%ADD45RoundRect,0.250000X-0.275000X0.200000X-0.275000X-0.200000X0.275000X-0.200000X0.275000X0.200000X0*%
%ADD46RoundRect,0.275000X-0.250000X0.225000X-0.250000X-0.225000X0.250000X-0.225000X0.250000X0.225000X0*%
%ADD47C,0.900000*%
%ADD48C,7.100000*%
%ADD49C,0.800000*%
%ADD50RoundRect,0.050000X0.725000X-0.300000X0.725000X0.300000X-0.725000X0.300000X-0.725000X-0.300000X0*%
%ADD51RoundRect,0.050000X0.725000X-0.150000X0.725000X0.150000X-0.725000X0.150000X-0.725000X-0.150000X0*%
%ADD52RoundRect,0.050000X0.725000X-0.900000X0.725000X0.900000X-0.725000X0.900000X-0.725000X-0.900000X0*%
%ADD53RoundRect,0.287500X-1.412500X0.237500X-1.412500X-0.237500X1.412500X-0.237500X1.412500X0.237500X0*%
%ADD54RoundRect,0.190000X0.140000X0.170000X-0.140000X0.170000X-0.140000X-0.170000X0.140000X-0.170000X0*%
%ADD55RoundRect,0.050000X-0.250000X-0.175000X0.250000X-0.175000X0.250000X0.175000X-0.250000X0.175000X0*%
%ADD56RoundRect,0.225000X-0.175000X-0.325000X0.175000X-0.325000X0.175000X0.325000X-0.175000X0.325000X0*%
%ADD57RoundRect,0.300000X-0.250000X-0.500000X0.250000X-0.500000X0.250000X0.500000X-0.250000X0.500000X0*%
%ADD58RoundRect,0.300000X-0.250000X-0.650000X0.250000X-0.650000X0.250000X0.650000X-0.250000X0.650000X0*%
%ADD59RoundRect,0.250000X0.275000X-0.200000X0.275000X0.200000X-0.275000X0.200000X-0.275000X-0.200000X0*%
%ADD60RoundRect,0.268750X0.256250X-0.218750X0.256250X0.218750X-0.256250X0.218750X-0.256250X-0.218750X0*%
%ADD61RoundRect,0.050000X0.850000X0.850000X-0.850000X0.850000X-0.850000X-0.850000X0.850000X-0.850000X0*%
%ADD62RoundRect,0.300000X-0.625000X0.375000X-0.625000X-0.375000X0.625000X-0.375000X0.625000X0.375000X0*%
%ADD63RoundRect,0.050000X-0.600000X0.450000X-0.600000X-0.450000X0.600000X-0.450000X0.600000X0.450000X0*%
%ADD64C,1.624000*%
%ADD65RoundRect,0.112500X-0.375000X-0.062500X0.375000X-0.062500X0.375000X0.062500X-0.375000X0.062500X0*%
%ADD66RoundRect,0.112500X-0.062500X-0.375000X0.062500X-0.375000X0.062500X0.375000X-0.062500X0.375000X0*%
%ADD67RoundRect,0.050000X-2.800000X-2.800000X2.800000X-2.800000X2.800000X2.800000X-2.800000X2.800000X0*%
G04 APERTURE END LIST*
D10*
%TO.C,U7*%
X57012500Y-54650000D03*
X57012500Y-55600000D03*
X57012500Y-56550000D03*
X59287500Y-56550000D03*
X59287500Y-54650000D03*
%TD*%
D11*
%TO.C,C2*%
X61500000Y-39375000D03*
X61500000Y-36425000D03*
%TD*%
D12*
%TO.C,Y1*%
X32650000Y-39500000D03*
X32650000Y-41700000D03*
X34350000Y-41700000D03*
X34350000Y-39500000D03*
%TD*%
D13*
%TO.C,U6*%
X72600000Y-49197500D03*
D14*
X72675000Y-48660000D03*
D13*
X72600000Y-48122500D03*
X70900000Y-48122500D03*
D14*
X70825000Y-48660000D03*
D13*
X70900000Y-49197500D03*
%TD*%
D15*
%TO.C,FB1*%
X62075000Y-41700000D03*
X58925000Y-41700000D03*
%TD*%
D16*
%TO.C,R1*%
X68925000Y-37100000D03*
X67275000Y-37100000D03*
%TD*%
D17*
%TO.C,R10*%
X36610000Y-41300000D03*
X35590000Y-41300000D03*
%TD*%
D18*
%TO.C,R14*%
X42575000Y-33800000D03*
X44225000Y-33800000D03*
%TD*%
D10*
%TO.C,U8*%
X54762500Y-29750000D03*
X54762500Y-30700000D03*
X54762500Y-31650000D03*
X57037500Y-31650000D03*
X57037500Y-29750000D03*
%TD*%
D19*
%TO.C,D2*%
X58562500Y-53000000D03*
X60137500Y-53000000D03*
%TD*%
D20*
%TO.C,SW2*%
X34500000Y-50700000D03*
X32700000Y-50700000D03*
D21*
X33600000Y-52925000D03*
X33600000Y-48475000D03*
%TD*%
D22*
%TO.C,C15*%
X46200000Y-37920000D03*
X46200000Y-38880000D03*
%TD*%
D23*
%TO.C,R12*%
X40190000Y-47800000D03*
X40190000Y-48820000D03*
%TD*%
D17*
%TO.C,R15*%
X36190000Y-54300000D03*
X35170000Y-54300000D03*
%TD*%
%TO.C,R9*%
X53410000Y-40600000D03*
X52390000Y-40600000D03*
%TD*%
D24*
%TO.C,C8*%
X61400000Y-58600000D03*
X63300000Y-58600000D03*
%TD*%
D25*
%TO.C,C24*%
X47900000Y-29780000D03*
X47900000Y-28820000D03*
%TD*%
D24*
%TO.C,C3*%
X64650000Y-35350000D03*
X66550000Y-35350000D03*
%TD*%
D26*
%TO.C,C17*%
X32990000Y-37800000D03*
X33950000Y-37800000D03*
%TD*%
D19*
%TO.C,D3*%
X56312500Y-28100000D03*
X57887500Y-28100000D03*
%TD*%
D27*
%TO.C,J9*%
X56375000Y-22430000D03*
D28*
X53835000Y-22430000D03*
X51295000Y-22430000D03*
X48755000Y-22430000D03*
%TD*%
D29*
%TO.C,Q1*%
X66350000Y-43437500D03*
X68250000Y-43437500D03*
X67300000Y-41562500D03*
%TD*%
D30*
%TO.C,L2*%
X36015000Y-44750000D03*
X36985000Y-44750000D03*
%TD*%
D31*
%TO.C,C26*%
X61350000Y-54650000D03*
X61350000Y-56550000D03*
%TD*%
D32*
%TO.C,C5*%
X61900000Y-31425000D03*
X61900000Y-34375000D03*
%TD*%
D20*
%TO.C,SW3*%
X55900000Y-42850000D03*
X54100000Y-42850000D03*
D21*
X55000000Y-45075000D03*
X55000000Y-40625000D03*
%TD*%
D33*
%TO.C,J2*%
X73000000Y-57000000D03*
D34*
X73000000Y-59540000D03*
%TD*%
D35*
%TO.C,F1*%
X64200000Y-44000000D03*
X64200000Y-41200000D03*
%TD*%
D36*
%TO.C,U2*%
X63025000Y-57070000D03*
D37*
X63675000Y-57070000D03*
D38*
X63675000Y-55990000D03*
D39*
X63025000Y-55990000D03*
D40*
X63350000Y-56530000D03*
%TD*%
D16*
%TO.C,R2*%
X68925000Y-38400000D03*
X67275000Y-38400000D03*
%TD*%
D41*
%TO.C,U5*%
X43325000Y-32000000D03*
X43825000Y-32000000D03*
X44325000Y-32000000D03*
X44825000Y-32000000D03*
X45325000Y-32000000D03*
X45825000Y-32000000D03*
D42*
X46525000Y-31300000D03*
X46525000Y-30800000D03*
X46525000Y-30300000D03*
X46525000Y-29800000D03*
X46525000Y-29300000D03*
X46525000Y-28800000D03*
D41*
X45825000Y-28100000D03*
X45325000Y-28100000D03*
X44825000Y-28100000D03*
X44325000Y-28100000D03*
X43825000Y-28100000D03*
X43325000Y-28100000D03*
D42*
X42625000Y-28800000D03*
X42625000Y-29300000D03*
X42625000Y-29800000D03*
X42625000Y-30300000D03*
X42625000Y-30800000D03*
X42625000Y-31300000D03*
%TD*%
D27*
%TO.C,J10*%
X70575000Y-22225000D03*
D28*
X70575000Y-24765000D03*
X68035000Y-22225000D03*
X68035000Y-24765000D03*
X65495000Y-22225000D03*
X65495000Y-24765000D03*
X62955000Y-22225000D03*
X62955000Y-24765000D03*
X60415000Y-22225000D03*
X60415000Y-24765000D03*
%TD*%
D43*
%TO.C,C12*%
X37475000Y-36400000D03*
X35925000Y-36400000D03*
%TD*%
D44*
%TO.C,J7*%
X25200000Y-41060000D03*
D28*
X25200000Y-43600000D03*
%TD*%
D31*
%TO.C,C7*%
X65250000Y-56300000D03*
X65250000Y-58200000D03*
%TD*%
D45*
%TO.C,R3*%
X56950000Y-51375000D03*
X56950000Y-53025000D03*
%TD*%
D31*
%TO.C,C27*%
X54950000Y-52250000D03*
X54950000Y-54150000D03*
%TD*%
D46*
%TO.C,C19*%
X43300000Y-46225000D03*
X43300000Y-47775000D03*
%TD*%
D22*
%TO.C,C14*%
X45200000Y-45520000D03*
X45200000Y-46480000D03*
%TD*%
D26*
%TO.C,C16*%
X38720000Y-36600000D03*
X39680000Y-36600000D03*
%TD*%
D47*
%TO.C,H3*%
X27525000Y-65900000D03*
X26756155Y-67756155D03*
X23043845Y-64043845D03*
X26756155Y-64043845D03*
X22275000Y-65900000D03*
X24900000Y-68525000D03*
X23043845Y-67756155D03*
X24900000Y-63275000D03*
D48*
X24900000Y-65900000D03*
%TD*%
D46*
%TO.C,C20*%
X34700000Y-30725000D03*
X34700000Y-32275000D03*
%TD*%
%TO.C,C10*%
X36600000Y-45925000D03*
X36600000Y-47475000D03*
%TD*%
D49*
%TO.C,J4*%
X76145000Y-51320000D03*
X76145000Y-45540000D03*
D50*
X74700000Y-51655000D03*
X74700000Y-45205000D03*
X74700000Y-50880000D03*
D51*
X74700000Y-50180000D03*
X74700000Y-48680000D03*
X74700000Y-47680000D03*
X74700000Y-46680000D03*
D50*
X74700000Y-45980000D03*
D51*
X74700000Y-47180000D03*
X74700000Y-48180000D03*
X74700000Y-49180000D03*
X74700000Y-49680000D03*
D52*
X79795000Y-53500000D03*
X79795000Y-43360000D03*
X75615000Y-53500000D03*
X75615000Y-43360000D03*
%TD*%
D16*
%TO.C,R13*%
X40825000Y-33800000D03*
X39175000Y-33800000D03*
%TD*%
D22*
%TO.C,C21*%
X36100000Y-30720000D03*
X36100000Y-31680000D03*
%TD*%
D53*
%TO.C,L1*%
X55700000Y-38075000D03*
X55700000Y-35025000D03*
%TD*%
D54*
%TO.C,C23*%
X45880000Y-26700000D03*
X44920000Y-26700000D03*
%TD*%
D55*
%TO.C,U4*%
X38900000Y-29425000D03*
X38900000Y-30075000D03*
X38900000Y-30725000D03*
X38900000Y-31375000D03*
X37300000Y-31375000D03*
X37300000Y-30725000D03*
X37300000Y-30075000D03*
X37300000Y-29425000D03*
%TD*%
D47*
%TO.C,J3*%
X37990000Y-66907879D03*
X45990000Y-66907879D03*
D56*
X45140000Y-55923637D03*
X44040000Y-55907879D03*
X42940000Y-55892121D03*
X41840000Y-55907879D03*
X40740000Y-55907879D03*
X39640000Y-55907879D03*
X38540000Y-55907879D03*
X37440000Y-55907879D03*
X36340000Y-55907879D03*
D57*
X35240000Y-57157879D03*
D58*
X50960000Y-66607879D03*
X35240000Y-66607879D03*
D57*
X50190000Y-57157879D03*
%TD*%
D48*
%TO.C,H4*%
X76900000Y-65900000D03*
D47*
X75043845Y-64043845D03*
X79525000Y-65900000D03*
X78756155Y-64043845D03*
X78756155Y-67756155D03*
X74275000Y-65900000D03*
X76900000Y-63275000D03*
X76900000Y-68525000D03*
X75043845Y-67756155D03*
%TD*%
D59*
%TO.C,R5*%
X55150000Y-58425000D03*
X55150000Y-56775000D03*
%TD*%
D22*
%TO.C,C22*%
X47850000Y-30840000D03*
X47850000Y-31800000D03*
%TD*%
D32*
%TO.C,C6*%
X67650000Y-56325000D03*
X67650000Y-59275000D03*
%TD*%
D17*
%TO.C,R17*%
X73260000Y-50240000D03*
X72240000Y-50240000D03*
%TD*%
D60*
%TO.C,D4*%
X50900000Y-51487500D03*
X50900000Y-49912500D03*
%TD*%
D61*
%TO.C,J5*%
X28200000Y-58210000D03*
D28*
X28200000Y-55670000D03*
X28200000Y-53130000D03*
X28200000Y-50590000D03*
%TD*%
D31*
%TO.C,C28*%
X52800000Y-26950000D03*
X52800000Y-28850000D03*
%TD*%
D62*
%TO.C,F2*%
X63550000Y-51700000D03*
X63550000Y-54500000D03*
%TD*%
D32*
%TO.C,C4*%
X59500000Y-31425000D03*
X59500000Y-34375000D03*
%TD*%
D44*
%TO.C,J6*%
X25200000Y-30960000D03*
D28*
X25200000Y-33500000D03*
%TD*%
D10*
%TO.C,U1*%
X63562500Y-37150000D03*
X63562500Y-38100000D03*
X63562500Y-39050000D03*
X65837500Y-39050000D03*
X65837500Y-38100000D03*
X65837500Y-37150000D03*
%TD*%
D54*
%TO.C,C11*%
X36880000Y-43700000D03*
X35920000Y-43700000D03*
%TD*%
D18*
%TO.C,R4*%
X57925000Y-58400000D03*
X59575000Y-58400000D03*
%TD*%
D54*
%TO.C,C18*%
X33980000Y-43300000D03*
X33020000Y-43300000D03*
%TD*%
D25*
%TO.C,C25*%
X41300000Y-29280000D03*
X41300000Y-28320000D03*
%TD*%
D27*
%TO.C,J8*%
X42000000Y-22430000D03*
D28*
X39460000Y-22430000D03*
X36920000Y-22430000D03*
X34380000Y-22430000D03*
%TD*%
D18*
%TO.C,R7*%
X55075000Y-33300000D03*
X56725000Y-33300000D03*
%TD*%
D47*
%TO.C,H1*%
X74943845Y-18843845D03*
X79425000Y-20700000D03*
X76800000Y-18075000D03*
X78656155Y-22556155D03*
X78656155Y-18843845D03*
X74943845Y-22556155D03*
D48*
X76800000Y-20700000D03*
D47*
X76800000Y-23325000D03*
X74175000Y-20700000D03*
%TD*%
D33*
%TO.C,J1*%
X73200000Y-37130000D03*
D34*
X73200000Y-39670000D03*
%TD*%
D59*
%TO.C,R8*%
X53000000Y-33325000D03*
X53000000Y-31675000D03*
%TD*%
D47*
%TO.C,H2*%
X25000000Y-23325000D03*
X26856155Y-18843845D03*
X23143845Y-22556155D03*
X25000000Y-18075000D03*
X26856155Y-22556155D03*
X23143845Y-18843845D03*
X27625000Y-20700000D03*
X22375000Y-20700000D03*
D48*
X25000000Y-20700000D03*
%TD*%
D17*
%TO.C,R16*%
X73240000Y-46730000D03*
X72220000Y-46730000D03*
%TD*%
D63*
%TO.C,D1*%
X70575000Y-42780000D03*
X70575000Y-46080000D03*
%TD*%
D64*
%TO.C,SW1*%
X67375000Y-45984783D03*
X61375000Y-45984783D03*
X65375000Y-45984783D03*
X59375000Y-45984783D03*
X67375000Y-49384783D03*
X61375000Y-49384783D03*
X65375000Y-49415218D03*
X59375000Y-49415218D03*
%TD*%
D45*
%TO.C,R6*%
X54700000Y-26475000D03*
X54700000Y-28125000D03*
%TD*%
%TO.C,R11*%
X50900000Y-52775000D03*
X50900000Y-54425000D03*
%TD*%
D11*
%TO.C,C1*%
X59200000Y-39375000D03*
X59200000Y-36425000D03*
%TD*%
D26*
%TO.C,C9*%
X32320000Y-46200000D03*
X33280000Y-46200000D03*
%TD*%
D25*
%TO.C,C13*%
X36700000Y-38590000D03*
X36700000Y-37630000D03*
%TD*%
D65*
%TO.C,U3*%
X38037500Y-38580000D03*
X38037500Y-39080000D03*
X38037500Y-39580000D03*
X38037500Y-40080000D03*
X38037500Y-40580000D03*
X38037500Y-41080000D03*
X38037500Y-41580000D03*
X38037500Y-42080000D03*
X38037500Y-42580000D03*
X38037500Y-43080000D03*
X38037500Y-43580000D03*
X38037500Y-44080000D03*
D66*
X38725000Y-44767500D03*
X39225000Y-44767500D03*
X39725000Y-44767500D03*
X40225000Y-44767500D03*
X40725000Y-44767500D03*
X41225000Y-44767500D03*
X41725000Y-44767500D03*
X42225000Y-44767500D03*
X42725000Y-44767500D03*
X43225000Y-44767500D03*
X43725000Y-44767500D03*
X44225000Y-44767500D03*
D65*
X44912500Y-44080000D03*
X44912500Y-43580000D03*
X44912500Y-43080000D03*
X44912500Y-42580000D03*
X44912500Y-42080000D03*
X44912500Y-41580000D03*
X44912500Y-41080000D03*
X44912500Y-40580000D03*
X44912500Y-40080000D03*
X44912500Y-39580000D03*
X44912500Y-39080000D03*
X44912500Y-38580000D03*
D66*
X44225000Y-37892500D03*
X43725000Y-37892500D03*
X43225000Y-37892500D03*
X42725000Y-37892500D03*
X42225000Y-37892500D03*
X41725000Y-37892500D03*
X41225000Y-37892500D03*
X40725000Y-37892500D03*
X40225000Y-37892500D03*
X39725000Y-37892500D03*
X39225000Y-37892500D03*
X38725000Y-37892500D03*
D67*
X41475000Y-41330000D03*
%TD*%
G36*
X75443898Y-51225221D02*
G01*
X75444288Y-51227183D01*
X75444057Y-51227651D01*
X75423667Y-51258168D01*
X75430853Y-51294294D01*
X75443554Y-51306995D01*
X75444072Y-51308927D01*
X75442658Y-51310341D01*
X75441750Y-51310371D01*
X75424801Y-51307000D01*
X73975199Y-51307000D01*
X73957996Y-51310422D01*
X73956102Y-51309779D01*
X73955712Y-51307817D01*
X73955943Y-51307349D01*
X73976333Y-51276832D01*
X73969147Y-51240706D01*
X73956446Y-51228005D01*
X73955928Y-51226073D01*
X73957342Y-51224659D01*
X73958250Y-51224629D01*
X73975199Y-51228000D01*
X75424801Y-51228000D01*
X75442004Y-51224578D01*
X75443898Y-51225221D01*
G37*
G36*
X75443898Y-45550221D02*
G01*
X75444288Y-45552183D01*
X75444057Y-45552651D01*
X75423667Y-45583168D01*
X75430853Y-45619294D01*
X75443554Y-45631995D01*
X75444072Y-45633927D01*
X75442658Y-45635341D01*
X75441750Y-45635371D01*
X75424801Y-45632000D01*
X73975199Y-45632000D01*
X73957996Y-45635422D01*
X73956102Y-45634779D01*
X73955712Y-45632817D01*
X73955943Y-45632349D01*
X73976333Y-45601832D01*
X73969147Y-45565706D01*
X73956446Y-45553005D01*
X73955928Y-45551073D01*
X73957342Y-45549659D01*
X73958250Y-45549629D01*
X73975199Y-45553000D01*
X75424801Y-45553000D01*
X75442004Y-45549578D01*
X75443898Y-45550221D01*
G37*
M02*
