M48
; DRILL file {KiCad (6.0.7)} date Fri 16 Sep 2022 11:19:33 PM
; FORMAT={-:-/ absolute / inch / decimal}
; #@! TF.CreationDate,2022-09-16T23:19:33-07:00
; #@! TF.GenerationSoftware,Kicad,Pcbnew,(6.0.7)
; #@! TF.FileFunction,Plated,1,4,PTH
FMAT,2
INCH
; #@! TA.AperFunction,Plated,PTH,ViaDrill
T1C0.0079
; #@! TA.AperFunction,Plated,PTH,ViaDrill
T2C0.0118
; #@! TA.AperFunction,Plated,PTH,ViaDrill
T3C0.0157
; #@! TA.AperFunction,Plated,PTH,ComponentDrill
T4C0.0197
; #@! TA.AperFunction,Plated,PTH,ComponentDrill
T5C0.0394
; #@! TA.AperFunction,Plated,PTH,ComponentDrill
T6C0.0433
; #@! TA.AperFunction,Plated,PTH,ComponentDrill
T7C0.1378
%
G90
G05
T1
X1.4173Y-1.4803
X1.4449Y-1.5433
X1.5433Y-1.4094
X1.563Y-1.4094
X1.5709Y-1.2126
X1.6417Y-1.2126
X1.7087Y-1.3622
X1.874Y-1.2756
X1.878Y-1.0591
X1.8976Y-1.2756
X2.252Y-2.3228
X2.252Y-2.3465
T2
X1.3504Y-1.9606
X1.437Y-1.1772
X1.4823Y-1.9409
X1.563Y-1.378
X1.7283Y-1.8268
X1.7402Y-1.0472
X1.7618Y-1.7717
X1.7677Y-1.2992
X1.8012Y-1.7776
X1.8189Y-1.4646
X1.8239Y-1.7562
X1.8447Y-1.7365
X1.8504Y-1.5276
X1.8504Y-1.6181
X1.8524Y-1.6466
X1.8651Y-1.7165
X1.8701Y-1.4173
X1.8839Y-1.6929
X1.9173Y-1.2165
T3
X0.9331Y-1.8346
X0.9331Y-1.8661
X1.2244Y-2.4764
X1.2244Y-2.5118
X1.2283Y-2.0984
X1.2283Y-2.1339
X1.2559Y-1.7067
X1.2756Y-2.063
X1.2874Y-1.8819
X1.3543Y-1.7835
X1.374Y-1.4902
X1.3937Y-1.7894
X1.3976Y-1.1772
X1.3976Y-1.8642
X1.4075Y-1.2776
X1.4134Y-1.3937
X1.439Y-2.0433
X1.4429Y-1.2776
X1.4685Y-1.122
X1.4764Y-1.3937
X1.4823Y-2.0374
X1.4921Y-1.4882
X1.4961Y-1.764
X1.4961Y-1.8622
X1.5236Y-2.0354
X1.5315Y-1.122
X1.5433Y-1.2913
X1.5571Y-1.624
X1.563Y-1.1772
X1.5965Y-1.624
X1.6063Y-1.2913
X1.6118Y-2.037
X1.626Y-1.0827
X1.6319Y-1.624
X1.6673Y-1.624
X1.6772Y-1.9094
X1.7047Y-1.0669
X1.7047Y-1.624
X1.7244Y-1.8661
X1.748Y-2.0669
X1.8386Y-1.0512
X1.8858Y-1.1024
X1.8898Y-1.3228
X1.8937Y-2.1063
X1.8937Y-2.1417
X1.9173Y-2.4764
X1.9173Y-2.5118
X1.9843Y-1.3661
X1.9843Y-2.5118
X1.9843Y-2.5748
X1.9961Y-1.4488
X2.0039Y-2.4094
X2.0236Y-1.5276
X2.0315Y-2.5118
X2.0315Y-2.5748
X2.0433Y-2.4094
X2.0945Y-2.3465
X2.1362Y-2.2976
X2.1496Y-1.9331
X2.1496Y-1.9685
X2.2598Y-2.1496
X2.2598Y-2.1811
X2.2631Y-2.2559
X2.2631Y-2.2914
X2.315Y-1.8819
X2.3504Y-1.8819
X2.3622Y-1.3504
X2.3701Y-2.4094
X2.374Y-2.1654
X2.376Y-2.0906
X2.376Y-2.122
X2.3898Y-2.5118
X2.3898Y-2.5748
X2.4016Y-1.3898
X2.4094Y-2.1929
X2.4094Y-2.4094
X2.4252Y-2.5118
X2.4291Y-1.6339
X2.4291Y-1.6693
X2.4291Y-1.7047
X2.4291Y-1.7402
X2.4291Y-1.7756
X2.4291Y-1.8071
X2.4291Y-2.5748
X2.4528Y-1.9016
X2.5906Y-1.5945
X2.6181Y-2.2283
X2.6181Y-2.2598
X2.622Y-1.5945
X2.6575Y-1.7402
X2.6575Y-1.7717
X2.7427Y-1.7709
X2.7427Y-1.8339
X2.7515Y-1.5288
X2.752Y-1.5748
T4
X0.94Y-0.8071
X0.94Y-2.5197
X0.9702Y-0.734
X0.9702Y-0.8802
X0.9702Y-2.4466
X0.9702Y-2.5928
X1.0433Y-0.7037
X1.0433Y-0.9104
X1.0433Y-2.4163
X1.0433Y-2.623
X1.1164Y-0.734
X1.1164Y-0.8802
X1.1164Y-2.4466
X1.1164Y-2.5928
X1.1467Y-0.8071
X1.1467Y-2.5197
X2.7116Y-0.8071
X2.7116Y-2.5197
X2.7419Y-0.734
X2.7419Y-0.8802
X2.7419Y-2.4466
X2.7419Y-2.5928
X2.815Y-0.7037
X2.815Y-0.9104
X2.815Y-2.4163
X2.815Y-2.623
X2.888Y-0.734
X2.888Y-0.8802
X2.888Y-2.4466
X2.888Y-2.5928
X2.9183Y-0.8071
X2.9183Y-2.5197
T5
X1.002Y-2.0
X1.002Y-2.1
X1.002Y-2.2
X1.002Y-2.3
X1.0197Y-1.1156
X1.0197Y-1.2156
X1.0236Y-1.5165
X1.0236Y-1.6165
X1.3575Y-0.9016
X1.4575Y-0.9016
X1.5575Y-0.9016
X1.6575Y-0.9016
X2.0252Y-0.8041
X2.0252Y-0.9041
X2.1252Y-0.8041
X2.1252Y-0.9041
X2.2252Y-0.8041
X2.2252Y-0.9041
X2.3252Y-0.8041
X2.3252Y-0.9041
X2.4252Y-0.8041
X2.4252Y-0.9041
X2.752Y-1.0504
X2.752Y-1.1504
X2.752Y-1.2504
X2.752Y-1.3504
T6
X2.7992Y-2.0169
X2.7992Y-2.1169
T7
X1.0433Y-0.8071
X1.0433Y-2.5197
X2.815Y-0.8071
X2.815Y-2.5197
T0
M30
