%TF.GenerationSoftware,KiCad,Pcbnew,(6.0.7)*%
%TF.CreationDate,2022-09-16T23:20:04-07:00*%
%TF.ProjectId,All-in-one,416c6c2d-696e-42d6-9f6e-652e6b696361,rev?*%
%TF.SameCoordinates,Original*%
%TF.FileFunction,Copper,L1,Top*%
%TF.FilePolarity,Positive*%
%FSLAX46Y46*%
G04 Gerber Fmt 4.6, Leading zero omitted, Abs format (unit mm)*
G04 Created by KiCad (PCBNEW (6.0.7)) date 2022-09-16 23:20:04*
%MOMM*%
%LPD*%
G01*
G04 APERTURE LIST*
G04 Aperture macros list*
%AMRoundRect*
0 Rectangle with rounded corners*
0 $1 Rounding radius*
0 $2 $3 $4 $5 $6 $7 $8 $9 X,Y pos of 4 corners*
0 Add a 4 corners polygon primitive as box body*
4,1,4,$2,$3,$4,$5,$6,$7,$8,$9,$2,$3,0*
0 Add four circle primitives for the rounded corners*
1,1,$1+$1,$2,$3*
1,1,$1+$1,$4,$5*
1,1,$1+$1,$6,$7*
1,1,$1+$1,$8,$9*
0 Add four rect primitives between the rounded corners*
20,1,$1+$1,$2,$3,$4,$5,0*
20,1,$1+$1,$4,$5,$6,$7,0*
20,1,$1+$1,$6,$7,$8,$9,0*
20,1,$1+$1,$8,$9,$2,$3,0*%
G04 Aperture macros list end*
%TA.AperFunction,SMDPad,CuDef*%
%ADD10R,1.800000X1.450000*%
%TD*%
%TA.AperFunction,SMDPad,CuDef*%
%ADD11R,0.300000X1.450000*%
%TD*%
%TA.AperFunction,SMDPad,CuDef*%
%ADD12R,0.600000X1.450000*%
%TD*%
%TA.AperFunction,SMDPad,CuDef*%
%ADD13RoundRect,0.135000X-0.135000X-0.185000X0.135000X-0.185000X0.135000X0.185000X-0.135000X0.185000X0*%
%TD*%
%TA.AperFunction,SMDPad,CuDef*%
%ADD14RoundRect,0.250000X0.625000X-0.375000X0.625000X0.375000X-0.625000X0.375000X-0.625000X-0.375000X0*%
%TD*%
%TA.AperFunction,SMDPad,CuDef*%
%ADD15RoundRect,0.200000X0.200000X0.275000X-0.200000X0.275000X-0.200000X-0.275000X0.200000X-0.275000X0*%
%TD*%
%TA.AperFunction,SMDPad,CuDef*%
%ADD16RoundRect,0.200000X-0.200000X-0.275000X0.200000X-0.275000X0.200000X0.275000X-0.200000X0.275000X0*%
%TD*%
%TA.AperFunction,ComponentPad*%
%ADD17C,0.800000*%
%TD*%
%TA.AperFunction,ComponentPad*%
%ADD18C,7.000000*%
%TD*%
%TA.AperFunction,SMDPad,CuDef*%
%ADD19R,1.200000X1.400000*%
%TD*%
%TA.AperFunction,SMDPad,CuDef*%
%ADD20R,0.375000X0.500000*%
%TD*%
%TA.AperFunction,SMDPad,CuDef*%
%ADD21R,0.300000X0.650000*%
%TD*%
%TA.AperFunction,SMDPad,CuDef*%
%ADD22RoundRect,0.250000X0.275000X0.700000X-0.275000X0.700000X-0.275000X-0.700000X0.275000X-0.700000X0*%
%TD*%
%TA.AperFunction,SMDPad,CuDef*%
%ADD23RoundRect,0.135000X0.135000X0.185000X-0.135000X0.185000X-0.135000X-0.185000X0.135000X-0.185000X0*%
%TD*%
%TA.AperFunction,SMDPad,CuDef*%
%ADD24RoundRect,0.262500X-0.262500X-0.537500X0.262500X-0.537500X0.262500X0.537500X-0.262500X0.537500X0*%
%TD*%
%TA.AperFunction,SMDPad,CuDef*%
%ADD25RoundRect,0.140000X-0.170000X0.140000X-0.170000X-0.140000X0.170000X-0.140000X0.170000X0.140000X0*%
%TD*%
%TA.AperFunction,SMDPad,CuDef*%
%ADD26RoundRect,0.135000X-0.185000X0.135000X-0.185000X-0.135000X0.185000X-0.135000X0.185000X0.135000X0*%
%TD*%
%TA.AperFunction,SMDPad,CuDef*%
%ADD27RoundRect,0.140000X0.170000X-0.140000X0.170000X0.140000X-0.170000X0.140000X-0.170000X-0.140000X0*%
%TD*%
%TA.AperFunction,SMDPad,CuDef*%
%ADD28RoundRect,0.140000X-0.140000X-0.170000X0.140000X-0.170000X0.140000X0.170000X-0.140000X0.170000X0*%
%TD*%
%TA.AperFunction,ComponentPad*%
%ADD29O,1.700000X1.700000*%
%TD*%
%TA.AperFunction,ComponentPad*%
%ADD30R,1.700000X1.700000*%
%TD*%
%TA.AperFunction,SMDPad,CuDef*%
%ADD31RoundRect,0.150000X-0.150000X0.587500X-0.150000X-0.587500X0.150000X-0.587500X0.150000X0.587500X0*%
%TD*%
%TA.AperFunction,SMDPad,CuDef*%
%ADD32RoundRect,0.147500X-0.147500X-0.172500X0.147500X-0.172500X0.147500X0.172500X-0.147500X0.172500X0*%
%TD*%
%TA.AperFunction,SMDPad,CuDef*%
%ADD33RoundRect,0.262500X0.262500X0.537500X-0.262500X0.537500X-0.262500X-0.537500X0.262500X-0.537500X0*%
%TD*%
%TA.AperFunction,SMDPad,CuDef*%
%ADD34RoundRect,0.075000X0.075000X-0.350000X0.075000X0.350000X-0.075000X0.350000X-0.075000X-0.350000X0*%
%TD*%
%TA.AperFunction,SMDPad,CuDef*%
%ADD35RoundRect,0.075000X0.350000X0.075000X-0.350000X0.075000X-0.350000X-0.075000X0.350000X-0.075000X0*%
%TD*%
%TA.AperFunction,SMDPad,CuDef*%
%ADD36RoundRect,0.225000X0.225000X0.250000X-0.225000X0.250000X-0.225000X-0.250000X0.225000X-0.250000X0*%
%TD*%
%TA.AperFunction,SMDPad,CuDef*%
%ADD37RoundRect,0.250000X0.250000X0.475000X-0.250000X0.475000X-0.250000X-0.475000X0.250000X-0.475000X0*%
%TD*%
%TA.AperFunction,SMDPad,CuDef*%
%ADD38RoundRect,0.225000X-0.250000X0.225000X-0.250000X-0.225000X0.250000X-0.225000X0.250000X0.225000X0*%
%TD*%
%TA.AperFunction,SMDPad,CuDef*%
%ADD39RoundRect,0.140000X0.140000X0.170000X-0.140000X0.170000X-0.140000X-0.170000X0.140000X-0.170000X0*%
%TD*%
%TA.AperFunction,SMDPad,CuDef*%
%ADD40R,0.500000X0.350000*%
%TD*%
%TA.AperFunction,SMDPad,CuDef*%
%ADD41RoundRect,0.218750X0.218750X0.256250X-0.218750X0.256250X-0.218750X-0.256250X0.218750X-0.256250X0*%
%TD*%
%TA.AperFunction,SMDPad,CuDef*%
%ADD42RoundRect,0.175000X-0.175000X-0.325000X0.175000X-0.325000X0.175000X0.325000X-0.175000X0.325000X0*%
%TD*%
%TA.AperFunction,SMDPad,CuDef*%
%ADD43RoundRect,0.250000X-0.250000X-0.500000X0.250000X-0.500000X0.250000X0.500000X-0.250000X0.500000X0*%
%TD*%
%TA.AperFunction,SMDPad,CuDef*%
%ADD44RoundRect,0.250000X-0.250000X-0.650000X0.250000X-0.650000X0.250000X0.650000X-0.250000X0.650000X0*%
%TD*%
%TA.AperFunction,SMDPad,CuDef*%
%ADD45RoundRect,0.250000X0.650000X-0.325000X0.650000X0.325000X-0.650000X0.325000X-0.650000X-0.325000X0*%
%TD*%
%TA.AperFunction,SMDPad,CuDef*%
%ADD46RoundRect,0.135000X0.185000X-0.135000X0.185000X0.135000X-0.185000X0.135000X-0.185000X-0.135000X0*%
%TD*%
%TA.AperFunction,SMDPad,CuDef*%
%ADD47RoundRect,0.150000X-0.512500X-0.150000X0.512500X-0.150000X0.512500X0.150000X-0.512500X0.150000X0*%
%TD*%
%TA.AperFunction,ComponentPad*%
%ADD48R,2.100000X2.100000*%
%TD*%
%TA.AperFunction,ComponentPad*%
%ADD49C,2.100000*%
%TD*%
%TA.AperFunction,SMDPad,CuDef*%
%ADD50RoundRect,0.250000X-0.650000X0.325000X-0.650000X-0.325000X0.650000X-0.325000X0.650000X0.325000X0*%
%TD*%
%TA.AperFunction,SMDPad,CuDef*%
%ADD51R,0.900000X1.200000*%
%TD*%
%TA.AperFunction,SMDPad,CuDef*%
%ADD52RoundRect,0.550000X-0.550000X-3.200000X0.550000X-3.200000X0.550000X3.200000X-0.550000X3.200000X0*%
%TD*%
%TA.AperFunction,SMDPad,CuDef*%
%ADD53RoundRect,0.062500X-0.375000X-0.062500X0.375000X-0.062500X0.375000X0.062500X-0.375000X0.062500X0*%
%TD*%
%TA.AperFunction,SMDPad,CuDef*%
%ADD54RoundRect,0.062500X-0.062500X-0.375000X0.062500X-0.375000X0.062500X0.375000X-0.062500X0.375000X0*%
%TD*%
%TA.AperFunction,SMDPad,CuDef*%
%ADD55R,5.600000X5.600000*%
%TD*%
%TA.AperFunction,ViaPad*%
%ADD56C,0.500000*%
%TD*%
%TA.AperFunction,ViaPad*%
%ADD57C,0.800000*%
%TD*%
%TA.AperFunction,ViaPad*%
%ADD58C,0.600000*%
%TD*%
%TA.AperFunction,Conductor*%
%ADD59C,0.400000*%
%TD*%
%TA.AperFunction,Conductor*%
%ADD60C,0.500000*%
%TD*%
%TA.AperFunction,Conductor*%
%ADD61C,1.000000*%
%TD*%
%TA.AperFunction,Conductor*%
%ADD62C,0.261112*%
%TD*%
%TA.AperFunction,Conductor*%
%ADD63C,1.500000*%
%TD*%
%TA.AperFunction,Conductor*%
%ADD64C,0.300000*%
%TD*%
%TA.AperFunction,Conductor*%
%ADD65C,0.750000*%
%TD*%
%TA.AperFunction,Conductor*%
%ADD66C,0.175000*%
%TD*%
%TA.AperFunction,Conductor*%
%ADD67C,0.250000*%
%TD*%
%TA.AperFunction,Conductor*%
%ADD68C,0.200000*%
%TD*%
%TA.AperFunction,Conductor*%
%ADD69C,1.250000*%
%TD*%
G04 APERTURE END LIST*
D10*
%TO.P,J3,S1,SHIELD*%
%TO.N,GND*%
X51000000Y-62515000D03*
X51000000Y-66695000D03*
X61140000Y-62515000D03*
X61140000Y-66695000D03*
D11*
%TO.P,J3,B8,SBU2*%
%TO.N,unconnected-(J3-PadB8)*%
X54820000Y-61600000D03*
%TO.P,J3,B7,D-*%
%TO.N,USBC_CONND-*%
X55320000Y-61600000D03*
%TO.P,J3,B6,D+*%
%TO.N,USBC_CONND+*%
X56320000Y-61600000D03*
%TO.P,J3,B5,CC2*%
%TO.N,USBC_CONNCC2*%
X57320000Y-61600000D03*
D12*
%TO.P,J3,A9,VBUS*%
%TO.N,+5V*%
X58520000Y-61600000D03*
D11*
%TO.P,J3,A8,SBU1*%
%TO.N,unconnected-(J3-PadA8)*%
X57820000Y-61600000D03*
%TO.P,J3,A7,D-*%
%TO.N,USBC_CONND-*%
X56820000Y-61600000D03*
%TO.P,J3,A6,D+*%
%TO.N,USBC_CONND+*%
X55820000Y-61600000D03*
%TO.P,J3,A5,CC1*%
%TO.N,USBC_CONNCC1*%
X54320000Y-61600000D03*
D12*
%TO.P,J3,A4,VBUS*%
%TO.N,+5V*%
X53620000Y-61600000D03*
%TO.P,J3,A1,GND*%
%TO.N,GND*%
X52845000Y-61600000D03*
X59295000Y-61600000D03*
%TD*%
D13*
%TO.P,R11,1*%
%TO.N,SD_CARD_DET*%
X33290000Y-51650000D03*
%TO.P,R11,2*%
%TO.N,+3.3V*%
X34310000Y-51650000D03*
%TD*%
D14*
%TO.P,F1,1*%
%TO.N,Net-(D1-Pad1)*%
X64932500Y-54970000D03*
%TO.P,F1,2*%
%TO.N,Net-(F1-Pad2)*%
X64932500Y-52170000D03*
%TD*%
D15*
%TO.P,R3,2*%
%TO.N,GND*%
X61175000Y-54800000D03*
%TO.P,R3,1*%
%TO.N,Net-(R1-Pad2)*%
X62825000Y-54800000D03*
%TD*%
D16*
%TO.P,R2,1*%
%TO.N,+3.3V*%
X61175000Y-53500000D03*
%TO.P,R2,2*%
%TO.N,Net-(R1-Pad2)*%
X62825000Y-53500000D03*
%TD*%
%TO.P,R1,1*%
%TO.N,Net-(R1-Pad1)*%
X61175000Y-52100000D03*
%TO.P,R1,2*%
%TO.N,Net-(R1-Pad2)*%
X62825000Y-52100000D03*
%TD*%
D15*
%TO.P,R7,1*%
%TO.N,Net-(D3-Pad1)*%
X72425000Y-40000000D03*
%TO.P,R7,2*%
%TO.N,GND*%
X70775000Y-40000000D03*
%TD*%
D17*
%TO.P,H4,1,1*%
%TO.N,GND*%
X26500000Y-23125000D03*
X29125000Y-20500000D03*
D18*
X26500000Y-20500000D03*
D17*
X26500000Y-17875000D03*
X24643845Y-22356155D03*
X24643845Y-18643845D03*
X28356155Y-22356155D03*
X23875000Y-20500000D03*
X28356155Y-18643845D03*
%TD*%
D19*
%TO.P,Y1,1,1*%
%TO.N,HSE_IN*%
X32650000Y-39500000D03*
%TO.P,Y1,2,2*%
%TO.N,GND*%
X32650000Y-41700000D03*
%TO.P,Y1,3,3*%
%TO.N,Net-(C13-Pad1)*%
X34350000Y-41700000D03*
%TO.P,Y1,4,4*%
%TO.N,GND*%
X34350000Y-39500000D03*
%TD*%
D20*
%TO.P,U5,1,I/O1*%
%TO.N,USBC_CONND-*%
X55302500Y-59500000D03*
D21*
%TO.P,U5,2,GND*%
%TO.N,GND*%
X55840000Y-59575000D03*
D20*
%TO.P,U5,3,I/O2*%
%TO.N,USBC_CONND+*%
X56377500Y-59500000D03*
%TO.P,U5,4,I/O2*%
%TO.N,USB_D+*%
X56377500Y-57800000D03*
D21*
%TO.P,U5,5,VBUS*%
%TO.N,+5V*%
X55840000Y-57725000D03*
D20*
%TO.P,U5,6,I/O1*%
%TO.N,USB_D-*%
X55302500Y-57800000D03*
%TD*%
D22*
%TO.P,FB1,1*%
%TO.N,Net-(F1-Pad2)*%
X66075000Y-49900000D03*
%TO.P,FB1,2*%
%TO.N,Net-(C1-Pad1)*%
X62925000Y-49900000D03*
%TD*%
D23*
%TO.P,R6,1*%
%TO.N,HSE_OUT*%
X36610000Y-41300000D03*
%TO.P,R6,2*%
%TO.N,Net-(C13-Pad1)*%
X35590000Y-41300000D03*
%TD*%
D16*
%TO.P,R10,1*%
%TO.N,I2C1_SCL*%
X42575000Y-33800000D03*
%TO.P,R10,2*%
%TO.N,+3.3V*%
X44225000Y-33800000D03*
%TD*%
D24*
%TO.P,SW1,1,1*%
%TO.N,GND*%
X24675000Y-47000000D03*
%TO.P,SW1,2,2*%
%TO.N,NRST*%
X29125000Y-47000000D03*
%TD*%
D25*
%TO.P,C10,1*%
%TO.N,+3.3V*%
X46200000Y-37920000D03*
%TO.P,C10,2*%
%TO.N,GND*%
X46200000Y-38880000D03*
%TD*%
D23*
%TO.P,R8,1*%
%TO.N,SPI1_MISO*%
X35360000Y-50650000D03*
%TO.P,R8,2*%
%TO.N,+3.3V*%
X34340000Y-50650000D03*
%TD*%
D26*
%TO.P,R5,2*%
%TO.N,GND*%
X51600000Y-36710000D03*
%TO.P,R5,1*%
%TO.N,BOOT0*%
X51600000Y-35690000D03*
%TD*%
D27*
%TO.P,C19,1*%
%TO.N,Net-(C19-Pad1)*%
X47900000Y-29780000D03*
%TO.P,C19,2*%
%TO.N,GND*%
X47900000Y-28820000D03*
%TD*%
D28*
%TO.P,C12,1*%
%TO.N,HSE_IN*%
X32990000Y-37800000D03*
%TO.P,C12,2*%
%TO.N,GND*%
X33950000Y-37800000D03*
%TD*%
D29*
%TO.P,J9,4,Pin_4*%
%TO.N,GND*%
X69900000Y-26680000D03*
%TO.P,J9,3,Pin_3*%
%TO.N,UART2_RX*%
X69900000Y-29220000D03*
%TO.P,J9,2,Pin_2*%
%TO.N,UART2_TX*%
X69900000Y-31760000D03*
D30*
%TO.P,J9,1,Pin_1*%
%TO.N,+3.3V*%
X69900000Y-34300000D03*
%TD*%
D31*
%TO.P,Q1,1,G*%
%TO.N,GND*%
X65750000Y-56962500D03*
%TO.P,Q1,2,S*%
%TO.N,Net-(D1-Pad1)*%
X63850000Y-56962500D03*
%TO.P,Q1,3,D*%
%TO.N,+12V*%
X64800000Y-58837500D03*
%TD*%
D32*
%TO.P,L2,1*%
%TO.N,+3.3V*%
X36015000Y-44750000D03*
%TO.P,L2,2*%
%TO.N,+3.3VA*%
X36985000Y-44750000D03*
%TD*%
D33*
%TO.P,SW2,1,1*%
%TO.N,+3.3V*%
X60000000Y-35600000D03*
%TO.P,SW2,2,2*%
%TO.N,BOOT0*%
X55550000Y-35600000D03*
%TD*%
D34*
%TO.P,U4,1,CLKIN*%
%TO.N,unconnected-(U4-Pad1)*%
X43325000Y-32000000D03*
%TO.P,U4,2,NC*%
%TO.N,unconnected-(U4-Pad2)*%
X43825000Y-32000000D03*
%TO.P,U4,3,NC*%
%TO.N,unconnected-(U4-Pad3)*%
X44325000Y-32000000D03*
%TO.P,U4,4,NC*%
%TO.N,unconnected-(U4-Pad4)*%
X44825000Y-32000000D03*
%TO.P,U4,5,NC*%
%TO.N,unconnected-(U4-Pad5)*%
X45325000Y-32000000D03*
%TO.P,U4,6,AUX_SDA*%
%TO.N,unconnected-(U4-Pad6)*%
X45825000Y-32000000D03*
D35*
%TO.P,U4,7,AUX_SCL*%
%TO.N,unconnected-(U4-Pad7)*%
X46525000Y-31300000D03*
%TO.P,U4,8,VDDIO*%
%TO.N,+3.3V*%
X46525000Y-30800000D03*
%TO.P,U4,9,AD0*%
%TO.N,unconnected-(U4-Pad9)*%
X46525000Y-30300000D03*
%TO.P,U4,10,REGOUT*%
%TO.N,Net-(C19-Pad1)*%
X46525000Y-29800000D03*
%TO.P,U4,11,FSYNC*%
%TO.N,unconnected-(U4-Pad11)*%
X46525000Y-29300000D03*
%TO.P,U4,12,INT*%
%TO.N,MPU_INT*%
X46525000Y-28800000D03*
D34*
%TO.P,U4,13,VDD*%
%TO.N,+3.3V*%
X45825000Y-28100000D03*
%TO.P,U4,14,NC*%
%TO.N,unconnected-(U4-Pad14)*%
X45325000Y-28100000D03*
%TO.P,U4,15,NC*%
%TO.N,unconnected-(U4-Pad15)*%
X44825000Y-28100000D03*
%TO.P,U4,16,NC*%
%TO.N,unconnected-(U4-Pad16)*%
X44325000Y-28100000D03*
%TO.P,U4,17,NC*%
%TO.N,unconnected-(U4-Pad17)*%
X43825000Y-28100000D03*
%TO.P,U4,18,GND*%
%TO.N,GND*%
X43325000Y-28100000D03*
D35*
%TO.P,U4,19,NC*%
%TO.N,unconnected-(U4-Pad19)*%
X42625000Y-28800000D03*
%TO.P,U4,20,CPOUT*%
%TO.N,Net-(C20-Pad1)*%
X42625000Y-29300000D03*
%TO.P,U4,21,NC*%
%TO.N,unconnected-(U4-Pad21)*%
X42625000Y-29800000D03*
%TO.P,U4,22,NC*%
%TO.N,unconnected-(U4-Pad22)*%
X42625000Y-30300000D03*
%TO.P,U4,23,SCL*%
%TO.N,I2C1_SDA*%
X42625000Y-30800000D03*
%TO.P,U4,24,SDA*%
%TO.N,I2C1_SCL*%
X42625000Y-31300000D03*
%TD*%
D29*
%TO.P,J6,10,Pin_10*%
%TO.N,NRST*%
X51440000Y-22965000D03*
%TO.P,J6,9,Pin_9*%
%TO.N,GND*%
X51440000Y-20425000D03*
%TO.P,J6,8,Pin_8*%
%TO.N,unconnected-(J6-Pad8)*%
X53980000Y-22965000D03*
%TO.P,J6,7,Pin_7*%
%TO.N,unconnected-(J6-Pad7)*%
X53980000Y-20425000D03*
%TO.P,J6,6,Pin_6*%
%TO.N,SWO*%
X56520000Y-22965000D03*
%TO.P,J6,5,Pin_5*%
%TO.N,GND*%
X56520000Y-20425000D03*
%TO.P,J6,4,Pin_4*%
%TO.N,SWCLK*%
X59060000Y-22965000D03*
%TO.P,J6,3,Pin_3*%
%TO.N,GND*%
X59060000Y-20425000D03*
%TO.P,J6,2,Pin_2*%
%TO.N,SWDIO*%
X61600000Y-22965000D03*
D30*
%TO.P,J6,1,Pin_1*%
%TO.N,+3.3V*%
X61600000Y-20425000D03*
%TD*%
D36*
%TO.P,C7,1*%
%TO.N,+3.3V*%
X37475000Y-36400000D03*
%TO.P,C7,2*%
%TO.N,GND*%
X35925000Y-36400000D03*
%TD*%
D30*
%TO.P,J8,1,Pin_1*%
%TO.N,TIM3_CH4*%
X26000000Y-41060000D03*
D29*
%TO.P,J8,2,Pin_2*%
%TO.N,GND*%
X26000000Y-38520000D03*
%TD*%
D37*
%TO.P,C2,1*%
%TO.N,Net-(C2-Pad1)*%
X57350000Y-49600000D03*
%TO.P,C2,2*%
%TO.N,Net-(C2-Pad2)*%
X55450000Y-49600000D03*
%TD*%
D38*
%TO.P,C14,1*%
%TO.N,Net-(C14-Pad1)*%
X42900000Y-45825000D03*
%TO.P,C14,2*%
%TO.N,GND*%
X42900000Y-47375000D03*
%TD*%
D39*
%TO.P,C9,1*%
%TO.N,+3.3V*%
X44830000Y-45700000D03*
%TO.P,C9,2*%
%TO.N,GND*%
X43870000Y-45700000D03*
%TD*%
D28*
%TO.P,C11,1*%
%TO.N,+3.3V*%
X38720000Y-36600000D03*
%TO.P,C11,2*%
%TO.N,GND*%
X39680000Y-36600000D03*
%TD*%
D17*
%TO.P,H3,1,1*%
%TO.N,GND*%
X74125000Y-64000000D03*
X73356155Y-65856155D03*
X69643845Y-62143845D03*
X73356155Y-62143845D03*
X68875000Y-64000000D03*
X71500000Y-66625000D03*
X69643845Y-65856155D03*
X71500000Y-61375000D03*
D18*
X71500000Y-64000000D03*
%TD*%
D38*
%TO.P,C15,1*%
%TO.N,+3.3V*%
X34700000Y-30725000D03*
%TO.P,C15,2*%
%TO.N,GND*%
X34700000Y-32275000D03*
%TD*%
%TO.P,C5,1*%
%TO.N,+3.3VA*%
X36600000Y-45925000D03*
%TO.P,C5,2*%
%TO.N,GND*%
X36600000Y-47475000D03*
%TD*%
D15*
%TO.P,R4,1*%
%TO.N,Net-(D2-Pad1)*%
X72200000Y-46600000D03*
%TO.P,R4,2*%
%TO.N,GND*%
X70550000Y-46600000D03*
%TD*%
%TO.P,R9,1*%
%TO.N,I2C1_SDA*%
X40825000Y-33800000D03*
%TO.P,R9,2*%
%TO.N,+3.3V*%
X39175000Y-33800000D03*
%TD*%
D25*
%TO.P,C16,1*%
%TO.N,+3.3V*%
X36100000Y-30720000D03*
%TO.P,C16,2*%
%TO.N,GND*%
X36100000Y-31680000D03*
%TD*%
D39*
%TO.P,C18,1*%
%TO.N,+3.3V*%
X45880000Y-26700000D03*
%TO.P,C18,2*%
%TO.N,GND*%
X44920000Y-26700000D03*
%TD*%
D40*
%TO.P,U3,1,GND*%
%TO.N,GND*%
X38900000Y-29425000D03*
%TO.P,U3,2,CSB*%
%TO.N,+3.3V*%
X38900000Y-30075000D03*
%TO.P,U3,3,SDI*%
%TO.N,I2C1_SDA*%
X38900000Y-30725000D03*
%TO.P,U3,4,SCK*%
%TO.N,I2C1_SCL*%
X38900000Y-31375000D03*
%TO.P,U3,5,SDO*%
%TO.N,GND*%
X37300000Y-31375000D03*
%TO.P,U3,6,VDDIO*%
%TO.N,+3.3V*%
X37300000Y-30725000D03*
%TO.P,U3,7,GND*%
%TO.N,GND*%
X37300000Y-30075000D03*
%TO.P,U3,8,VDD*%
%TO.N,+3.3V*%
X37300000Y-29425000D03*
%TD*%
D41*
%TO.P,D2,1,K*%
%TO.N,Net-(D2-Pad1)*%
X72152500Y-44980000D03*
%TO.P,D2,2,A*%
%TO.N,+3.3V*%
X70577500Y-44980000D03*
%TD*%
D42*
%TO.P,J2,1,DAT2*%
%TO.N,unconnected-(J2-Pad1)*%
X42040000Y-52723637D03*
%TO.P,J2,2,DAT3/CD*%
%TO.N,SPI1_NSS*%
X40940000Y-52707879D03*
%TO.P,J2,3,CMD*%
%TO.N,SPI1_MOSI*%
X39840000Y-52692121D03*
%TO.P,J2,4,VDD*%
%TO.N,+3.3V*%
X38740000Y-52707879D03*
%TO.P,J2,5,CLK*%
%TO.N,SPI1_SCK*%
X37640000Y-52707879D03*
%TO.P,J2,6,VSS*%
%TO.N,GND*%
X36540000Y-52707879D03*
%TO.P,J2,7,DAT0*%
%TO.N,SPI1_MISO*%
X35440000Y-52707879D03*
%TO.P,J2,8,DAT1*%
%TO.N,unconnected-(J2-Pad8)*%
X34340000Y-52707879D03*
%TO.P,J2,9,DET_B*%
%TO.N,SD_CARD_DET*%
X33240000Y-52707879D03*
D43*
%TO.P,J2,11,SHIELD*%
%TO.N,GND*%
X32140000Y-53957879D03*
D44*
X47860000Y-63407879D03*
X32140000Y-63407879D03*
D43*
X47090000Y-53957879D03*
%TD*%
D45*
%TO.P,C3,1*%
%TO.N,+3.3V*%
X66200000Y-44475000D03*
%TO.P,C3,2*%
%TO.N,GND*%
X66200000Y-41525000D03*
%TD*%
D25*
%TO.P,C17,1*%
%TO.N,+3.3V*%
X47850000Y-30840000D03*
%TO.P,C17,2*%
%TO.N,GND*%
X47850000Y-31800000D03*
%TD*%
D46*
%TO.P,R13,1*%
%TO.N,USBC_CONNCC1*%
X54260000Y-60160000D03*
%TO.P,R13,2*%
%TO.N,GND*%
X54260000Y-59140000D03*
%TD*%
D47*
%TO.P,U1,1,GND*%
%TO.N,GND*%
X58895000Y-48620000D03*
%TO.P,U1,2,SW/LX*%
%TO.N,Net-(C2-Pad1)*%
X58895000Y-49570000D03*
%TO.P,U1,3,IN*%
%TO.N,Net-(C1-Pad1)*%
X58895000Y-50520000D03*
%TO.P,U1,4,FB*%
%TO.N,Net-(R1-Pad1)*%
X61170000Y-50520000D03*
%TO.P,U1,5,EN*%
%TO.N,Net-(C1-Pad1)*%
X61170000Y-49570000D03*
%TO.P,U1,6,BS*%
%TO.N,Net-(C2-Pad2)*%
X61170000Y-48620000D03*
%TD*%
D41*
%TO.P,D3,1,K*%
%TO.N,Net-(D3-Pad1)*%
X72387500Y-38700000D03*
%TO.P,D3,2,A*%
%TO.N,LED_STATUS*%
X70812500Y-38700000D03*
%TD*%
D30*
%TO.P,J5,1,Pin_1*%
%TO.N,GPIO_1*%
X25450000Y-50800000D03*
D29*
%TO.P,J5,2,Pin_2*%
%TO.N,GPIO_2*%
X25450000Y-53340000D03*
%TO.P,J5,3,Pin_3*%
%TO.N,GPIO_3*%
X25450000Y-55880000D03*
%TO.P,J5,4,Pin_4*%
%TO.N,GPIO_4*%
X25450000Y-58420000D03*
%TD*%
D30*
%TO.P,J7,1,Pin_1*%
%TO.N,TIM2_CH4*%
X25900000Y-30875000D03*
D29*
%TO.P,J7,2,Pin_2*%
%TO.N,GND*%
X25900000Y-28335000D03*
%TD*%
D39*
%TO.P,C6,1*%
%TO.N,+3.3VA*%
X36880000Y-43700000D03*
%TO.P,C6,2*%
%TO.N,GND*%
X35920000Y-43700000D03*
%TD*%
%TO.P,C13,1*%
%TO.N,Net-(C13-Pad1)*%
X33980000Y-43300000D03*
%TO.P,C13,2*%
%TO.N,GND*%
X33020000Y-43300000D03*
%TD*%
D27*
%TO.P,C20,1*%
%TO.N,Net-(C20-Pad1)*%
X41300000Y-29280000D03*
%TO.P,C20,2*%
%TO.N,GND*%
X41300000Y-28320000D03*
%TD*%
D29*
%TO.P,J4,4,Pin_4*%
%TO.N,GND*%
X34480000Y-22900000D03*
%TO.P,J4,3,Pin_3*%
%TO.N,I2C1_SDA*%
X37020000Y-22900000D03*
%TO.P,J4,2,Pin_2*%
%TO.N,I2C1_SCL*%
X39560000Y-22900000D03*
D30*
%TO.P,J4,1,Pin_1*%
%TO.N,+3.3V*%
X42100000Y-22900000D03*
%TD*%
D17*
%TO.P,H1,1,1*%
%TO.N,GND*%
X68875000Y-20500000D03*
X71500000Y-23125000D03*
D18*
X71500000Y-20500000D03*
D17*
X69643845Y-22356155D03*
X73356155Y-18643845D03*
X73356155Y-22356155D03*
X71500000Y-17875000D03*
X74125000Y-20500000D03*
X69643845Y-18643845D03*
%TD*%
D48*
%TO.P,J1,1,Pin_1*%
%TO.N,+12V*%
X71100000Y-53769999D03*
D49*
%TO.P,J1,2,Pin_2*%
%TO.N,GND*%
X71100000Y-51229999D03*
%TD*%
D50*
%TO.P,C1,1*%
%TO.N,Net-(C1-Pad1)*%
X58700000Y-52025000D03*
%TO.P,C1,2*%
%TO.N,GND*%
X58700000Y-54975000D03*
%TD*%
D17*
%TO.P,H2,1,1*%
%TO.N,GND*%
X26500000Y-66625000D03*
X28356155Y-62143845D03*
X24643845Y-65856155D03*
X26500000Y-61375000D03*
X28356155Y-65856155D03*
X24643845Y-62143845D03*
X29125000Y-64000000D03*
X23875000Y-64000000D03*
D18*
X26500000Y-64000000D03*
%TD*%
D46*
%TO.P,R12,1*%
%TO.N,USBC_CONNCC2*%
X57770000Y-60140000D03*
%TO.P,R12,2*%
%TO.N,GND*%
X57770000Y-59120000D03*
%TD*%
D51*
%TO.P,D1,1,K*%
%TO.N,Net-(D1-Pad1)*%
X61720000Y-57475000D03*
%TO.P,D1,2,A*%
%TO.N,+5V*%
X58420000Y-57475000D03*
%TD*%
D27*
%TO.P,C4,1*%
%TO.N,GND*%
X32700000Y-46880000D03*
%TO.P,C4,2*%
%TO.N,NRST*%
X32700000Y-45920000D03*
%TD*%
%TO.P,C8,1*%
%TO.N,+3.3V*%
X36700000Y-38590000D03*
%TO.P,C8,2*%
%TO.N,GND*%
X36700000Y-37630000D03*
%TD*%
D52*
%TO.P,L1,1*%
%TO.N,Net-(C2-Pad1)*%
X57300000Y-43700000D03*
%TO.P,L1,2*%
%TO.N,+3.3V*%
X63300000Y-43700000D03*
%TD*%
D53*
%TO.P,U2,1,VBAT*%
%TO.N,+3.3V*%
X38037500Y-38580000D03*
%TO.P,U2,2,PC13*%
%TO.N,unconnected-(U2-Pad2)*%
X38037500Y-39080000D03*
%TO.P,U2,3,PC14*%
%TO.N,unconnected-(U2-Pad3)*%
X38037500Y-39580000D03*
%TO.P,U2,4,PC15*%
%TO.N,unconnected-(U2-Pad4)*%
X38037500Y-40080000D03*
%TO.P,U2,5,PH0*%
%TO.N,HSE_IN*%
X38037500Y-40580000D03*
%TO.P,U2,6,PH1*%
%TO.N,HSE_OUT*%
X38037500Y-41080000D03*
%TO.P,U2,7,NRST*%
%TO.N,NRST*%
X38037500Y-41580000D03*
%TO.P,U2,8,VSSA*%
%TO.N,GND*%
X38037500Y-42080000D03*
%TO.P,U2,9,VREF+/VDDA*%
%TO.N,+3.3VA*%
X38037500Y-42580000D03*
%TO.P,U2,10,PA0*%
%TO.N,unconnected-(U2-Pad10)*%
X38037500Y-43080000D03*
%TO.P,U2,11,PA1*%
%TO.N,unconnected-(U2-Pad11)*%
X38037500Y-43580000D03*
%TO.P,U2,12,PA2*%
%TO.N,unconnected-(U2-Pad12)*%
X38037500Y-44080000D03*
D54*
%TO.P,U2,13,PA3*%
%TO.N,TIM2_CH4*%
X38725000Y-44767500D03*
%TO.P,U2,14,PA4*%
%TO.N,SPI1_NSS*%
X39225000Y-44767500D03*
%TO.P,U2,15,PA5*%
%TO.N,SPI1_SCK*%
X39725000Y-44767500D03*
%TO.P,U2,16,PA6*%
%TO.N,SPI1_MISO*%
X40225000Y-44767500D03*
%TO.P,U2,17,PA7*%
%TO.N,SPI1_MOSI*%
X40725000Y-44767500D03*
%TO.P,U2,18,PB0*%
%TO.N,SD_CARD_DET*%
X41225000Y-44767500D03*
%TO.P,U2,19,PB1*%
%TO.N,TIM3_CH4*%
X41725000Y-44767500D03*
%TO.P,U2,20,PB2*%
%TO.N,unconnected-(U2-Pad20)*%
X42225000Y-44767500D03*
%TO.P,U2,21,PB10*%
%TO.N,unconnected-(U2-Pad21)*%
X42725000Y-44767500D03*
%TO.P,U2,22,VCAP1*%
%TO.N,Net-(C14-Pad1)*%
X43225000Y-44767500D03*
%TO.P,U2,23,VSS*%
%TO.N,GND*%
X43725000Y-44767500D03*
%TO.P,U2,24,VDD*%
%TO.N,+3.3V*%
X44225000Y-44767500D03*
D53*
%TO.P,U2,25,PB12*%
%TO.N,GPIO_1*%
X44912500Y-44080000D03*
%TO.P,U2,26,PB13*%
%TO.N,GPIO_2*%
X44912500Y-43580000D03*
%TO.P,U2,27,PB14*%
%TO.N,GPIO_3*%
X44912500Y-43080000D03*
%TO.P,U2,28,PB15*%
%TO.N,GPIO_4*%
X44912500Y-42580000D03*
%TO.P,U2,29,PA8*%
%TO.N,LED_STATUS*%
X44912500Y-42080000D03*
%TO.P,U2,30,PA9*%
%TO.N,UART2_TX*%
X44912500Y-41580000D03*
%TO.P,U2,31,PA10*%
%TO.N,UART2_RX*%
X44912500Y-41080000D03*
%TO.P,U2,32,PA11*%
%TO.N,USB_D-*%
X44912500Y-40580000D03*
%TO.P,U2,33,PA12*%
%TO.N,USB_D+*%
X44912500Y-40080000D03*
%TO.P,U2,34,PA13*%
%TO.N,SWDIO*%
X44912500Y-39580000D03*
%TO.P,U2,35,VSS*%
%TO.N,GND*%
X44912500Y-39080000D03*
%TO.P,U2,36,VDD*%
%TO.N,+3.3V*%
X44912500Y-38580000D03*
D54*
%TO.P,U2,37,PA14*%
%TO.N,SWCLK*%
X44225000Y-37892500D03*
%TO.P,U2,38,PA15*%
%TO.N,unconnected-(U2-Pad38)*%
X43725000Y-37892500D03*
%TO.P,U2,39,PB3*%
%TO.N,SWO*%
X43225000Y-37892500D03*
%TO.P,U2,40,PB4*%
%TO.N,unconnected-(U2-Pad40)*%
X42725000Y-37892500D03*
%TO.P,U2,41,PB5*%
%TO.N,MPU_INT*%
X42225000Y-37892500D03*
%TO.P,U2,42,PB6*%
%TO.N,I2C1_SCL*%
X41725000Y-37892500D03*
%TO.P,U2,43,PB7*%
%TO.N,I2C1_SDA*%
X41225000Y-37892500D03*
%TO.P,U2,44,BOOT0*%
%TO.N,BOOT0*%
X40725000Y-37892500D03*
%TO.P,U2,45,PB8*%
%TO.N,unconnected-(U2-Pad45)*%
X40225000Y-37892500D03*
%TO.P,U2,46,PB9*%
%TO.N,unconnected-(U2-Pad46)*%
X39725000Y-37892500D03*
%TO.P,U2,47,VSS*%
%TO.N,GND*%
X39225000Y-37892500D03*
%TO.P,U2,48,VDD*%
%TO.N,+3.3V*%
X38725000Y-37892500D03*
D55*
%TO.P,U2,49,VSS*%
%TO.N,GND*%
X41475000Y-41330000D03*
%TD*%
D56*
%TO.N,+3.3V*%
X36700000Y-39200000D03*
D57*
%TO.N,GND*%
X43800000Y-47400000D03*
X66500000Y-57400000D03*
X66500000Y-56600000D03*
X61200000Y-55700000D03*
X60300000Y-55000000D03*
X57400000Y-55400000D03*
X57400000Y-54600000D03*
%TO.N,SD_CARD_DET*%
X32400245Y-52400000D03*
X44400000Y-52500000D03*
%TO.N,GND*%
X23700000Y-47400000D03*
X23700000Y-46600000D03*
X69665000Y-46580000D03*
%TO.N,+3.3V*%
X69665000Y-44980000D03*
%TO.N,GND*%
X66600000Y-40500000D03*
X65800000Y-40500000D03*
X69900000Y-40000000D03*
%TO.N,LED_STATUS*%
X69887500Y-38831250D03*
%TO.N,+3.3V*%
X61700000Y-41500000D03*
X61700000Y-45900000D03*
D58*
%TO.N,BOOT0*%
X47500000Y-36000000D03*
X39700000Y-35000000D03*
D57*
%TO.N,+3.3V*%
X61000000Y-35300000D03*
X37900000Y-37800000D03*
X60350000Y-53100000D03*
X67500000Y-44200000D03*
X61700000Y-44200000D03*
X35500000Y-29900000D03*
X67500000Y-45000000D03*
X61700000Y-43300000D03*
X61700000Y-42400000D03*
D58*
X34300000Y-49800000D03*
D57*
X38700000Y-51700000D03*
X39200000Y-32800000D03*
X46700000Y-26700000D03*
X60350000Y-53900000D03*
D58*
X46200000Y-37200000D03*
X44900000Y-33000000D03*
D57*
X35400000Y-45450000D03*
X60000000Y-34300000D03*
X39700000Y-29900000D03*
X37300000Y-28500000D03*
X61700000Y-45100000D03*
D58*
X48700000Y-30900000D03*
X44750000Y-45000000D03*
D57*
X37500000Y-35400000D03*
%TO.N,+5V*%
X57481928Y-57300000D03*
X57481928Y-58200500D03*
X53200000Y-59600000D03*
D58*
%TO.N,LED_STATUS*%
X47850000Y-43000000D03*
D57*
%TO.N,SPI1_NSS*%
X38000000Y-47300000D03*
X40940000Y-51740000D03*
%TO.N,SPI1_SCK*%
X37650000Y-51750000D03*
D58*
X37650000Y-49300000D03*
%TO.N,GPIO_1*%
X45750000Y-45150000D03*
%TO.N,GPIO_2*%
X46326500Y-44607364D03*
%TO.N,GPIO_3*%
X46854112Y-44107932D03*
%TO.N,GPIO_4*%
X47372783Y-43599222D03*
D57*
%TO.N,I2C1_SDA*%
X40800000Y-32800000D03*
D56*
X41700000Y-30800000D03*
X39900000Y-30800000D03*
D58*
%TO.N,UART2_TX*%
X47051761Y-41824656D03*
%TO.N,UART2_RX*%
X47000000Y-41100000D03*
D57*
%TO.N,SWDIO*%
X51400000Y-38800000D03*
%TO.N,SWCLK*%
X50400000Y-34700000D03*
%TO.N,SWO*%
X48000000Y-33600000D03*
%TO.N,Net-(C2-Pad2)*%
X54600000Y-49100000D03*
X62300000Y-48300000D03*
X54600000Y-50000000D03*
D56*
%TO.N,MPU_INT*%
X47700000Y-26900000D03*
X43400000Y-34600000D03*
D57*
%TO.N,GND*%
X54260000Y-58360000D03*
D56*
X57200000Y-59600000D03*
D58*
X36500000Y-29900000D03*
X43900000Y-46400000D03*
D57*
X38900000Y-28500000D03*
X59700000Y-47800000D03*
D56*
X47600000Y-32400000D03*
D57*
X51600000Y-63800000D03*
D58*
X47000000Y-38800000D03*
D57*
X31100000Y-62900000D03*
X60200000Y-61200000D03*
X50400000Y-65400000D03*
X36650000Y-32450000D03*
X34900000Y-37850000D03*
X42350000Y-41250000D03*
X61200000Y-61200000D03*
X50900000Y-61200000D03*
X51900000Y-61200000D03*
X61700000Y-65400000D03*
X60700000Y-65400000D03*
X43300000Y-27100000D03*
X43300000Y-41250000D03*
X61600000Y-63800000D03*
D56*
X36000000Y-37600000D03*
D57*
X35500000Y-47350000D03*
D56*
X57200000Y-59000000D03*
D57*
X48700000Y-63800000D03*
X31100000Y-63800000D03*
X39550000Y-41250000D03*
X41450000Y-41250000D03*
X58800000Y-47800000D03*
X31900000Y-43350000D03*
X47900000Y-28000000D03*
D56*
X39700000Y-35800000D03*
D57*
X36550000Y-51900000D03*
X51600000Y-65400000D03*
X48100000Y-54400000D03*
X31200000Y-54200000D03*
X35750000Y-32450000D03*
X40550000Y-41250000D03*
X48100000Y-53500000D03*
D56*
X48200000Y-32400000D03*
D57*
X41300000Y-27500000D03*
X34400000Y-45300000D03*
X31200000Y-53300000D03*
D56*
X39200000Y-35800000D03*
D57*
X50700000Y-36800000D03*
X35900000Y-35400000D03*
X60700000Y-63800000D03*
D58*
X44200000Y-26600000D03*
D57*
X48700000Y-62900000D03*
X32700000Y-47800000D03*
X50400000Y-63800000D03*
%TO.N,TIM2_CH4*%
X38000000Y-44804500D03*
%TO.N,TIM3_CH4*%
X42600000Y-48500000D03*
%TD*%
D59*
%TO.N,+3.3V*%
X36700000Y-39200000D02*
X36700000Y-38590000D01*
D60*
X37500000Y-35400000D02*
X37500000Y-36375000D01*
X37500000Y-36375000D02*
X37475000Y-36400000D01*
%TO.N,GND*%
X35900000Y-35400000D02*
X35925000Y-35425000D01*
X35925000Y-35425000D02*
X35925000Y-36400000D01*
X43800000Y-47400000D02*
X43800000Y-46500000D01*
X43800000Y-46500000D02*
X43900000Y-46400000D01*
X42900000Y-47375000D02*
X43775000Y-47375000D01*
X43775000Y-47375000D02*
X43800000Y-47400000D01*
D61*
%TO.N,+3.3V*%
X61000000Y-35300000D02*
X60000000Y-34300000D01*
X60000000Y-35600000D02*
X60700000Y-35600000D01*
X60700000Y-35600000D02*
X61000000Y-35300000D01*
X60000000Y-34300000D02*
X60000000Y-35600000D01*
D60*
%TO.N,BOOT0*%
X55550000Y-35600000D02*
X55450000Y-35700000D01*
X55450000Y-35700000D02*
X51610000Y-35700000D01*
X51610000Y-35700000D02*
X51600000Y-35690000D01*
D62*
X51600000Y-35690000D02*
X51290000Y-36000000D01*
X51290000Y-36000000D02*
X47500000Y-36000000D01*
D60*
%TO.N,GND*%
X50700000Y-36800000D02*
X51510000Y-36800000D01*
D63*
%TO.N,+12V*%
X64800000Y-58837500D02*
X67962500Y-58837500D01*
X67962500Y-58837500D02*
X71100000Y-55700000D01*
X71100000Y-55700000D02*
X71100000Y-53769999D01*
D60*
%TO.N,NRST*%
X29800000Y-46200000D02*
X28100000Y-44500000D01*
X28100000Y-44500000D02*
X28100000Y-26000000D01*
X28100000Y-26000000D02*
X34300000Y-19800000D01*
X34300000Y-19800000D02*
X48275000Y-19800000D01*
X48275000Y-19800000D02*
X51440000Y-22965000D01*
D64*
%TO.N,LED_STATUS*%
X70681250Y-38831250D02*
X70812500Y-38700000D01*
X69887500Y-38831250D02*
X70681250Y-38831250D01*
D61*
%TO.N,GND*%
X60300000Y-55000000D02*
X60975000Y-55000000D01*
X60975000Y-55000000D02*
X61175000Y-54800000D01*
X61200000Y-55700000D02*
X61000000Y-55700000D01*
X61000000Y-55700000D02*
X60300000Y-55000000D01*
X61200000Y-55700000D02*
X61200000Y-54825000D01*
X61200000Y-54825000D02*
X61175000Y-54800000D01*
X57400000Y-54600000D02*
X58325000Y-54600000D01*
X58325000Y-54600000D02*
X58700000Y-54975000D01*
X57400000Y-55400000D02*
X58275000Y-55400000D01*
X58275000Y-55400000D02*
X58700000Y-54975000D01*
D60*
%TO.N,NRST*%
X29125000Y-47000000D02*
X29825000Y-46300000D01*
X29825000Y-46300000D02*
X32238852Y-46300000D01*
X32238852Y-46300000D02*
X32618852Y-45920000D01*
X32618852Y-45920000D02*
X32700000Y-45920000D01*
D64*
%TO.N,SD_CARD_DET*%
X32400245Y-52400000D02*
X32932121Y-52400000D01*
X32932121Y-52400000D02*
X33240000Y-52707879D01*
X41400000Y-49500000D02*
X44400000Y-52500000D01*
X41400000Y-45866921D02*
X41400000Y-49500000D01*
X41225000Y-45691921D02*
X41400000Y-45866921D01*
X41225000Y-44767500D02*
X41225000Y-45691921D01*
%TO.N,TIM3_CH4*%
X42600000Y-48500000D02*
X41900000Y-47800000D01*
X41900000Y-47800000D02*
X41900000Y-45480209D01*
X41900000Y-45480209D02*
X41725000Y-45305209D01*
X41725000Y-45305209D02*
X41725000Y-44767500D01*
%TO.N,SPI1_NSS*%
X38000000Y-47300000D02*
X39225000Y-46075000D01*
X39225000Y-46075000D02*
X39225000Y-44767500D01*
D61*
%TO.N,GND*%
X23700000Y-47400000D02*
X23700000Y-46600000D01*
X23700000Y-47400000D02*
X24275000Y-47400000D01*
X24275000Y-47400000D02*
X24675000Y-47000000D01*
X23700000Y-46600000D02*
X24275000Y-46600000D01*
X24275000Y-46600000D02*
X24675000Y-47000000D01*
D60*
X32700000Y-46880000D02*
X32700000Y-47800000D01*
D61*
X69665000Y-46580000D02*
X70530000Y-46580000D01*
X70530000Y-46580000D02*
X70550000Y-46600000D01*
%TO.N,+3.3V*%
X69665000Y-44980000D02*
X70577500Y-44980000D01*
%TO.N,Net-(D2-Pad1)*%
X72200000Y-46600000D02*
X72200000Y-45027500D01*
X72200000Y-45027500D02*
X72152500Y-44980000D01*
%TO.N,GND*%
X66200000Y-41525000D02*
X66200000Y-40900000D01*
X66600000Y-40500000D02*
X65800000Y-40500000D01*
X66200000Y-40900000D02*
X66600000Y-40500000D01*
X66200000Y-40900000D02*
X65800000Y-40500000D01*
D65*
X69900000Y-40000000D02*
X70775000Y-40000000D01*
D60*
%TO.N,Net-(D3-Pad1)*%
X72387500Y-38700000D02*
X72387500Y-39962500D01*
X72387500Y-39962500D02*
X72425000Y-40000000D01*
D62*
%TO.N,BOOT0*%
X47500000Y-36000000D02*
X47600000Y-36100000D01*
X40725000Y-37304608D02*
X40725000Y-37892500D01*
X40319444Y-35619444D02*
X39700000Y-35000000D01*
X40319444Y-36899053D02*
X40319444Y-35619444D01*
X40319444Y-36899053D02*
X40725000Y-37304608D01*
D64*
%TO.N,+3.3V*%
X38037500Y-38580000D02*
X36710000Y-38580000D01*
D60*
X35500000Y-29900000D02*
X35500000Y-29925000D01*
D64*
X46525000Y-30800000D02*
X47810000Y-30800000D01*
D65*
X35400000Y-45450000D02*
X35400000Y-45365000D01*
X37900000Y-37800000D02*
X37900000Y-38300000D01*
D60*
X35500000Y-29925000D02*
X34700000Y-30725000D01*
D59*
X39525000Y-30075000D02*
X38900000Y-30075000D01*
X35500000Y-29900000D02*
X35500000Y-30120000D01*
D64*
X36710000Y-38580000D02*
X36700000Y-38590000D01*
D60*
X39175000Y-33800000D02*
X39175000Y-32825000D01*
D64*
X38725000Y-37892500D02*
X38725000Y-36605000D01*
D61*
X61700000Y-40600000D02*
X61700000Y-42100000D01*
X67500000Y-44200000D02*
X66475000Y-44200000D01*
D64*
X44517500Y-44767500D02*
X44750000Y-45000000D01*
X46200000Y-27000000D02*
X46400000Y-27000000D01*
D60*
X38520000Y-36400000D02*
X38720000Y-36600000D01*
D65*
X38740000Y-51740000D02*
X38700000Y-51700000D01*
D64*
X44830000Y-45372500D02*
X44225000Y-44767500D01*
X38307500Y-37892500D02*
X37900000Y-38300000D01*
X45120000Y-38580000D02*
X46200000Y-37500000D01*
X38725000Y-37892500D02*
X38307500Y-37892500D01*
D61*
X62000000Y-47100000D02*
X62300000Y-47100000D01*
D64*
X37992500Y-37892500D02*
X37900000Y-37800000D01*
X46200000Y-37500000D02*
X46200000Y-37300000D01*
X44912500Y-38580000D02*
X45120000Y-38580000D01*
X38325000Y-38180000D02*
X38325000Y-38400000D01*
X44830000Y-45700000D02*
X44830000Y-45372500D01*
D59*
X35500000Y-29900000D02*
X35500000Y-30500000D01*
D63*
X64075000Y-44475000D02*
X63300000Y-43700000D01*
D64*
X38725000Y-37892500D02*
X37992500Y-37892500D01*
D60*
X47910000Y-30900000D02*
X47850000Y-30840000D01*
D63*
X66200000Y-44475000D02*
X64075000Y-44475000D01*
D60*
X34300000Y-49800000D02*
X34300000Y-51640000D01*
D61*
X61700000Y-46800000D02*
X61700000Y-40600000D01*
D64*
X45825000Y-26895000D02*
X45920000Y-26800000D01*
D60*
X44225000Y-33800000D02*
X44225000Y-33675000D01*
D65*
X60350000Y-53900000D02*
X60750000Y-53500000D01*
D60*
X48700000Y-30900000D02*
X47910000Y-30900000D01*
D61*
X67500000Y-45000000D02*
X66725000Y-45000000D01*
D65*
X60750000Y-53500000D02*
X60350000Y-53100000D01*
X38740000Y-52707879D02*
X38740000Y-51740000D01*
D64*
X44830000Y-45080000D02*
X44750000Y-45000000D01*
D65*
X60750000Y-53500000D02*
X61175000Y-53500000D01*
D64*
X44225000Y-44767500D02*
X44517500Y-44767500D01*
X36700000Y-38590000D02*
X36990000Y-38300000D01*
X38612500Y-37892500D02*
X38325000Y-38180000D01*
X45825000Y-28100000D02*
X45825000Y-26895000D01*
D59*
X37300000Y-29425000D02*
X37300000Y-28500000D01*
D64*
X45825000Y-27375000D02*
X46200000Y-27000000D01*
D59*
X39700000Y-29900000D02*
X39525000Y-30075000D01*
D64*
X34700000Y-30725000D02*
X37300000Y-30725000D01*
X37400000Y-38300000D02*
X37900000Y-37800000D01*
D60*
X37475000Y-36400000D02*
X38520000Y-36400000D01*
D65*
X35400000Y-45365000D02*
X36015000Y-44750000D01*
D59*
X35500000Y-30120000D02*
X36100000Y-30720000D01*
D64*
X45825000Y-28100000D02*
X45825000Y-27375000D01*
X38725000Y-37892500D02*
X38612500Y-37892500D01*
D60*
X39175000Y-32825000D02*
X39200000Y-32800000D01*
X34300000Y-51640000D02*
X34310000Y-51650000D01*
D59*
X35500000Y-30500000D02*
X35400000Y-30600000D01*
D64*
X38725000Y-36605000D02*
X38720000Y-36600000D01*
D60*
X46700000Y-26700000D02*
X45880000Y-26700000D01*
D61*
X63300000Y-46100000D02*
X63300000Y-43700000D01*
D64*
X37400000Y-38300000D02*
X37900000Y-38300000D01*
D61*
X61700000Y-42100000D02*
X63300000Y-43700000D01*
X63300000Y-40600000D02*
X63300000Y-43700000D01*
X67500000Y-45000000D02*
X67500000Y-44200000D01*
D64*
X46400000Y-27000000D02*
X46700000Y-26700000D01*
D60*
X44225000Y-33675000D02*
X44900000Y-33000000D01*
D64*
X44830000Y-45700000D02*
X44830000Y-45080000D01*
D61*
X62300000Y-47100000D02*
X63300000Y-46100000D01*
D64*
X47810000Y-30800000D02*
X47850000Y-30840000D01*
D60*
X46200000Y-37200000D02*
X46200000Y-37300000D01*
D64*
X36990000Y-38300000D02*
X37400000Y-38300000D01*
D61*
X61700000Y-46800000D02*
X62000000Y-47100000D01*
X66725000Y-45000000D02*
X66200000Y-44475000D01*
D60*
X46200000Y-37300000D02*
X46200000Y-37920000D01*
D61*
X66475000Y-44200000D02*
X66200000Y-44475000D01*
D65*
X60350000Y-53900000D02*
X60350000Y-53100000D01*
D61*
X61700000Y-40600000D02*
X63300000Y-40600000D01*
D66*
%TO.N,NRST*%
X36973305Y-41907500D02*
X36797924Y-41907500D01*
X36797924Y-41907500D02*
X32725424Y-45980000D01*
X38037500Y-41580000D02*
X37300805Y-41580000D01*
X32725424Y-45980000D02*
X32700000Y-45980000D01*
X37300805Y-41580000D02*
X36973305Y-41907500D01*
D62*
%TO.N,+3.3VA*%
X37544135Y-42580000D02*
X36880000Y-43244135D01*
X36900000Y-43680000D02*
X36880000Y-43700000D01*
D65*
X36600000Y-45925000D02*
X36965000Y-45560000D01*
X36965000Y-45560000D02*
X36965000Y-43785000D01*
X36965000Y-43785000D02*
X36880000Y-43700000D01*
D62*
X38037500Y-42580000D02*
X37544135Y-42580000D01*
X36880000Y-43244135D02*
X36880000Y-43700000D01*
X36880000Y-44645000D02*
X36985000Y-44750000D01*
D64*
%TO.N,HSE_IN*%
X32650000Y-39500000D02*
X32650000Y-39600000D01*
X32990000Y-37800000D02*
X32990000Y-39160000D01*
X32990000Y-39160000D02*
X32650000Y-39500000D01*
X32650000Y-39600000D02*
X33630000Y-40580000D01*
X33630000Y-40580000D02*
X38037500Y-40580000D01*
%TO.N,Net-(C19-Pad1)*%
X47880000Y-29800000D02*
X47900000Y-29780000D01*
X46525000Y-29800000D02*
X47880000Y-29800000D01*
D60*
%TO.N,+5V*%
X58520000Y-61600000D02*
X58545000Y-61575000D01*
D64*
X55840000Y-57725000D02*
X55840000Y-58400000D01*
D60*
X58545000Y-57600000D02*
X58420000Y-57475000D01*
D64*
X58360000Y-57780000D02*
X58420000Y-57840000D01*
D60*
X57481928Y-57300000D02*
X57481928Y-58200500D01*
D64*
X57495000Y-58400000D02*
X57947500Y-57947500D01*
D60*
X58545000Y-61575000D02*
X58545000Y-58255000D01*
D64*
X55840000Y-58400000D02*
X57495000Y-58400000D01*
X58420000Y-57840000D02*
X58420000Y-57475000D01*
D60*
X57481928Y-57300000D02*
X57947500Y-57765572D01*
X58545000Y-58255000D02*
X58545000Y-57600000D01*
X58545000Y-58255000D02*
X57536428Y-58255000D01*
X57536428Y-58255000D02*
X57481928Y-58200500D01*
X53620000Y-60667315D02*
X53620000Y-61600000D01*
X53200000Y-60247315D02*
X53620000Y-60667315D01*
X53200000Y-59600000D02*
X53200000Y-60247315D01*
D64*
X57947500Y-57947500D02*
X58420000Y-57475000D01*
D60*
X57947500Y-57847500D02*
X57947500Y-57947500D01*
D64*
%TO.N,LED_STATUS*%
X46030000Y-42080000D02*
X46050000Y-42100000D01*
X46050000Y-42100000D02*
X46950000Y-43000000D01*
X46950000Y-43000000D02*
X47850000Y-43000000D01*
X44912500Y-42080000D02*
X46030000Y-42080000D01*
%TO.N,SPI1_NSS*%
X40940000Y-51740000D02*
X40940000Y-52707879D01*
%TO.N,SPI1_MOSI*%
X39840000Y-49360000D02*
X39840000Y-52692121D01*
X40725000Y-45795791D02*
X40900000Y-45970791D01*
X40900000Y-45970791D02*
X40900000Y-48300000D01*
X40725000Y-44767500D02*
X40725000Y-45795791D01*
X40900000Y-48300000D02*
X39840000Y-49360000D01*
%TO.N,SPI1_SCK*%
X37650000Y-48750000D02*
X39798000Y-46602000D01*
X39798000Y-46602000D02*
X39798000Y-44840500D01*
X37650000Y-51750000D02*
X37650000Y-52697879D01*
X39798000Y-44840500D02*
X39725000Y-44767500D01*
X37650000Y-49300000D02*
X37650000Y-48750000D01*
X37650000Y-52697879D02*
X37640000Y-52707879D01*
%TO.N,SPI1_MISO*%
X36010000Y-50000000D02*
X35360000Y-50650000D01*
X40225000Y-44767500D02*
X40225000Y-48025000D01*
X38250000Y-50000000D02*
X36010000Y-50000000D01*
X35440000Y-52707879D02*
X35440000Y-50730000D01*
X40225000Y-48025000D02*
X38250000Y-50000000D01*
X35440000Y-50730000D02*
X35360000Y-50650000D01*
%TO.N,SD_CARD_DET*%
X33290000Y-51650000D02*
X33290000Y-52657879D01*
X33290000Y-52657879D02*
X33240000Y-52707879D01*
X33090000Y-52557879D02*
X33240000Y-52707879D01*
%TO.N,USBC_CONNCC1*%
X54320000Y-60220000D02*
X54320000Y-61600000D01*
X54260000Y-60160000D02*
X54320000Y-60220000D01*
%TO.N,USBC_CONNCC2*%
X57530000Y-60140000D02*
X57320000Y-60350000D01*
X57320000Y-60350000D02*
X57320000Y-61600000D01*
%TO.N,GPIO_1*%
X45280000Y-44080000D02*
X44912500Y-44080000D01*
X45750000Y-44550000D02*
X45280000Y-44080000D01*
X45750000Y-45150000D02*
X45750000Y-44550000D01*
%TO.N,GPIO_2*%
X45383870Y-43580000D02*
X44912500Y-43580000D01*
X46326500Y-44522630D02*
X45383870Y-43580000D01*
X46326500Y-44607364D02*
X46326500Y-44522630D01*
%TO.N,GPIO_3*%
X46450000Y-43950000D02*
X45580000Y-43080000D01*
X45580000Y-43080000D02*
X44912500Y-43080000D01*
X46696180Y-43950000D02*
X46450000Y-43950000D01*
X46854112Y-44107932D02*
X46696180Y-43950000D01*
%TO.N,GPIO_4*%
X47296561Y-43523000D02*
X46723000Y-43523000D01*
X46723000Y-43523000D02*
X45780000Y-42580000D01*
X47372783Y-43599222D02*
X47296561Y-43523000D01*
X45780000Y-42580000D02*
X44912500Y-42580000D01*
%TO.N,I2C1_SCL*%
X42600000Y-31325000D02*
X42625000Y-31300000D01*
X42575000Y-33800000D02*
X42600000Y-33775000D01*
X41725000Y-37892500D02*
X41725000Y-37075000D01*
X41600000Y-32900000D02*
X41600000Y-31775000D01*
X42500000Y-33800000D02*
X41600000Y-32900000D01*
X41200000Y-31375000D02*
X40900000Y-31075000D01*
X40900000Y-31075000D02*
X40900000Y-30000000D01*
X42600000Y-33775000D02*
X42600000Y-31325000D01*
X41725000Y-37075000D02*
X42300000Y-36500000D01*
X42300000Y-36500000D02*
X42300000Y-34075000D01*
X42575000Y-33800000D02*
X42500000Y-33800000D01*
X40900000Y-30000000D02*
X40310000Y-29410000D01*
X38900000Y-31375000D02*
X41200000Y-31375000D01*
X42300000Y-34075000D02*
X42575000Y-33800000D01*
X40310000Y-29410000D02*
X40310000Y-23650000D01*
X41600000Y-31775000D02*
X41200000Y-31375000D01*
X40310000Y-23650000D02*
X39560000Y-22900000D01*
%TO.N,I2C1_SDA*%
X41225000Y-37125000D02*
X40800000Y-36700000D01*
X40825000Y-32825000D02*
X40800000Y-32800000D01*
X42625000Y-30800000D02*
X41700000Y-30800000D01*
X40825000Y-33800000D02*
X40825000Y-32825000D01*
X38925000Y-30750000D02*
X39800000Y-30750000D01*
X40800000Y-33825000D02*
X40825000Y-33800000D01*
X40800000Y-36700000D02*
X40800000Y-33825000D01*
X38900000Y-30725000D02*
X38925000Y-30750000D01*
X41225000Y-37892500D02*
X41225000Y-37125000D01*
%TO.N,UART2_TX*%
X47051761Y-41824656D02*
X46904105Y-41677000D01*
X46904105Y-41677000D02*
X46760998Y-41677000D01*
X46760998Y-41677000D02*
X46663998Y-41580000D01*
X46663998Y-41580000D02*
X44912500Y-41580000D01*
%TO.N,UART2_RX*%
X46980000Y-41080000D02*
X47000000Y-41100000D01*
X44912500Y-41080000D02*
X46980000Y-41080000D01*
%TO.N,SWDIO*%
X51400000Y-38800000D02*
X50620000Y-39580000D01*
X50620000Y-39580000D02*
X44912500Y-39580000D01*
%TO.N,SWCLK*%
X47000000Y-34700000D02*
X44225000Y-37475000D01*
X50400000Y-34700000D02*
X47000000Y-34700000D01*
X44225000Y-37475000D02*
X44225000Y-37892500D01*
D67*
%TO.N,SWO*%
X46578858Y-33600000D02*
X43225000Y-36953858D01*
X48000000Y-33600000D02*
X46578858Y-33600000D01*
X43225000Y-36953858D02*
X43225000Y-37892500D01*
D65*
%TO.N,Net-(C2-Pad1)*%
X58895000Y-49570000D02*
X57380000Y-49570000D01*
D63*
X57300000Y-43700000D02*
X57300000Y-49550000D01*
D65*
X57380000Y-49570000D02*
X57350000Y-49600000D01*
D63*
X57300000Y-49550000D02*
X57350000Y-49600000D01*
D61*
%TO.N,Net-(C2-Pad2)*%
X62300000Y-48300000D02*
X62032000Y-48568000D01*
X55450000Y-49600000D02*
X55000000Y-49600000D01*
X62032000Y-48568000D02*
X61170000Y-48568000D01*
X55450000Y-49600000D02*
X55100000Y-49600000D01*
X55000000Y-49600000D02*
X54600000Y-50000000D01*
X55100000Y-49600000D02*
X54600000Y-49100000D01*
D64*
%TO.N,Net-(C13-Pad1)*%
X33980000Y-42070000D02*
X34350000Y-41700000D01*
X34750000Y-41300000D02*
X34350000Y-41700000D01*
X35790000Y-41300000D02*
X34750000Y-41300000D01*
X33980000Y-43300000D02*
X33980000Y-42070000D01*
%TO.N,Net-(C14-Pad1)*%
X43225000Y-44767500D02*
X43225000Y-45500000D01*
X43225000Y-45500000D02*
X42900000Y-45825000D01*
%TO.N,HSE_OUT*%
X37030000Y-41080000D02*
X38037500Y-41080000D01*
X36810000Y-41300000D02*
X37030000Y-41080000D01*
%TO.N,Net-(C20-Pad1)*%
X41320000Y-29300000D02*
X42625000Y-29300000D01*
X41300000Y-29280000D02*
X41320000Y-29300000D01*
D65*
%TO.N,Net-(C1-Pad1)*%
X59585433Y-50520000D02*
X60535433Y-49570000D01*
X58895000Y-50520000D02*
X59585433Y-50520000D01*
X62595000Y-49570000D02*
X62925000Y-49900000D01*
D63*
X58700000Y-52025000D02*
X58700000Y-50900000D01*
D65*
X60535433Y-49570000D02*
X61170000Y-49570000D01*
X61170000Y-49570000D02*
X62595000Y-49570000D01*
D68*
%TO.N,USB_D-*%
X47236801Y-40555001D02*
X52175000Y-45493200D01*
X55302500Y-57361397D02*
X55302500Y-57800000D01*
X52175000Y-45493200D02*
X52175000Y-54233897D01*
X44937499Y-40555001D02*
X47236801Y-40555001D01*
X52175000Y-54233897D02*
X55302500Y-57361397D01*
X44912500Y-40580000D02*
X44937499Y-40555001D01*
%TO.N,USB_D+*%
X47423199Y-40104999D02*
X52625000Y-45306800D01*
X55750500Y-57173000D02*
X56217000Y-57173000D01*
X44912500Y-40080000D02*
X44937499Y-40104999D01*
X56217000Y-57639500D02*
X56377500Y-57800000D01*
X52625000Y-54047500D02*
X55750500Y-57173000D01*
X44937499Y-40104999D02*
X47423199Y-40104999D01*
X56217000Y-57173000D02*
X56217000Y-57639500D01*
X52625000Y-45306800D02*
X52625000Y-54047500D01*
D69*
%TO.N,Net-(D1-Pad1)*%
X64600000Y-55302500D02*
X64932500Y-54970000D01*
X63337500Y-57475000D02*
X63850000Y-56962500D01*
X63850000Y-56962500D02*
X64600000Y-56212500D01*
X61720000Y-57475000D02*
X63337500Y-57475000D01*
X64600000Y-56212500D02*
X64600000Y-55302500D01*
D64*
%TO.N,MPU_INT*%
X42800000Y-35200000D02*
X42800000Y-36707107D01*
X42800000Y-36707107D02*
X42225000Y-37282106D01*
X46525000Y-28075000D02*
X47700000Y-26900000D01*
X42225000Y-37282106D02*
X42225000Y-37892500D01*
X46525000Y-28800000D02*
X46525000Y-28075000D01*
X43400000Y-34600000D02*
X42800000Y-35200000D01*
D61*
%TO.N,Net-(R1-Pad1)*%
X61175000Y-52100000D02*
X61175000Y-50925000D01*
X61175000Y-50925000D02*
X61200000Y-50900000D01*
D65*
%TO.N,Net-(R1-Pad2)*%
X62825000Y-52100000D02*
X62825000Y-54800000D01*
D64*
%TO.N,GND*%
X43725000Y-44767500D02*
X43725000Y-45555000D01*
X55640000Y-58900000D02*
X54800000Y-58900000D01*
D60*
X36670000Y-37600000D02*
X36700000Y-37630000D01*
D65*
X31897879Y-54200000D02*
X32140000Y-53957879D01*
X33950000Y-37800000D02*
X34850000Y-37800000D01*
D60*
X41300000Y-28320000D02*
X41300000Y-27500000D01*
D65*
X59700000Y-47815000D02*
X58895000Y-48620000D01*
D64*
X57200000Y-59000000D02*
X57650000Y-59000000D01*
D65*
X58800000Y-47800000D02*
X59700000Y-47800000D01*
D60*
X54260000Y-59140000D02*
X54260000Y-58360000D01*
D62*
X35920000Y-43552025D02*
X35920000Y-43700000D01*
D60*
X35750000Y-32450000D02*
X35950000Y-32450000D01*
D65*
X58895000Y-48620000D02*
X58895000Y-47895000D01*
X36540000Y-51910000D02*
X36540000Y-52707879D01*
D60*
X47600000Y-32400000D02*
X48200000Y-32400000D01*
D64*
X43900000Y-46400000D02*
X43900000Y-45730000D01*
D65*
X31950000Y-43300000D02*
X31900000Y-43350000D01*
D64*
X57430000Y-59460000D02*
X57770000Y-59120000D01*
D60*
X54520000Y-58880000D02*
X54530000Y-58880000D01*
D65*
X31200000Y-53300000D02*
X31482121Y-53300000D01*
X33000000Y-43300000D02*
X32550000Y-42850000D01*
X31900000Y-43350000D02*
X31900000Y-42450000D01*
D60*
X36650000Y-32025000D02*
X37300000Y-31375000D01*
D61*
X48600000Y-63850000D02*
X48600000Y-62950000D01*
D64*
X43725000Y-45555000D02*
X43870000Y-45700000D01*
D65*
X34350000Y-38400000D02*
X34900000Y-37850000D01*
D60*
X47000000Y-38800000D02*
X46280000Y-38800000D01*
X44820000Y-26600000D02*
X44920000Y-26700000D01*
X47850000Y-31800000D02*
X47850000Y-32150000D01*
X54260000Y-59140000D02*
X54520000Y-58880000D01*
D61*
X48600000Y-63850000D02*
X47952121Y-63850000D01*
X58700000Y-54975000D02*
X58725000Y-55000000D01*
D65*
X33950000Y-37800000D02*
X34100000Y-37950000D01*
X33020000Y-43300000D02*
X31950000Y-43300000D01*
D64*
X36475000Y-47350000D02*
X36600000Y-47475000D01*
D60*
X39700000Y-35800000D02*
X39700000Y-36580000D01*
D65*
X34350000Y-39500000D02*
X34350000Y-38400000D01*
D61*
X47532121Y-54400000D02*
X47090000Y-53957879D01*
D64*
X35500000Y-47350000D02*
X36475000Y-47350000D01*
D61*
X31100000Y-63800000D02*
X31747879Y-63800000D01*
D64*
X57650000Y-59000000D02*
X57770000Y-59120000D01*
D65*
X33020000Y-43300000D02*
X33000000Y-43300000D01*
D62*
X34650556Y-44969444D02*
X35920000Y-43700000D01*
D60*
X36650000Y-32450000D02*
X36650000Y-32025000D01*
D65*
X32550000Y-41800000D02*
X32650000Y-41700000D01*
X31900000Y-42450000D02*
X32650000Y-41700000D01*
D64*
X57200000Y-59000000D02*
X57200000Y-59600000D01*
D60*
X35950000Y-32450000D02*
X36300000Y-32100000D01*
X48100000Y-32400000D02*
X48200000Y-32400000D01*
D64*
X44912500Y-39080000D02*
X46000000Y-39080000D01*
D60*
X47850000Y-32150000D02*
X48100000Y-32400000D01*
D61*
X31100000Y-62900000D02*
X31100000Y-63800000D01*
D60*
X47850000Y-32150000D02*
X47600000Y-32400000D01*
D65*
X32650000Y-41700000D02*
X33020000Y-42070000D01*
D62*
X34650556Y-45049444D02*
X34650556Y-44969444D01*
D65*
X34100000Y-37950000D02*
X34100000Y-39250000D01*
X36550000Y-51900000D02*
X36540000Y-51910000D01*
X31200000Y-54200000D02*
X31200000Y-53300000D01*
D61*
X48152121Y-63700000D02*
X47860000Y-63407879D01*
D64*
X54800000Y-58900000D02*
X54260000Y-58360000D01*
X39225000Y-37892500D02*
X39225000Y-37275000D01*
D60*
X44200000Y-26600000D02*
X44820000Y-26600000D01*
D65*
X34100000Y-39250000D02*
X34350000Y-39500000D01*
D60*
X39680000Y-36280000D02*
X39200000Y-35800000D01*
X36000000Y-37600000D02*
X36670000Y-37600000D01*
X47900000Y-28820000D02*
X47900000Y-28000000D01*
D61*
X47547879Y-53500000D02*
X47090000Y-53957879D01*
D65*
X31482121Y-53300000D02*
X32140000Y-53957879D01*
D59*
X37300000Y-30075000D02*
X36675000Y-30075000D01*
D60*
X35750000Y-32450000D02*
X34875000Y-32450000D01*
D62*
X38037500Y-42080000D02*
X37392025Y-42080000D01*
D64*
X39225000Y-37275000D02*
X39600000Y-36900000D01*
D60*
X36995000Y-31680000D02*
X37300000Y-31375000D01*
D65*
X32550000Y-42850000D02*
X32550000Y-41800000D01*
D60*
X39680000Y-36600000D02*
X39680000Y-36280000D01*
D64*
X43325000Y-28100000D02*
X43325000Y-27125000D01*
D60*
X39700000Y-36580000D02*
X39680000Y-36600000D01*
D64*
X46000000Y-39080000D02*
X46200000Y-38880000D01*
X57340000Y-59460000D02*
X57430000Y-59460000D01*
D60*
X34875000Y-32450000D02*
X34700000Y-32275000D01*
X35750000Y-32030000D02*
X36100000Y-31680000D01*
X39700000Y-35800000D02*
X39200000Y-35800000D01*
D64*
X40725000Y-42080000D02*
X41475000Y-41330000D01*
X57200000Y-59600000D02*
X57340000Y-59460000D01*
D65*
X58895000Y-47895000D02*
X58800000Y-47800000D01*
D61*
X48100000Y-53500000D02*
X47547879Y-53500000D01*
D60*
X35750000Y-32450000D02*
X35750000Y-32030000D01*
D61*
X31100000Y-62900000D02*
X31632121Y-62900000D01*
D64*
X55840000Y-59100000D02*
X55640000Y-58900000D01*
X43325000Y-27125000D02*
X43300000Y-27100000D01*
D61*
X48600000Y-62950000D02*
X48267879Y-62950000D01*
X31747879Y-63800000D02*
X32140000Y-63407879D01*
X48100000Y-53500000D02*
X48100000Y-54400000D01*
D65*
X34850000Y-37800000D02*
X34900000Y-37850000D01*
X31200000Y-54200000D02*
X31897879Y-54200000D01*
D60*
X36100000Y-31680000D02*
X36995000Y-31680000D01*
D65*
X59700000Y-47800000D02*
X59700000Y-47815000D01*
D62*
X34400000Y-45300000D02*
X34650556Y-45049444D01*
D60*
X35505000Y-32275000D02*
X36100000Y-31680000D01*
D65*
X34000000Y-37850000D02*
X33950000Y-37800000D01*
D60*
X34700000Y-32275000D02*
X35505000Y-32275000D01*
D61*
X31632121Y-62900000D02*
X32140000Y-63407879D01*
D64*
X43900000Y-45730000D02*
X43870000Y-45700000D01*
X57340000Y-59460000D02*
X57340000Y-59140000D01*
X55840000Y-59575000D02*
X55840000Y-59100000D01*
D65*
X33020000Y-42070000D02*
X33020000Y-43300000D01*
D62*
X37392025Y-42080000D02*
X35920000Y-43552025D01*
D59*
X38900000Y-29425000D02*
X38900000Y-28500000D01*
D60*
X46280000Y-38800000D02*
X46200000Y-38880000D01*
D59*
X36675000Y-30075000D02*
X36500000Y-29900000D01*
D60*
X35750000Y-32450000D02*
X36650000Y-32450000D01*
D61*
X48100000Y-54400000D02*
X47532121Y-54400000D01*
%TO.N,Net-(F1-Pad2)*%
X66075000Y-49900000D02*
X66075000Y-51027500D01*
X66075000Y-51027500D02*
X64932500Y-52170000D01*
X64882500Y-52220000D02*
X64932500Y-52170000D01*
%TO.N,Net-(D2-Pad1)*%
X72152500Y-46552500D02*
X72200000Y-46600000D01*
D64*
%TO.N,TIM2_CH4*%
X38037000Y-44767500D02*
X38725000Y-44767500D01*
X38000000Y-44804500D02*
X38037000Y-44767500D01*
D62*
%TO.N,USBC_CONND+*%
X56377500Y-59500000D02*
X56339444Y-59538056D01*
X56320000Y-61600000D02*
X55820000Y-61600000D01*
X56310000Y-61610000D02*
X56320000Y-61600000D01*
X56339444Y-59538056D02*
X56339444Y-60820000D01*
X56337500Y-61582500D02*
X56320000Y-61600000D01*
%TO.N,USBC_CONND-*%
X55339444Y-62655556D02*
X55320000Y-62636112D01*
X56820000Y-62636112D02*
X56800556Y-62655556D01*
X55339444Y-61580556D02*
X55320000Y-61600000D01*
X56800556Y-62655556D02*
X55339444Y-62655556D01*
X55339444Y-59536944D02*
X55339444Y-61580556D01*
X56820000Y-61600000D02*
X56820000Y-62636112D01*
X55302500Y-59500000D02*
X55339444Y-59536944D01*
X55320000Y-62636112D02*
X55320000Y-61600000D01*
%TD*%
%TA.AperFunction,Conductor*%
%TO.N,GND*%
G36*
X52304234Y-60714352D02*
G01*
X52318586Y-60749000D01*
X52312694Y-60768427D01*
X52314034Y-60768982D01*
X52308563Y-60782192D01*
X52295471Y-60848010D01*
X52295000Y-60852786D01*
X52295000Y-61336253D01*
X52297855Y-61343145D01*
X52304747Y-61346000D01*
X53050000Y-61346000D01*
X53084648Y-61360352D01*
X53099000Y-61395000D01*
X53099000Y-61805000D01*
X53084648Y-61839648D01*
X53050000Y-61854000D01*
X52304747Y-61854000D01*
X52297855Y-61856855D01*
X52295000Y-61863747D01*
X52295000Y-62347214D01*
X52295471Y-62351990D01*
X52308563Y-62417808D01*
X52312187Y-62426559D01*
X52360230Y-62498460D01*
X52367546Y-62535242D01*
X52358688Y-62555083D01*
X52207321Y-62756906D01*
X52175051Y-62776014D01*
X52149369Y-62772776D01*
X52140253Y-62769000D01*
X51263747Y-62769000D01*
X51256855Y-62771855D01*
X51254000Y-62778747D01*
X51254000Y-63480253D01*
X51256855Y-63487145D01*
X51263747Y-63490000D01*
X51922214Y-63490000D01*
X51926990Y-63489529D01*
X51992808Y-63476437D01*
X52001559Y-63472813D01*
X52023777Y-63457967D01*
X52060559Y-63450650D01*
X52091742Y-63471486D01*
X52100000Y-63498709D01*
X52100000Y-65711291D01*
X52085648Y-65745939D01*
X52051000Y-65760291D01*
X52023777Y-65752033D01*
X52001559Y-65737187D01*
X51992808Y-65733563D01*
X51926990Y-65720471D01*
X51922214Y-65720000D01*
X51263747Y-65720000D01*
X51256855Y-65722855D01*
X51254000Y-65729747D01*
X51254000Y-66900000D01*
X51239648Y-66934648D01*
X51205000Y-66949000D01*
X50795000Y-66949000D01*
X50760352Y-66934648D01*
X50746000Y-66900000D01*
X50746000Y-65729747D01*
X50743145Y-65722855D01*
X50736253Y-65720000D01*
X50077786Y-65720000D01*
X50073010Y-65720471D01*
X50007192Y-65733563D01*
X49998441Y-65737187D01*
X49923771Y-65787080D01*
X49917080Y-65793771D01*
X49889742Y-65834685D01*
X49858559Y-65855520D01*
X49821777Y-65848204D01*
X49800942Y-65817021D01*
X49800000Y-65807462D01*
X49800000Y-63402538D01*
X49814352Y-63367890D01*
X49849000Y-63353538D01*
X49883648Y-63367890D01*
X49889742Y-63375315D01*
X49917080Y-63416229D01*
X49923771Y-63422920D01*
X49998441Y-63472813D01*
X50007192Y-63476437D01*
X50073010Y-63489529D01*
X50077786Y-63490000D01*
X50736253Y-63490000D01*
X50743145Y-63487145D01*
X50746000Y-63480253D01*
X50746000Y-62251253D01*
X51254000Y-62251253D01*
X51256855Y-62258145D01*
X51263747Y-62261000D01*
X52140253Y-62261000D01*
X52147145Y-62258145D01*
X52150000Y-62251253D01*
X52150000Y-61767786D01*
X52149529Y-61763010D01*
X52136437Y-61697192D01*
X52132813Y-61688441D01*
X52082920Y-61613771D01*
X52076229Y-61607080D01*
X52001559Y-61557187D01*
X51992808Y-61553563D01*
X51926990Y-61540471D01*
X51922214Y-61540000D01*
X51263747Y-61540000D01*
X51256855Y-61542855D01*
X51254000Y-61549747D01*
X51254000Y-62251253D01*
X50746000Y-62251253D01*
X50746000Y-61549747D01*
X50743145Y-61542855D01*
X50736253Y-61540000D01*
X50077786Y-61540000D01*
X50073010Y-61540471D01*
X50007192Y-61553563D01*
X49998441Y-61557187D01*
X49923771Y-61607080D01*
X49917080Y-61613771D01*
X49889742Y-61654685D01*
X49858559Y-61675520D01*
X49821777Y-61668204D01*
X49800942Y-61637021D01*
X49800000Y-61627462D01*
X49800000Y-61415703D01*
X49809127Y-61387222D01*
X49845534Y-61336253D01*
X50285344Y-60720519D01*
X50317161Y-60700667D01*
X50325217Y-60700000D01*
X52269586Y-60700000D01*
X52304234Y-60714352D01*
G37*
%TD.AperFunction*%
%TD*%
%TA.AperFunction,Conductor*%
%TO.N,GND*%
G36*
X61608425Y-60514352D02*
G01*
X61614545Y-60521818D01*
X61732514Y-60698771D01*
X62391770Y-61687655D01*
X62400000Y-61714835D01*
X62400000Y-67651000D01*
X62385648Y-67685648D01*
X62351000Y-67700000D01*
X62232470Y-67700000D01*
X62197822Y-67685648D01*
X62183470Y-67651000D01*
X62197822Y-67616352D01*
X62205247Y-67610258D01*
X62216229Y-67602920D01*
X62222920Y-67596229D01*
X62272813Y-67521559D01*
X62276437Y-67512808D01*
X62289529Y-67446990D01*
X62290000Y-67442214D01*
X62290000Y-66958747D01*
X62287145Y-66951855D01*
X62280253Y-66949000D01*
X60935000Y-66949000D01*
X60900352Y-66934648D01*
X60886000Y-66900000D01*
X60886000Y-66431253D01*
X61394000Y-66431253D01*
X61396855Y-66438145D01*
X61403747Y-66441000D01*
X62280253Y-66441000D01*
X62287145Y-66438145D01*
X62290000Y-66431253D01*
X62290000Y-65947786D01*
X62289529Y-65943010D01*
X62276437Y-65877192D01*
X62272813Y-65868441D01*
X62222920Y-65793771D01*
X62216229Y-65787080D01*
X62141559Y-65737187D01*
X62132808Y-65733563D01*
X62066990Y-65720471D01*
X62062214Y-65720000D01*
X61403747Y-65720000D01*
X61396855Y-65722855D01*
X61394000Y-65729747D01*
X61394000Y-66431253D01*
X60886000Y-66431253D01*
X60886000Y-65729747D01*
X60883145Y-65722855D01*
X60876253Y-65720000D01*
X60217786Y-65720000D01*
X60213010Y-65720471D01*
X60147192Y-65733563D01*
X60138441Y-65737187D01*
X60076223Y-65778760D01*
X60039441Y-65786076D01*
X60008258Y-65765241D01*
X60000000Y-65738018D01*
X60000000Y-63471982D01*
X60014352Y-63437334D01*
X60049000Y-63422982D01*
X60076223Y-63431240D01*
X60138441Y-63472813D01*
X60147192Y-63476437D01*
X60213010Y-63489529D01*
X60217786Y-63490000D01*
X60876253Y-63490000D01*
X60883145Y-63487145D01*
X60886000Y-63480253D01*
X61394000Y-63480253D01*
X61396855Y-63487145D01*
X61403747Y-63490000D01*
X62062214Y-63490000D01*
X62066990Y-63489529D01*
X62132808Y-63476437D01*
X62141559Y-63472813D01*
X62216229Y-63422920D01*
X62222920Y-63416229D01*
X62272813Y-63341559D01*
X62276437Y-63332808D01*
X62289529Y-63266990D01*
X62290000Y-63262214D01*
X62290000Y-62778747D01*
X62287145Y-62771855D01*
X62280253Y-62769000D01*
X61403747Y-62769000D01*
X61396855Y-62771855D01*
X61394000Y-62778747D01*
X61394000Y-63480253D01*
X60886000Y-63480253D01*
X60886000Y-62778747D01*
X60883145Y-62771855D01*
X60876253Y-62769000D01*
X59999747Y-62769000D01*
X59980481Y-62776981D01*
X59971461Y-62786000D01*
X59933958Y-62786000D01*
X59911940Y-62767910D01*
X59805407Y-62608110D01*
X59805406Y-62608110D01*
X59800000Y-62600000D01*
X59793297Y-62600000D01*
X59790611Y-62598201D01*
X59760305Y-62585648D01*
X59745953Y-62551000D01*
X59760305Y-62516352D01*
X59767730Y-62510258D01*
X59771229Y-62507920D01*
X59777920Y-62501229D01*
X59827813Y-62426559D01*
X59831437Y-62417808D01*
X59844529Y-62351990D01*
X59845000Y-62347214D01*
X59845000Y-62251253D01*
X59990000Y-62251253D01*
X59992855Y-62258145D01*
X59999747Y-62261000D01*
X60876253Y-62261000D01*
X60883145Y-62258145D01*
X60886000Y-62251253D01*
X61394000Y-62251253D01*
X61396855Y-62258145D01*
X61403747Y-62261000D01*
X62280253Y-62261000D01*
X62287145Y-62258145D01*
X62290000Y-62251253D01*
X62290000Y-61767786D01*
X62289529Y-61763010D01*
X62276437Y-61697192D01*
X62272813Y-61688441D01*
X62222920Y-61613771D01*
X62216229Y-61607080D01*
X62141559Y-61557187D01*
X62132808Y-61553563D01*
X62066990Y-61540471D01*
X62062214Y-61540000D01*
X61403747Y-61540000D01*
X61396855Y-61542855D01*
X61394000Y-61549747D01*
X61394000Y-62251253D01*
X60886000Y-62251253D01*
X60886000Y-61549747D01*
X60883145Y-61542855D01*
X60876253Y-61540000D01*
X60217786Y-61540000D01*
X60213010Y-61540471D01*
X60147192Y-61553563D01*
X60138441Y-61557187D01*
X60063771Y-61607080D01*
X60057080Y-61613771D01*
X60007187Y-61688441D01*
X60003563Y-61697192D01*
X59990471Y-61763010D01*
X59990000Y-61767786D01*
X59990000Y-62251253D01*
X59845000Y-62251253D01*
X59845000Y-61863747D01*
X59842145Y-61856855D01*
X59835253Y-61854000D01*
X59090000Y-61854000D01*
X59055352Y-61839648D01*
X59041000Y-61805000D01*
X59041000Y-61336253D01*
X59549000Y-61336253D01*
X59551855Y-61343145D01*
X59558747Y-61346000D01*
X59835253Y-61346000D01*
X59842145Y-61343145D01*
X59845000Y-61336253D01*
X59845000Y-60852786D01*
X59844529Y-60848010D01*
X59831437Y-60782192D01*
X59827813Y-60773441D01*
X59777920Y-60698771D01*
X59771229Y-60692080D01*
X59696559Y-60642187D01*
X59687808Y-60638563D01*
X59621990Y-60625471D01*
X59617214Y-60625000D01*
X59558747Y-60625000D01*
X59551855Y-60627855D01*
X59549000Y-60634747D01*
X59549000Y-61336253D01*
X59041000Y-61336253D01*
X59041000Y-60634747D01*
X59038145Y-60627855D01*
X59030248Y-60624584D01*
X59003730Y-60598065D01*
X59000000Y-60579314D01*
X59000000Y-60549000D01*
X59014352Y-60514352D01*
X59049000Y-60500000D01*
X61573777Y-60500000D01*
X61608425Y-60514352D01*
G37*
%TD.AperFunction*%
%TD*%
%TA.AperFunction,Conductor*%
%TO.N,GND*%
G36*
X66662170Y-56202421D02*
G01*
X66686073Y-56207175D01*
X66721091Y-56214141D01*
X66766510Y-56232954D01*
X66786329Y-56246196D01*
X66805939Y-56259300D01*
X66840700Y-56294061D01*
X66867045Y-56333488D01*
X66885860Y-56378911D01*
X66897579Y-56437830D01*
X66900000Y-56462410D01*
X66900000Y-57537590D01*
X66897579Y-57562170D01*
X66885860Y-57621089D01*
X66867045Y-57666512D01*
X66840700Y-57705939D01*
X66805939Y-57740700D01*
X66786329Y-57753804D01*
X66766510Y-57767046D01*
X66721091Y-57785859D01*
X66686073Y-57792825D01*
X66662170Y-57797579D01*
X66637590Y-57800000D01*
X65662410Y-57800000D01*
X65637830Y-57797579D01*
X65613927Y-57792825D01*
X65578909Y-57785859D01*
X65533490Y-57767046D01*
X65513671Y-57753804D01*
X65494061Y-57740700D01*
X65459300Y-57705939D01*
X65432955Y-57666512D01*
X65414140Y-57621089D01*
X65402421Y-57562170D01*
X65400000Y-57537590D01*
X65400000Y-56462410D01*
X65402421Y-56437830D01*
X65414140Y-56378911D01*
X65432955Y-56333488D01*
X65459300Y-56294061D01*
X65494061Y-56259300D01*
X65513671Y-56246196D01*
X65533490Y-56232954D01*
X65578909Y-56214141D01*
X65613927Y-56207175D01*
X65637830Y-56202421D01*
X65662410Y-56200000D01*
X66637590Y-56200000D01*
X66662170Y-56202421D01*
G37*
%TD.AperFunction*%
%TD*%
M02*
