%TF.GenerationSoftware,KiCad,Pcbnew,(6.0.7)*%
%TF.CreationDate,2022-09-16T23:20:04-07:00*%
%TF.ProjectId,All-in-one,416c6c2d-696e-42d6-9f6e-652e6b696361,rev?*%
%TF.SameCoordinates,Original*%
%TF.FileFunction,Legend,Top*%
%TF.FilePolarity,Positive*%
%FSLAX46Y46*%
G04 Gerber Fmt 4.6, Leading zero omitted, Abs format (unit mm)*
G04 Created by KiCad (PCBNEW (6.0.7)) date 2022-09-16 23:20:04*
%MOMM*%
%LPD*%
G01*
G04 APERTURE LIST*
%ADD10C,0.150000*%
%ADD11C,0.153000*%
%ADD12C,0.120000*%
%ADD13C,0.152400*%
%ADD14C,0.100000*%
%ADD15C,0.200000*%
G04 APERTURE END LIST*
D10*
X69123809Y-42204761D02*
X69266666Y-42252380D01*
X69504761Y-42252380D01*
X69600000Y-42204761D01*
X69647619Y-42157142D01*
X69695238Y-42061904D01*
X69695238Y-41966666D01*
X69647619Y-41871428D01*
X69600000Y-41823809D01*
X69504761Y-41776190D01*
X69314285Y-41728571D01*
X69219047Y-41680952D01*
X69171428Y-41633333D01*
X69123809Y-41538095D01*
X69123809Y-41442857D01*
X69171428Y-41347619D01*
X69219047Y-41300000D01*
X69314285Y-41252380D01*
X69552380Y-41252380D01*
X69695238Y-41300000D01*
X69980952Y-41252380D02*
X70552380Y-41252380D01*
X70266666Y-42252380D02*
X70266666Y-41252380D01*
X70838095Y-41966666D02*
X71314285Y-41966666D01*
X70742857Y-42252380D02*
X71076190Y-41252380D01*
X71409523Y-42252380D01*
X71600000Y-41252380D02*
X72171428Y-41252380D01*
X71885714Y-42252380D02*
X71885714Y-41252380D01*
X72504761Y-41252380D02*
X72504761Y-42061904D01*
X72552380Y-42157142D01*
X72600000Y-42204761D01*
X72695238Y-42252380D01*
X72885714Y-42252380D01*
X72980952Y-42204761D01*
X73028571Y-42157142D01*
X73076190Y-42061904D01*
X73076190Y-41252380D01*
X73504761Y-42204761D02*
X73647619Y-42252380D01*
X73885714Y-42252380D01*
X73980952Y-42204761D01*
X74028571Y-42157142D01*
X74076190Y-42061904D01*
X74076190Y-41966666D01*
X74028571Y-41871428D01*
X73980952Y-41823809D01*
X73885714Y-41776190D01*
X73695238Y-41728571D01*
X73600000Y-41680952D01*
X73552380Y-41633333D01*
X73504761Y-41538095D01*
X73504761Y-41442857D01*
X73552380Y-41347619D01*
X73600000Y-41300000D01*
X73695238Y-41252380D01*
X73933333Y-41252380D01*
X74076190Y-41300000D01*
X22852380Y-42552380D02*
X22852380Y-41980952D01*
X23852380Y-42266666D02*
X22852380Y-42266666D01*
X23852380Y-41647619D02*
X22852380Y-41647619D01*
X23852380Y-41171428D02*
X22852380Y-41171428D01*
X23566666Y-40838095D01*
X22852380Y-40504761D01*
X23852380Y-40504761D01*
X22852380Y-40123809D02*
X22852380Y-39504761D01*
X23233333Y-39838095D01*
X23233333Y-39695238D01*
X23280952Y-39600000D01*
X23328571Y-39552380D01*
X23423809Y-39504761D01*
X23661904Y-39504761D01*
X23757142Y-39552380D01*
X23804761Y-39600000D01*
X23852380Y-39695238D01*
X23852380Y-39980952D01*
X23804761Y-40076190D01*
X23757142Y-40123809D01*
X23947619Y-39314285D02*
X23947619Y-38552380D01*
X23757142Y-37742857D02*
X23804761Y-37790476D01*
X23852380Y-37933333D01*
X23852380Y-38028571D01*
X23804761Y-38171428D01*
X23709523Y-38266666D01*
X23614285Y-38314285D01*
X23423809Y-38361904D01*
X23280952Y-38361904D01*
X23090476Y-38314285D01*
X22995238Y-38266666D01*
X22900000Y-38171428D01*
X22852380Y-38028571D01*
X22852380Y-37933333D01*
X22900000Y-37790476D01*
X22947619Y-37742857D01*
X23852380Y-37314285D02*
X22852380Y-37314285D01*
X23328571Y-37314285D02*
X23328571Y-36742857D01*
X23852380Y-36742857D02*
X22852380Y-36742857D01*
X23185714Y-35838095D02*
X23852380Y-35838095D01*
X22804761Y-36076190D02*
X23519047Y-36314285D01*
X23519047Y-35695238D01*
X22752380Y-32552380D02*
X22752380Y-31980952D01*
X23752380Y-32266666D02*
X22752380Y-32266666D01*
X23752380Y-31647619D02*
X22752380Y-31647619D01*
X23752380Y-31171428D02*
X22752380Y-31171428D01*
X23466666Y-30838095D01*
X22752380Y-30504761D01*
X23752380Y-30504761D01*
X22847619Y-30076190D02*
X22800000Y-30028571D01*
X22752380Y-29933333D01*
X22752380Y-29695238D01*
X22800000Y-29600000D01*
X22847619Y-29552380D01*
X22942857Y-29504761D01*
X23038095Y-29504761D01*
X23180952Y-29552380D01*
X23752380Y-30123809D01*
X23752380Y-29504761D01*
X23847619Y-29314285D02*
X23847619Y-28552380D01*
X23657142Y-27742857D02*
X23704761Y-27790476D01*
X23752380Y-27933333D01*
X23752380Y-28028571D01*
X23704761Y-28171428D01*
X23609523Y-28266666D01*
X23514285Y-28314285D01*
X23323809Y-28361904D01*
X23180952Y-28361904D01*
X22990476Y-28314285D01*
X22895238Y-28266666D01*
X22800000Y-28171428D01*
X22752380Y-28028571D01*
X22752380Y-27933333D01*
X22800000Y-27790476D01*
X22847619Y-27742857D01*
X23752380Y-27314285D02*
X22752380Y-27314285D01*
X23228571Y-27314285D02*
X23228571Y-26742857D01*
X23752380Y-26742857D02*
X22752380Y-26742857D01*
X23085714Y-25838095D02*
X23752380Y-25838095D01*
X22704761Y-26076190D02*
X23419047Y-26314285D01*
X23419047Y-25695238D01*
X41677380Y-21008095D02*
X41677380Y-20389047D01*
X42058333Y-20722380D01*
X42058333Y-20579523D01*
X42105952Y-20484285D01*
X42153571Y-20436666D01*
X42248809Y-20389047D01*
X42486904Y-20389047D01*
X42582142Y-20436666D01*
X42629761Y-20484285D01*
X42677380Y-20579523D01*
X42677380Y-20865238D01*
X42629761Y-20960476D01*
X42582142Y-21008095D01*
X41677380Y-20103333D02*
X42677380Y-19770000D01*
X41677380Y-19436666D01*
X41677380Y-19198571D02*
X41677380Y-18579523D01*
X42058333Y-18912857D01*
X42058333Y-18770000D01*
X42105952Y-18674761D01*
X42153571Y-18627142D01*
X42248809Y-18579523D01*
X42486904Y-18579523D01*
X42582142Y-18627142D01*
X42629761Y-18674761D01*
X42677380Y-18770000D01*
X42677380Y-19055714D01*
X42629761Y-19150952D01*
X42582142Y-19198571D01*
X75680952Y-54028571D02*
X74919047Y-54028571D01*
X75300000Y-53647619D02*
X75300000Y-54409523D01*
X27414285Y-52947619D02*
X27461904Y-52900000D01*
X27557142Y-52852380D01*
X27795238Y-52852380D01*
X27890476Y-52900000D01*
X27938095Y-52947619D01*
X27985714Y-53042857D01*
X27985714Y-53138095D01*
X27938095Y-53280952D01*
X27366666Y-53852380D01*
X27985714Y-53852380D01*
X25138095Y-25600000D02*
X25042857Y-25552380D01*
X24900000Y-25552380D01*
X24757142Y-25600000D01*
X24661904Y-25695238D01*
X24614285Y-25790476D01*
X24566666Y-25980952D01*
X24566666Y-26123809D01*
X24614285Y-26314285D01*
X24661904Y-26409523D01*
X24757142Y-26504761D01*
X24900000Y-26552380D01*
X24995238Y-26552380D01*
X25138095Y-26504761D01*
X25185714Y-26457142D01*
X25185714Y-26123809D01*
X24995238Y-26123809D01*
X25614285Y-26552380D02*
X25614285Y-25552380D01*
X26185714Y-26552380D01*
X26185714Y-25552380D01*
X26661904Y-26552380D02*
X26661904Y-25552380D01*
X26900000Y-25552380D01*
X27042857Y-25600000D01*
X27138095Y-25695238D01*
X27185714Y-25790476D01*
X27233333Y-25980952D01*
X27233333Y-26123809D01*
X27185714Y-26314285D01*
X27138095Y-26409523D01*
X27042857Y-26504761D01*
X26900000Y-26552380D01*
X26661904Y-26552380D01*
X71738095Y-31152380D02*
X72309523Y-31152380D01*
X72023809Y-32152380D02*
X72023809Y-31152380D01*
X72547619Y-31152380D02*
X73214285Y-32152380D01*
X73214285Y-31152380D02*
X72547619Y-32152380D01*
X75228571Y-50919047D02*
X75228571Y-51680952D01*
X22500000Y-56457142D02*
X22452380Y-56552380D01*
X22452380Y-56695238D01*
X22500000Y-56838095D01*
X22595238Y-56933333D01*
X22690476Y-56980952D01*
X22880952Y-57028571D01*
X23023809Y-57028571D01*
X23214285Y-56980952D01*
X23309523Y-56933333D01*
X23404761Y-56838095D01*
X23452380Y-56695238D01*
X23452380Y-56600000D01*
X23404761Y-56457142D01*
X23357142Y-56409523D01*
X23023809Y-56409523D01*
X23023809Y-56600000D01*
X23452380Y-55980952D02*
X22452380Y-55980952D01*
X22452380Y-55600000D01*
X22500000Y-55504761D01*
X22547619Y-55457142D01*
X22642857Y-55409523D01*
X22785714Y-55409523D01*
X22880952Y-55457142D01*
X22928571Y-55504761D01*
X22976190Y-55600000D01*
X22976190Y-55980952D01*
X23452380Y-54980952D02*
X22452380Y-54980952D01*
X22452380Y-54314285D02*
X22452380Y-54123809D01*
X22500000Y-54028571D01*
X22595238Y-53933333D01*
X22785714Y-53885714D01*
X23119047Y-53885714D01*
X23309523Y-53933333D01*
X23404761Y-54028571D01*
X23452380Y-54123809D01*
X23452380Y-54314285D01*
X23404761Y-54409523D01*
X23309523Y-54504761D01*
X23119047Y-54552380D01*
X22785714Y-54552380D01*
X22595238Y-54504761D01*
X22500000Y-54409523D01*
X22452380Y-54314285D01*
X23547619Y-53695238D02*
X23547619Y-52933333D01*
X22452380Y-52790476D02*
X23452380Y-52123809D01*
X22452380Y-52123809D02*
X23452380Y-52790476D01*
X29847619Y-42811904D02*
X29800000Y-42764285D01*
X29752380Y-42669047D01*
X29752380Y-42430952D01*
X29800000Y-42335714D01*
X29847619Y-42288095D01*
X29942857Y-42240476D01*
X30038095Y-42240476D01*
X30180952Y-42288095D01*
X30752380Y-42859523D01*
X30752380Y-42240476D01*
X29752380Y-41335714D02*
X29752380Y-41811904D01*
X30228571Y-41859523D01*
X30180952Y-41811904D01*
X30133333Y-41716666D01*
X30133333Y-41478571D01*
X30180952Y-41383333D01*
X30228571Y-41335714D01*
X30323809Y-41288095D01*
X30561904Y-41288095D01*
X30657142Y-41335714D01*
X30704761Y-41383333D01*
X30752380Y-41478571D01*
X30752380Y-41716666D01*
X30704761Y-41811904D01*
X30657142Y-41859523D01*
X30752380Y-40859523D02*
X29752380Y-40859523D01*
X30466666Y-40526190D01*
X29752380Y-40192857D01*
X30752380Y-40192857D01*
X30752380Y-39716666D02*
X29752380Y-39716666D01*
X30228571Y-39716666D02*
X30228571Y-39145238D01*
X30752380Y-39145238D02*
X29752380Y-39145238D01*
X30085714Y-38764285D02*
X30085714Y-38240476D01*
X30752380Y-38764285D01*
X30752380Y-38240476D01*
X24938095Y-42871428D02*
X24985714Y-42823809D01*
X25080952Y-42776190D01*
X25271428Y-42871428D01*
X25366666Y-42823809D01*
X25414285Y-42776190D01*
X27885714Y-51252380D02*
X27314285Y-51252380D01*
X27600000Y-51252380D02*
X27600000Y-50252380D01*
X27504761Y-50395238D01*
X27409523Y-50490476D01*
X27314285Y-50538095D01*
X54358333Y-27547619D02*
X53691666Y-26547619D01*
X53691666Y-27547619D02*
X54358333Y-26547619D01*
X39929761Y-21036666D02*
X39977380Y-20893809D01*
X39977380Y-20655714D01*
X39929761Y-20560476D01*
X39882142Y-20512857D01*
X39786904Y-20465238D01*
X39691666Y-20465238D01*
X39596428Y-20512857D01*
X39548809Y-20560476D01*
X39501190Y-20655714D01*
X39453571Y-20846190D01*
X39405952Y-20941428D01*
X39358333Y-20989047D01*
X39263095Y-21036666D01*
X39167857Y-21036666D01*
X39072619Y-20989047D01*
X39025000Y-20941428D01*
X38977380Y-20846190D01*
X38977380Y-20608095D01*
X39025000Y-20465238D01*
X39882142Y-19465238D02*
X39929761Y-19512857D01*
X39977380Y-19655714D01*
X39977380Y-19750952D01*
X39929761Y-19893809D01*
X39834523Y-19989047D01*
X39739285Y-20036666D01*
X39548809Y-20084285D01*
X39405952Y-20084285D01*
X39215476Y-20036666D01*
X39120238Y-19989047D01*
X39025000Y-19893809D01*
X38977380Y-19750952D01*
X38977380Y-19655714D01*
X39025000Y-19512857D01*
X39072619Y-19465238D01*
X39977380Y-18560476D02*
X39977380Y-19036666D01*
X38977380Y-19036666D01*
X39977380Y-17703333D02*
X39977380Y-18274761D01*
X39977380Y-17989047D02*
X38977380Y-17989047D01*
X39120238Y-18084285D01*
X39215476Y-18179523D01*
X39263095Y-18274761D01*
X27366666Y-55252380D02*
X27985714Y-55252380D01*
X27652380Y-55633333D01*
X27795238Y-55633333D01*
X27890476Y-55680952D01*
X27938095Y-55728571D01*
X27985714Y-55823809D01*
X27985714Y-56061904D01*
X27938095Y-56157142D01*
X27890476Y-56204761D01*
X27795238Y-56252380D01*
X27509523Y-56252380D01*
X27414285Y-56204761D01*
X27366666Y-56157142D01*
X27890476Y-58185714D02*
X27890476Y-58852380D01*
X27652380Y-57804761D02*
X27414285Y-58519047D01*
X28033333Y-58519047D01*
X57029761Y-27680952D02*
X57077380Y-27538095D01*
X57077380Y-27300000D01*
X57029761Y-27204761D01*
X56982142Y-27157142D01*
X56886904Y-27109523D01*
X56791666Y-27109523D01*
X56696428Y-27157142D01*
X56648809Y-27204761D01*
X56601190Y-27300000D01*
X56553571Y-27490476D01*
X56505952Y-27585714D01*
X56458333Y-27633333D01*
X56363095Y-27680952D01*
X56267857Y-27680952D01*
X56172619Y-27633333D01*
X56125000Y-27585714D01*
X56077380Y-27490476D01*
X56077380Y-27252380D01*
X56125000Y-27109523D01*
X56077380Y-26776190D02*
X57077380Y-26538095D01*
X56363095Y-26347619D01*
X57077380Y-26157142D01*
X56077380Y-25919047D01*
X56077380Y-25347619D02*
X56077380Y-25157142D01*
X56125000Y-25061904D01*
X56220238Y-24966666D01*
X56410714Y-24919047D01*
X56744047Y-24919047D01*
X56934523Y-24966666D01*
X57029761Y-25061904D01*
X57077380Y-25157142D01*
X57077380Y-25347619D01*
X57029761Y-25442857D01*
X56934523Y-25538095D01*
X56744047Y-25585714D01*
X56410714Y-25585714D01*
X56220238Y-25538095D01*
X56125000Y-25442857D01*
X56077380Y-25347619D01*
X25738095Y-32671428D02*
X25785714Y-32623809D01*
X25880952Y-32576190D01*
X26071428Y-32671428D01*
X26166666Y-32623809D01*
X26214285Y-32576190D01*
X34025000Y-20431904D02*
X33977380Y-20527142D01*
X33977380Y-20670000D01*
X34025000Y-20812857D01*
X34120238Y-20908095D01*
X34215476Y-20955714D01*
X34405952Y-21003333D01*
X34548809Y-21003333D01*
X34739285Y-20955714D01*
X34834523Y-20908095D01*
X34929761Y-20812857D01*
X34977380Y-20670000D01*
X34977380Y-20574761D01*
X34929761Y-20431904D01*
X34882142Y-20384285D01*
X34548809Y-20384285D01*
X34548809Y-20574761D01*
X34977380Y-19955714D02*
X33977380Y-19955714D01*
X34977380Y-19384285D01*
X33977380Y-19384285D01*
X34977380Y-18908095D02*
X33977380Y-18908095D01*
X33977380Y-18670000D01*
X34025000Y-18527142D01*
X34120238Y-18431904D01*
X34215476Y-18384285D01*
X34405952Y-18336666D01*
X34548809Y-18336666D01*
X34739285Y-18384285D01*
X34834523Y-18431904D01*
X34929761Y-18527142D01*
X34977380Y-18670000D01*
X34977380Y-18908095D01*
X70480952Y-37728571D02*
X69719047Y-37728571D01*
X70100000Y-37347619D02*
X70100000Y-38109523D01*
X71861904Y-33852380D02*
X72480952Y-33852380D01*
X72147619Y-34233333D01*
X72290476Y-34233333D01*
X72385714Y-34280952D01*
X72433333Y-34328571D01*
X72480952Y-34423809D01*
X72480952Y-34661904D01*
X72433333Y-34757142D01*
X72385714Y-34804761D01*
X72290476Y-34852380D01*
X72004761Y-34852380D01*
X71909523Y-34804761D01*
X71861904Y-34757142D01*
X72766666Y-33852380D02*
X73100000Y-34852380D01*
X73433333Y-33852380D01*
X73671428Y-33852380D02*
X74290476Y-33852380D01*
X73957142Y-34233333D01*
X74100000Y-34233333D01*
X74195238Y-34280952D01*
X74242857Y-34328571D01*
X74290476Y-34423809D01*
X74290476Y-34661904D01*
X74242857Y-34757142D01*
X74195238Y-34804761D01*
X74100000Y-34852380D01*
X73814285Y-34852380D01*
X73719047Y-34804761D01*
X73671428Y-34757142D01*
X59529761Y-29461904D02*
X59577380Y-29319047D01*
X59577380Y-29080952D01*
X59529761Y-28985714D01*
X59482142Y-28938095D01*
X59386904Y-28890476D01*
X59291666Y-28890476D01*
X59196428Y-28938095D01*
X59148809Y-28985714D01*
X59101190Y-29080952D01*
X59053571Y-29271428D01*
X59005952Y-29366666D01*
X58958333Y-29414285D01*
X58863095Y-29461904D01*
X58767857Y-29461904D01*
X58672619Y-29414285D01*
X58625000Y-29366666D01*
X58577380Y-29271428D01*
X58577380Y-29033333D01*
X58625000Y-28890476D01*
X58577380Y-28557142D02*
X59577380Y-28319047D01*
X58863095Y-28128571D01*
X59577380Y-27938095D01*
X58577380Y-27700000D01*
X59482142Y-26747619D02*
X59529761Y-26795238D01*
X59577380Y-26938095D01*
X59577380Y-27033333D01*
X59529761Y-27176190D01*
X59434523Y-27271428D01*
X59339285Y-27319047D01*
X59148809Y-27366666D01*
X59005952Y-27366666D01*
X58815476Y-27319047D01*
X58720238Y-27271428D01*
X58625000Y-27176190D01*
X58577380Y-27033333D01*
X58577380Y-26938095D01*
X58625000Y-26795238D01*
X58672619Y-26747619D01*
X59577380Y-25842857D02*
X59577380Y-26319047D01*
X58577380Y-26319047D01*
X59577380Y-25509523D02*
X58577380Y-25509523D01*
X59577380Y-24938095D02*
X59005952Y-25366666D01*
X58577380Y-24938095D02*
X59148809Y-25509523D01*
X72238095Y-26200000D02*
X72142857Y-26152380D01*
X72000000Y-26152380D01*
X71857142Y-26200000D01*
X71761904Y-26295238D01*
X71714285Y-26390476D01*
X71666666Y-26580952D01*
X71666666Y-26723809D01*
X71714285Y-26914285D01*
X71761904Y-27009523D01*
X71857142Y-27104761D01*
X72000000Y-27152380D01*
X72095238Y-27152380D01*
X72238095Y-27104761D01*
X72285714Y-27057142D01*
X72285714Y-26723809D01*
X72095238Y-26723809D01*
X72714285Y-27152380D02*
X72714285Y-26152380D01*
X73285714Y-27152380D01*
X73285714Y-26152380D01*
X73761904Y-27152380D02*
X73761904Y-26152380D01*
X74000000Y-26152380D01*
X74142857Y-26200000D01*
X74238095Y-26295238D01*
X74285714Y-26390476D01*
X74333333Y-26580952D01*
X74333333Y-26723809D01*
X74285714Y-26914285D01*
X74238095Y-27009523D01*
X74142857Y-27104761D01*
X74000000Y-27152380D01*
X73761904Y-27152380D01*
X72333333Y-29677380D02*
X72000000Y-29201190D01*
X71761904Y-29677380D02*
X71761904Y-28677380D01*
X72142857Y-28677380D01*
X72238095Y-28725000D01*
X72285714Y-28772619D01*
X72333333Y-28867857D01*
X72333333Y-29010714D01*
X72285714Y-29105952D01*
X72238095Y-29153571D01*
X72142857Y-29201190D01*
X71761904Y-29201190D01*
X72666666Y-28677380D02*
X73333333Y-29677380D01*
X73333333Y-28677380D02*
X72666666Y-29677380D01*
X69966666Y-48432380D02*
X69966666Y-47432380D01*
X70347619Y-47432380D01*
X70442857Y-47480000D01*
X70490476Y-47527619D01*
X70538095Y-47622857D01*
X70538095Y-47765714D01*
X70490476Y-47860952D01*
X70442857Y-47908571D01*
X70347619Y-47956190D01*
X69966666Y-47956190D01*
X70871428Y-47432380D02*
X71109523Y-48432380D01*
X71300000Y-47718095D01*
X71490476Y-48432380D01*
X71728571Y-47432380D01*
X72680952Y-48432380D02*
X72347619Y-47956190D01*
X72109523Y-48432380D02*
X72109523Y-47432380D01*
X72490476Y-47432380D01*
X72585714Y-47480000D01*
X72633333Y-47527619D01*
X72680952Y-47622857D01*
X72680952Y-47765714D01*
X72633333Y-47860952D01*
X72585714Y-47908571D01*
X72490476Y-47956190D01*
X72109523Y-47956190D01*
X52077380Y-28342857D02*
X51077380Y-28342857D01*
X52077380Y-27771428D01*
X51077380Y-27771428D01*
X52077380Y-26723809D02*
X51601190Y-27057142D01*
X52077380Y-27295238D02*
X51077380Y-27295238D01*
X51077380Y-26914285D01*
X51125000Y-26819047D01*
X51172619Y-26771428D01*
X51267857Y-26723809D01*
X51410714Y-26723809D01*
X51505952Y-26771428D01*
X51553571Y-26819047D01*
X51601190Y-26914285D01*
X51601190Y-27295238D01*
X52029761Y-26342857D02*
X52077380Y-26200000D01*
X52077380Y-25961904D01*
X52029761Y-25866666D01*
X51982142Y-25819047D01*
X51886904Y-25771428D01*
X51791666Y-25771428D01*
X51696428Y-25819047D01*
X51648809Y-25866666D01*
X51601190Y-25961904D01*
X51553571Y-26152380D01*
X51505952Y-26247619D01*
X51458333Y-26295238D01*
X51363095Y-26342857D01*
X51267857Y-26342857D01*
X51172619Y-26295238D01*
X51125000Y-26247619D01*
X51077380Y-26152380D01*
X51077380Y-25914285D01*
X51125000Y-25771428D01*
X51077380Y-25485714D02*
X51077380Y-24914285D01*
X52077380Y-25200000D02*
X51077380Y-25200000D01*
X67880952Y-56647380D02*
X68500000Y-56647380D01*
X68166666Y-57028333D01*
X68309523Y-57028333D01*
X68404761Y-57075952D01*
X68452380Y-57123571D01*
X68500000Y-57218809D01*
X68500000Y-57456904D01*
X68452380Y-57552142D01*
X68404761Y-57599761D01*
X68309523Y-57647380D01*
X68023809Y-57647380D01*
X67928571Y-57599761D01*
X67880952Y-57552142D01*
X68785714Y-56647380D02*
X69119047Y-57647380D01*
X69452380Y-56647380D01*
X70261904Y-56647380D02*
X69785714Y-56647380D01*
X69738095Y-57123571D01*
X69785714Y-57075952D01*
X69880952Y-57028333D01*
X70119047Y-57028333D01*
X70214285Y-57075952D01*
X70261904Y-57123571D01*
X70309523Y-57218809D01*
X70309523Y-57456904D01*
X70261904Y-57552142D01*
X70214285Y-57599761D01*
X70119047Y-57647380D01*
X69880952Y-57647380D01*
X69785714Y-57599761D01*
X69738095Y-57552142D01*
X70738095Y-57266428D02*
X71500000Y-57266428D01*
X72500000Y-57647380D02*
X71928571Y-57647380D01*
X72214285Y-57647380D02*
X72214285Y-56647380D01*
X72119047Y-56790238D01*
X72023809Y-56885476D01*
X71928571Y-56933095D01*
X72833333Y-56647380D02*
X73500000Y-56647380D01*
X73071428Y-57647380D01*
X73738095Y-56647380D02*
X74071428Y-57647380D01*
X74404761Y-56647380D01*
X69166666Y-58352619D02*
X69214285Y-58305000D01*
X69309523Y-58257380D01*
X69547619Y-58257380D01*
X69642857Y-58305000D01*
X69690476Y-58352619D01*
X69738095Y-58447857D01*
X69738095Y-58543095D01*
X69690476Y-58685952D01*
X69119047Y-59257380D01*
X69738095Y-59257380D01*
X70642857Y-58257380D02*
X70166666Y-58257380D01*
X70119047Y-58733571D01*
X70166666Y-58685952D01*
X70261904Y-58638333D01*
X70500000Y-58638333D01*
X70595238Y-58685952D01*
X70642857Y-58733571D01*
X70690476Y-58828809D01*
X70690476Y-59066904D01*
X70642857Y-59162142D01*
X70595238Y-59209761D01*
X70500000Y-59257380D01*
X70261904Y-59257380D01*
X70166666Y-59209761D01*
X70119047Y-59162142D01*
X71309523Y-58257380D02*
X71404761Y-58257380D01*
X71500000Y-58305000D01*
X71547619Y-58352619D01*
X71595238Y-58447857D01*
X71642857Y-58638333D01*
X71642857Y-58876428D01*
X71595238Y-59066904D01*
X71547619Y-59162142D01*
X71500000Y-59209761D01*
X71404761Y-59257380D01*
X71309523Y-59257380D01*
X71214285Y-59209761D01*
X71166666Y-59162142D01*
X71119047Y-59066904D01*
X71071428Y-58876428D01*
X71071428Y-58638333D01*
X71119047Y-58447857D01*
X71166666Y-58352619D01*
X71214285Y-58305000D01*
X71309523Y-58257380D01*
X72071428Y-59257380D02*
X72071428Y-58590714D01*
X72071428Y-58685952D02*
X72119047Y-58638333D01*
X72214285Y-58590714D01*
X72357142Y-58590714D01*
X72452380Y-58638333D01*
X72500000Y-58733571D01*
X72500000Y-59257380D01*
X72500000Y-58733571D02*
X72547619Y-58638333D01*
X72642857Y-58590714D01*
X72785714Y-58590714D01*
X72880952Y-58638333D01*
X72928571Y-58733571D01*
X72928571Y-59257380D01*
X73357142Y-58971666D02*
X73833333Y-58971666D01*
X73261904Y-59257380D02*
X73595238Y-58257380D01*
X73928571Y-59257380D01*
X69819047Y-43651428D02*
X70580952Y-43651428D01*
X70200000Y-44032380D02*
X70200000Y-43270476D01*
X40804761Y-36504761D02*
X40947619Y-36552380D01*
X41185714Y-36552380D01*
X41280952Y-36504761D01*
X41328571Y-36457142D01*
X41376190Y-36361904D01*
X41376190Y-36266666D01*
X41328571Y-36171428D01*
X41280952Y-36123809D01*
X41185714Y-36076190D01*
X40995238Y-36028571D01*
X40900000Y-35980952D01*
X40852380Y-35933333D01*
X40804761Y-35838095D01*
X40804761Y-35742857D01*
X40852380Y-35647619D01*
X40900000Y-35600000D01*
X40995238Y-35552380D01*
X41233333Y-35552380D01*
X41376190Y-35600000D01*
X41661904Y-35552380D02*
X42233333Y-35552380D01*
X41947619Y-36552380D02*
X41947619Y-35552380D01*
X42566666Y-36552380D02*
X42566666Y-35552380D01*
X42900000Y-36266666D01*
X43233333Y-35552380D01*
X43233333Y-36552380D01*
X43614285Y-35552380D02*
X44233333Y-35552380D01*
X43900000Y-35933333D01*
X44042857Y-35933333D01*
X44138095Y-35980952D01*
X44185714Y-36028571D01*
X44233333Y-36123809D01*
X44233333Y-36361904D01*
X44185714Y-36457142D01*
X44138095Y-36504761D01*
X44042857Y-36552380D01*
X43757142Y-36552380D01*
X43661904Y-36504761D01*
X43614285Y-36457142D01*
X44614285Y-35647619D02*
X44661904Y-35600000D01*
X44757142Y-35552380D01*
X44995238Y-35552380D01*
X45090476Y-35600000D01*
X45138095Y-35647619D01*
X45185714Y-35742857D01*
X45185714Y-35838095D01*
X45138095Y-35980952D01*
X44566666Y-36552380D01*
X45185714Y-36552380D01*
X45947619Y-36028571D02*
X45614285Y-36028571D01*
X45614285Y-36552380D02*
X45614285Y-35552380D01*
X46090476Y-35552380D01*
X46900000Y-35885714D02*
X46900000Y-36552380D01*
X46661904Y-35504761D02*
X46423809Y-36219047D01*
X47042857Y-36219047D01*
X62029761Y-29119047D02*
X62077380Y-28976190D01*
X62077380Y-28738095D01*
X62029761Y-28642857D01*
X61982142Y-28595238D01*
X61886904Y-28547619D01*
X61791666Y-28547619D01*
X61696428Y-28595238D01*
X61648809Y-28642857D01*
X61601190Y-28738095D01*
X61553571Y-28928571D01*
X61505952Y-29023809D01*
X61458333Y-29071428D01*
X61363095Y-29119047D01*
X61267857Y-29119047D01*
X61172619Y-29071428D01*
X61125000Y-29023809D01*
X61077380Y-28928571D01*
X61077380Y-28690476D01*
X61125000Y-28547619D01*
X61077380Y-28214285D02*
X62077380Y-27976190D01*
X61363095Y-27785714D01*
X62077380Y-27595238D01*
X61077380Y-27357142D01*
X62077380Y-26976190D02*
X61077380Y-26976190D01*
X61077380Y-26738095D01*
X61125000Y-26595238D01*
X61220238Y-26500000D01*
X61315476Y-26452380D01*
X61505952Y-26404761D01*
X61648809Y-26404761D01*
X61839285Y-26452380D01*
X61934523Y-26500000D01*
X62029761Y-26595238D01*
X62077380Y-26738095D01*
X62077380Y-26976190D01*
X62077380Y-25976190D02*
X61077380Y-25976190D01*
X61077380Y-25309523D02*
X61077380Y-25119047D01*
X61125000Y-25023809D01*
X61220238Y-24928571D01*
X61410714Y-24880952D01*
X61744047Y-24880952D01*
X61934523Y-24928571D01*
X62029761Y-25023809D01*
X62077380Y-25119047D01*
X62077380Y-25309523D01*
X62029761Y-25404761D01*
X61934523Y-25500000D01*
X61744047Y-25547619D01*
X61410714Y-25547619D01*
X61220238Y-25500000D01*
X61125000Y-25404761D01*
X61077380Y-25309523D01*
X54358333Y-26047619D02*
X53691666Y-25047619D01*
X53691666Y-26047619D02*
X54358333Y-25047619D01*
X61971428Y-59680952D02*
X61971428Y-58919047D01*
X62352380Y-59300000D02*
X61590476Y-59300000D01*
X25238095Y-35700000D02*
X25142857Y-35652380D01*
X25000000Y-35652380D01*
X24857142Y-35700000D01*
X24761904Y-35795238D01*
X24714285Y-35890476D01*
X24666666Y-36080952D01*
X24666666Y-36223809D01*
X24714285Y-36414285D01*
X24761904Y-36509523D01*
X24857142Y-36604761D01*
X25000000Y-36652380D01*
X25095238Y-36652380D01*
X25238095Y-36604761D01*
X25285714Y-36557142D01*
X25285714Y-36223809D01*
X25095238Y-36223809D01*
X25714285Y-36652380D02*
X25714285Y-35652380D01*
X26285714Y-36652380D01*
X26285714Y-35652380D01*
X26761904Y-36652380D02*
X26761904Y-35652380D01*
X27000000Y-35652380D01*
X27142857Y-35700000D01*
X27238095Y-35795238D01*
X27285714Y-35890476D01*
X27333333Y-36080952D01*
X27333333Y-36223809D01*
X27285714Y-36414285D01*
X27238095Y-36509523D01*
X27142857Y-36604761D01*
X27000000Y-36652380D01*
X26761904Y-36652380D01*
X37429761Y-21060476D02*
X37477380Y-20917619D01*
X37477380Y-20679523D01*
X37429761Y-20584285D01*
X37382142Y-20536666D01*
X37286904Y-20489047D01*
X37191666Y-20489047D01*
X37096428Y-20536666D01*
X37048809Y-20584285D01*
X37001190Y-20679523D01*
X36953571Y-20870000D01*
X36905952Y-20965238D01*
X36858333Y-21012857D01*
X36763095Y-21060476D01*
X36667857Y-21060476D01*
X36572619Y-21012857D01*
X36525000Y-20965238D01*
X36477380Y-20870000D01*
X36477380Y-20631904D01*
X36525000Y-20489047D01*
X37477380Y-20060476D02*
X36477380Y-20060476D01*
X36477380Y-19822380D01*
X36525000Y-19679523D01*
X36620238Y-19584285D01*
X36715476Y-19536666D01*
X36905952Y-19489047D01*
X37048809Y-19489047D01*
X37239285Y-19536666D01*
X37334523Y-19584285D01*
X37429761Y-19679523D01*
X37477380Y-19822380D01*
X37477380Y-20060476D01*
X37191666Y-19108095D02*
X37191666Y-18631904D01*
X37477380Y-19203333D02*
X36477380Y-18870000D01*
X37477380Y-18536666D01*
X37477380Y-17679523D02*
X37477380Y-18250952D01*
X37477380Y-17965238D02*
X36477380Y-17965238D01*
X36620238Y-18060476D01*
X36715476Y-18155714D01*
X36763095Y-18250952D01*
X60361904Y-17752380D02*
X60980952Y-17752380D01*
X60647619Y-18133333D01*
X60790476Y-18133333D01*
X60885714Y-18180952D01*
X60933333Y-18228571D01*
X60980952Y-18323809D01*
X60980952Y-18561904D01*
X60933333Y-18657142D01*
X60885714Y-18704761D01*
X60790476Y-18752380D01*
X60504761Y-18752380D01*
X60409523Y-18704761D01*
X60361904Y-18657142D01*
X61266666Y-17752380D02*
X61600000Y-18752380D01*
X61933333Y-17752380D01*
X62171428Y-17752380D02*
X62790476Y-17752380D01*
X62457142Y-18133333D01*
X62600000Y-18133333D01*
X62695238Y-18180952D01*
X62742857Y-18228571D01*
X62790476Y-18323809D01*
X62790476Y-18561904D01*
X62742857Y-18657142D01*
X62695238Y-18704761D01*
X62600000Y-18752380D01*
X62314285Y-18752380D01*
X62219047Y-18704761D01*
X62171428Y-18657142D01*
%TO.C,F1*%
X66828571Y-53733333D02*
X66828571Y-54066666D01*
X67352380Y-54066666D02*
X66352380Y-54066666D01*
X66352380Y-53590476D01*
X67352380Y-52685714D02*
X67352380Y-53257142D01*
X67352380Y-52971428D02*
X66352380Y-52971428D01*
X66495238Y-53066666D01*
X66590476Y-53161904D01*
X66638095Y-53257142D01*
%TO.C,FB1*%
X66266666Y-48028571D02*
X65933333Y-48028571D01*
X65933333Y-48552380D02*
X65933333Y-47552380D01*
X66409523Y-47552380D01*
X67123809Y-48028571D02*
X67266666Y-48076190D01*
X67314285Y-48123809D01*
X67361904Y-48219047D01*
X67361904Y-48361904D01*
X67314285Y-48457142D01*
X67266666Y-48504761D01*
X67171428Y-48552380D01*
X66790476Y-48552380D01*
X66790476Y-47552380D01*
X67123809Y-47552380D01*
X67219047Y-47600000D01*
X67266666Y-47647619D01*
X67314285Y-47742857D01*
X67314285Y-47838095D01*
X67266666Y-47933333D01*
X67219047Y-47980952D01*
X67123809Y-48028571D01*
X66790476Y-48028571D01*
X68314285Y-48552380D02*
X67742857Y-48552380D01*
X68028571Y-48552380D02*
X68028571Y-47552380D01*
X67933333Y-47695238D01*
X67838095Y-47790476D01*
X67742857Y-47838095D01*
%TO.C,SW1*%
X25257142Y-45052380D02*
X25257142Y-44052380D01*
X25828571Y-45052380D01*
X25828571Y-44052380D01*
X26257142Y-45004761D02*
X26400000Y-45052380D01*
X26638095Y-45052380D01*
X26733333Y-45004761D01*
X26780952Y-44957142D01*
X26828571Y-44861904D01*
X26828571Y-44766666D01*
X26780952Y-44671428D01*
X26733333Y-44623809D01*
X26638095Y-44576190D01*
X26447619Y-44528571D01*
X26352380Y-44480952D01*
X26304761Y-44433333D01*
X26257142Y-44338095D01*
X26257142Y-44242857D01*
X26304761Y-44147619D01*
X26352380Y-44100000D01*
X26447619Y-44052380D01*
X26685714Y-44052380D01*
X26828571Y-44100000D01*
X27828571Y-45052380D02*
X27495238Y-44576190D01*
X27257142Y-45052380D02*
X27257142Y-44052380D01*
X27638095Y-44052380D01*
X27733333Y-44100000D01*
X27780952Y-44147619D01*
X27828571Y-44242857D01*
X27828571Y-44385714D01*
X27780952Y-44480952D01*
X27733333Y-44528571D01*
X27638095Y-44576190D01*
X27257142Y-44576190D01*
X28114285Y-44052380D02*
X28685714Y-44052380D01*
X28400000Y-45052380D02*
X28400000Y-44052380D01*
%TO.C,J9*%
X66752380Y-32552380D02*
X67561904Y-32552380D01*
X67657142Y-32504761D01*
X67704761Y-32457142D01*
X67752380Y-32361904D01*
X67752380Y-32171428D01*
X67704761Y-32076190D01*
X67657142Y-32028571D01*
X67561904Y-31980952D01*
X66752380Y-31980952D01*
X67466666Y-31552380D02*
X67466666Y-31076190D01*
X67752380Y-31647619D02*
X66752380Y-31314285D01*
X67752380Y-30980952D01*
X67752380Y-30076190D02*
X67276190Y-30409523D01*
X67752380Y-30647619D02*
X66752380Y-30647619D01*
X66752380Y-30266666D01*
X66800000Y-30171428D01*
X66847619Y-30123809D01*
X66942857Y-30076190D01*
X67085714Y-30076190D01*
X67180952Y-30123809D01*
X67228571Y-30171428D01*
X67276190Y-30266666D01*
X67276190Y-30647619D01*
X66752380Y-29790476D02*
X66752380Y-29219047D01*
X67752380Y-29504761D02*
X66752380Y-29504761D01*
X67847619Y-29123809D02*
X67847619Y-28361904D01*
X66847619Y-28171428D02*
X66800000Y-28123809D01*
X66752380Y-28028571D01*
X66752380Y-27790476D01*
X66800000Y-27695238D01*
X66847619Y-27647619D01*
X66942857Y-27600000D01*
X67038095Y-27600000D01*
X67180952Y-27647619D01*
X67752380Y-28219047D01*
X67752380Y-27600000D01*
%TO.C,SW2*%
X56317857Y-33228571D02*
X56460714Y-33276190D01*
X56508333Y-33323809D01*
X56555952Y-33419047D01*
X56555952Y-33561904D01*
X56508333Y-33657142D01*
X56460714Y-33704761D01*
X56365476Y-33752380D01*
X55984523Y-33752380D01*
X55984523Y-32752380D01*
X56317857Y-32752380D01*
X56413095Y-32800000D01*
X56460714Y-32847619D01*
X56508333Y-32942857D01*
X56508333Y-33038095D01*
X56460714Y-33133333D01*
X56413095Y-33180952D01*
X56317857Y-33228571D01*
X55984523Y-33228571D01*
X57175000Y-32752380D02*
X57365476Y-32752380D01*
X57460714Y-32800000D01*
X57555952Y-32895238D01*
X57603571Y-33085714D01*
X57603571Y-33419047D01*
X57555952Y-33609523D01*
X57460714Y-33704761D01*
X57365476Y-33752380D01*
X57175000Y-33752380D01*
X57079761Y-33704761D01*
X56984523Y-33609523D01*
X56936904Y-33419047D01*
X56936904Y-33085714D01*
X56984523Y-32895238D01*
X57079761Y-32800000D01*
X57175000Y-32752380D01*
X58222619Y-32752380D02*
X58413095Y-32752380D01*
X58508333Y-32800000D01*
X58603571Y-32895238D01*
X58651190Y-33085714D01*
X58651190Y-33419047D01*
X58603571Y-33609523D01*
X58508333Y-33704761D01*
X58413095Y-33752380D01*
X58222619Y-33752380D01*
X58127380Y-33704761D01*
X58032142Y-33609523D01*
X57984523Y-33419047D01*
X57984523Y-33085714D01*
X58032142Y-32895238D01*
X58127380Y-32800000D01*
X58222619Y-32752380D01*
X58936904Y-32752380D02*
X59508333Y-32752380D01*
X59222619Y-33752380D02*
X59222619Y-32752380D01*
D11*
%TO.C,U4*%
X40719047Y-25652380D02*
X40719047Y-24652380D01*
X41052380Y-25366666D01*
X41385714Y-24652380D01*
X41385714Y-25652380D01*
X41861904Y-25652380D02*
X41861904Y-24652380D01*
X42242857Y-24652380D01*
X42338095Y-24700000D01*
X42385714Y-24747619D01*
X42433333Y-24842857D01*
X42433333Y-24985714D01*
X42385714Y-25080952D01*
X42338095Y-25128571D01*
X42242857Y-25176190D01*
X41861904Y-25176190D01*
X42861904Y-24652380D02*
X42861904Y-25461904D01*
X42909523Y-25557142D01*
X42957142Y-25604761D01*
X43052380Y-25652380D01*
X43242857Y-25652380D01*
X43338095Y-25604761D01*
X43385714Y-25557142D01*
X43433333Y-25461904D01*
X43433333Y-24652380D01*
X43909523Y-25271428D02*
X44671428Y-25271428D01*
X45576190Y-24652380D02*
X45385714Y-24652380D01*
X45290476Y-24700000D01*
X45242857Y-24747619D01*
X45147619Y-24890476D01*
X45100000Y-25080952D01*
X45100000Y-25461904D01*
X45147619Y-25557142D01*
X45195238Y-25604761D01*
X45290476Y-25652380D01*
X45480952Y-25652380D01*
X45576190Y-25604761D01*
X45623809Y-25557142D01*
X45671428Y-25461904D01*
X45671428Y-25223809D01*
X45623809Y-25128571D01*
X45576190Y-25080952D01*
X45480952Y-25033333D01*
X45290476Y-25033333D01*
X45195238Y-25080952D01*
X45147619Y-25128571D01*
X45100000Y-25223809D01*
X46290476Y-24652380D02*
X46385714Y-24652380D01*
X46480952Y-24700000D01*
X46528571Y-24747619D01*
X46576190Y-24842857D01*
X46623809Y-25033333D01*
X46623809Y-25271428D01*
X46576190Y-25461904D01*
X46528571Y-25557142D01*
X46480952Y-25604761D01*
X46385714Y-25652380D01*
X46290476Y-25652380D01*
X46195238Y-25604761D01*
X46147619Y-25557142D01*
X46100000Y-25461904D01*
X46052380Y-25271428D01*
X46052380Y-25033333D01*
X46100000Y-24842857D01*
X46147619Y-24747619D01*
X46195238Y-24700000D01*
X46290476Y-24652380D01*
X47528571Y-24652380D02*
X47052380Y-24652380D01*
X47004761Y-25128571D01*
X47052380Y-25080952D01*
X47147619Y-25033333D01*
X47385714Y-25033333D01*
X47480952Y-25080952D01*
X47528571Y-25128571D01*
X47576190Y-25223809D01*
X47576190Y-25461904D01*
X47528571Y-25557142D01*
X47480952Y-25604761D01*
X47385714Y-25652380D01*
X47147619Y-25652380D01*
X47052380Y-25604761D01*
X47004761Y-25557142D01*
X48195238Y-24652380D02*
X48290476Y-24652380D01*
X48385714Y-24700000D01*
X48433333Y-24747619D01*
X48480952Y-24842857D01*
X48528571Y-25033333D01*
X48528571Y-25271428D01*
X48480952Y-25461904D01*
X48433333Y-25557142D01*
X48385714Y-25604761D01*
X48290476Y-25652380D01*
X48195238Y-25652380D01*
X48100000Y-25604761D01*
X48052380Y-25557142D01*
X48004761Y-25461904D01*
X47957142Y-25271428D01*
X47957142Y-25033333D01*
X48004761Y-24842857D01*
X48052380Y-24747619D01*
X48100000Y-24700000D01*
X48195238Y-24652380D01*
D10*
%TO.C,J6*%
X49404761Y-22757142D02*
X49452380Y-22614285D01*
X49452380Y-22376190D01*
X49404761Y-22280952D01*
X49357142Y-22233333D01*
X49261904Y-22185714D01*
X49166666Y-22185714D01*
X49071428Y-22233333D01*
X49023809Y-22280952D01*
X48976190Y-22376190D01*
X48928571Y-22566666D01*
X48880952Y-22661904D01*
X48833333Y-22709523D01*
X48738095Y-22757142D01*
X48642857Y-22757142D01*
X48547619Y-22709523D01*
X48500000Y-22661904D01*
X48452380Y-22566666D01*
X48452380Y-22328571D01*
X48500000Y-22185714D01*
X48452380Y-21852380D02*
X49452380Y-21614285D01*
X48738095Y-21423809D01*
X49452380Y-21233333D01*
X48452380Y-20995238D01*
X49452380Y-20614285D02*
X48452380Y-20614285D01*
X48452380Y-20376190D01*
X48500000Y-20233333D01*
X48595238Y-20138095D01*
X48690476Y-20090476D01*
X48880952Y-20042857D01*
X49023809Y-20042857D01*
X49214285Y-20090476D01*
X49309523Y-20138095D01*
X49404761Y-20233333D01*
X49452380Y-20376190D01*
X49452380Y-20614285D01*
D11*
%TO.C,U3*%
X34171428Y-27328571D02*
X34314285Y-27376190D01*
X34361904Y-27423809D01*
X34409523Y-27519047D01*
X34409523Y-27661904D01*
X34361904Y-27757142D01*
X34314285Y-27804761D01*
X34219047Y-27852380D01*
X33838095Y-27852380D01*
X33838095Y-26852380D01*
X34171428Y-26852380D01*
X34266666Y-26900000D01*
X34314285Y-26947619D01*
X34361904Y-27042857D01*
X34361904Y-27138095D01*
X34314285Y-27233333D01*
X34266666Y-27280952D01*
X34171428Y-27328571D01*
X33838095Y-27328571D01*
X34838095Y-27852380D02*
X34838095Y-26852380D01*
X35171428Y-27566666D01*
X35504761Y-26852380D01*
X35504761Y-27852380D01*
X35980952Y-27852380D02*
X35980952Y-26852380D01*
X36361904Y-26852380D01*
X36457142Y-26900000D01*
X36504761Y-26947619D01*
X36552380Y-27042857D01*
X36552380Y-27185714D01*
X36504761Y-27280952D01*
X36457142Y-27328571D01*
X36361904Y-27376190D01*
X35980952Y-27376190D01*
X36933333Y-26947619D02*
X36980952Y-26900000D01*
X37076190Y-26852380D01*
X37314285Y-26852380D01*
X37409523Y-26900000D01*
X37457142Y-26947619D01*
X37504761Y-27042857D01*
X37504761Y-27138095D01*
X37457142Y-27280952D01*
X36885714Y-27852380D01*
X37504761Y-27852380D01*
X38076190Y-27280952D02*
X37980952Y-27233333D01*
X37933333Y-27185714D01*
X37885714Y-27090476D01*
X37885714Y-27042857D01*
X37933333Y-26947619D01*
X37980952Y-26900000D01*
X38076190Y-26852380D01*
X38266666Y-26852380D01*
X38361904Y-26900000D01*
X38409523Y-26947619D01*
X38457142Y-27042857D01*
X38457142Y-27090476D01*
X38409523Y-27185714D01*
X38361904Y-27233333D01*
X38266666Y-27280952D01*
X38076190Y-27280952D01*
X37980952Y-27328571D01*
X37933333Y-27376190D01*
X37885714Y-27471428D01*
X37885714Y-27661904D01*
X37933333Y-27757142D01*
X37980952Y-27804761D01*
X38076190Y-27852380D01*
X38266666Y-27852380D01*
X38361904Y-27804761D01*
X38409523Y-27757142D01*
X38457142Y-27661904D01*
X38457142Y-27471428D01*
X38409523Y-27376190D01*
X38361904Y-27328571D01*
X38266666Y-27280952D01*
X39076190Y-26852380D02*
X39171428Y-26852380D01*
X39266666Y-26900000D01*
X39314285Y-26947619D01*
X39361904Y-27042857D01*
X39409523Y-27233333D01*
X39409523Y-27471428D01*
X39361904Y-27661904D01*
X39314285Y-27757142D01*
X39266666Y-27804761D01*
X39171428Y-27852380D01*
X39076190Y-27852380D01*
X38980952Y-27804761D01*
X38933333Y-27757142D01*
X38885714Y-27661904D01*
X38838095Y-27471428D01*
X38838095Y-27233333D01*
X38885714Y-27042857D01*
X38933333Y-26947619D01*
X38980952Y-26900000D01*
X39076190Y-26852380D01*
D10*
%TO.C,J4*%
X32252380Y-23303333D02*
X31252380Y-23303333D01*
X31347619Y-22874761D02*
X31300000Y-22827142D01*
X31252380Y-22731904D01*
X31252380Y-22493809D01*
X31300000Y-22398571D01*
X31347619Y-22350952D01*
X31442857Y-22303333D01*
X31538095Y-22303333D01*
X31680952Y-22350952D01*
X32252380Y-22922380D01*
X32252380Y-22303333D01*
X32157142Y-21303333D02*
X32204761Y-21350952D01*
X32252380Y-21493809D01*
X32252380Y-21589047D01*
X32204761Y-21731904D01*
X32109523Y-21827142D01*
X32014285Y-21874761D01*
X31823809Y-21922380D01*
X31680952Y-21922380D01*
X31490476Y-21874761D01*
X31395238Y-21827142D01*
X31300000Y-21731904D01*
X31252380Y-21589047D01*
X31252380Y-21493809D01*
X31300000Y-21350952D01*
X31347619Y-21303333D01*
X32347619Y-21112857D02*
X32347619Y-20350952D01*
X32252380Y-19589047D02*
X32252380Y-20160476D01*
X32252380Y-19874761D02*
X31252380Y-19874761D01*
X31395238Y-19970000D01*
X31490476Y-20065238D01*
X31538095Y-20160476D01*
%TO.C,D1*%
X59561904Y-59927380D02*
X59561904Y-58927380D01*
X59800000Y-58927380D01*
X59942857Y-58975000D01*
X60038095Y-59070238D01*
X60085714Y-59165476D01*
X60133333Y-59355952D01*
X60133333Y-59498809D01*
X60085714Y-59689285D01*
X60038095Y-59784523D01*
X59942857Y-59879761D01*
X59800000Y-59927380D01*
X59561904Y-59927380D01*
X61085714Y-59927380D02*
X60514285Y-59927380D01*
X60800000Y-59927380D02*
X60800000Y-58927380D01*
X60704761Y-59070238D01*
X60609523Y-59165476D01*
X60514285Y-59213095D01*
%TO.C,L1*%
X60033333Y-39052380D02*
X59557142Y-39052380D01*
X59557142Y-38052380D01*
X60890476Y-39052380D02*
X60319047Y-39052380D01*
X60604761Y-39052380D02*
X60604761Y-38052380D01*
X60509523Y-38195238D01*
X60414285Y-38290476D01*
X60319047Y-38338095D01*
D12*
%TO.C,J3*%
X52770000Y-64500000D02*
X52770000Y-67450000D01*
X59270000Y-64500000D02*
X52770000Y-64500000D01*
X59270000Y-67450000D02*
X59270000Y-64500000D01*
%TO.C,R11*%
X33646359Y-51200000D02*
X33953641Y-51200000D01*
%TO.C,F1*%
X63882500Y-54174128D02*
X63882500Y-52970000D01*
X65982500Y-54174128D02*
X65982500Y-52970000D01*
%TO.C,R3*%
X62237258Y-55322500D02*
X61762742Y-55322500D01*
%TO.C,R7*%
X71837258Y-40750000D02*
X71362742Y-40750000D01*
D13*
%TO.C,Y1*%
X35150000Y-38450000D02*
X31750000Y-38450000D01*
X31750000Y-38450000D02*
X31750000Y-42500000D01*
D12*
%TO.C,U5*%
X56840000Y-59450000D02*
X56840000Y-57850000D01*
X54840000Y-57850000D02*
X54840000Y-58950000D01*
%TO.C,FB1*%
X65335242Y-48990000D02*
X63664758Y-48990000D01*
X65335242Y-50810000D02*
X63664758Y-50810000D01*
%TO.C,R6*%
X36253641Y-41750000D02*
X35946359Y-41750000D01*
X36253641Y-40850000D02*
X35946359Y-40850000D01*
%TO.C,R10*%
X43162742Y-34322500D02*
X43637258Y-34322500D01*
X43162742Y-33277500D02*
X43637258Y-33277500D01*
%TO.C,C10*%
X45700000Y-38292164D02*
X45700000Y-38507836D01*
X46700000Y-38292164D02*
X46700000Y-38507836D01*
%TO.C,R8*%
X35003641Y-50200000D02*
X34696359Y-50200000D01*
X35003641Y-51100000D02*
X34696359Y-51100000D01*
%TO.C,R5*%
X52100000Y-36046359D02*
X52100000Y-36353641D01*
X51100000Y-36046359D02*
X51100000Y-36353641D01*
%TO.C,C19*%
X47400000Y-29407836D02*
X47400000Y-29192164D01*
X48400000Y-29400000D02*
X48400000Y-29184328D01*
%TO.C,C12*%
X33362164Y-37350000D02*
X33577836Y-37350000D01*
%TO.C,J9*%
X68570000Y-33030000D02*
X68570000Y-25350000D01*
X71230000Y-33030000D02*
X71230000Y-25350000D01*
X71230000Y-35630000D02*
X69900000Y-35630000D01*
X71230000Y-33030000D02*
X68570000Y-33030000D01*
X71230000Y-34300000D02*
X71230000Y-35630000D01*
X71230000Y-25350000D02*
X68570000Y-25350000D01*
%TO.C,Q1*%
X66360000Y-57900000D02*
X66360000Y-58550000D01*
X63240000Y-57900000D02*
X63240000Y-57250000D01*
X63240000Y-57900000D02*
X63240000Y-58550000D01*
X66360000Y-57900000D02*
X66360000Y-56225000D01*
D10*
%TO.C,U4*%
X46725000Y-32200000D02*
X46200000Y-32200000D01*
X42425000Y-27900000D02*
X42425000Y-28425000D01*
X42425000Y-27900000D02*
X42950000Y-27900000D01*
X46725000Y-32200000D02*
X46725000Y-31675000D01*
X42425000Y-32275000D02*
X42425000Y-31750000D01*
X46725000Y-27900000D02*
X46725000Y-28425000D01*
X46725000Y-27900000D02*
X46200000Y-27900000D01*
D12*
%TO.C,J6*%
X60330000Y-19095000D02*
X60330000Y-21695000D01*
X61600000Y-19095000D02*
X62930000Y-19095000D01*
X60330000Y-19095000D02*
X50110000Y-19095000D01*
X60330000Y-21695000D02*
X62930000Y-21695000D01*
X50110000Y-19095000D02*
X50110000Y-24295000D01*
X62930000Y-21695000D02*
X62930000Y-24295000D01*
X62930000Y-24295000D02*
X50110000Y-24295000D01*
X62930000Y-19095000D02*
X62930000Y-20425000D01*
%TO.C,C7*%
X36840580Y-35890000D02*
X36559420Y-35890000D01*
X36840580Y-36910000D02*
X36559420Y-36910000D01*
%TO.C,J8*%
X27330000Y-37190000D02*
X24670000Y-37190000D01*
X27330000Y-39790000D02*
X24670000Y-39790000D01*
X27330000Y-41060000D02*
X27330000Y-42390000D01*
X24670000Y-39790000D02*
X24670000Y-37190000D01*
X27330000Y-39790000D02*
X27330000Y-37190000D01*
X27330000Y-42390000D02*
X26000000Y-42390000D01*
%TO.C,C2*%
X56661252Y-48865000D02*
X56138748Y-48865000D01*
X56661252Y-50335000D02*
X56138748Y-50335000D01*
%TO.C,C14*%
X43410000Y-46459420D02*
X43410000Y-46740580D01*
X42390000Y-46459420D02*
X42390000Y-46740580D01*
%TO.C,C11*%
X39092164Y-37100000D02*
X39307836Y-37100000D01*
X39092164Y-36100000D02*
X39307836Y-36100000D01*
%TO.C,C15*%
X35210000Y-31359420D02*
X35210000Y-31640580D01*
X34190000Y-31359420D02*
X34190000Y-31640580D01*
%TO.C,C5*%
X37110000Y-46559420D02*
X37110000Y-46840580D01*
X36090000Y-46559420D02*
X36090000Y-46840580D01*
%TO.C,R4*%
X71612258Y-47122500D02*
X71137742Y-47122500D01*
X71612258Y-46077500D02*
X71137742Y-46077500D01*
%TO.C,R9*%
X40237258Y-34322500D02*
X39762742Y-34322500D01*
X40237258Y-33277500D02*
X39762742Y-33277500D01*
%TO.C,C16*%
X35600000Y-31092164D02*
X35600000Y-31307836D01*
X36600000Y-31092164D02*
X36600000Y-31307836D01*
%TO.C,C18*%
X45507836Y-26200000D02*
X45292164Y-26200000D01*
X45507836Y-27200000D02*
X45292164Y-27200000D01*
D14*
%TO.C,U3*%
X36800000Y-29050000D02*
X36800000Y-29530000D01*
X39400000Y-31270000D02*
X39400000Y-31800000D01*
X38560000Y-29050000D02*
X39200000Y-29050000D01*
X36800000Y-31500000D02*
X36800000Y-31750000D01*
X38580000Y-31800000D02*
X39400000Y-31800000D01*
X36800000Y-31750000D02*
X37640000Y-31750000D01*
X36800000Y-29050000D02*
X37540000Y-29050000D01*
D12*
%TO.C,D2*%
X72850000Y-45715000D02*
X72850000Y-44245000D01*
X72850000Y-44245000D02*
X70565000Y-44245000D01*
X70565000Y-45715000D02*
X72850000Y-45715000D01*
D15*
%TO.C,J2*%
X33240000Y-54107879D02*
X46040000Y-54107879D01*
X46040000Y-54107879D02*
X46040000Y-67707879D01*
X46040000Y-67707879D02*
X33240000Y-67707879D01*
X33240000Y-67707879D02*
X33240000Y-54107879D01*
D12*
%TO.C,C3*%
X67110000Y-43711252D02*
X67110000Y-42288748D01*
X65290000Y-43711252D02*
X65290000Y-42288748D01*
%TO.C,C17*%
X47350000Y-31212164D02*
X47350000Y-31427836D01*
X48350000Y-31212164D02*
X48350000Y-31427836D01*
%TO.C,R13*%
X53760000Y-59803641D02*
X53760000Y-59496359D01*
X54760000Y-59803641D02*
X54760000Y-59496359D01*
%TO.C,U1*%
X60032500Y-48010000D02*
X60032500Y-48010000D01*
X60032500Y-48010000D02*
X60832500Y-48010000D01*
X60032500Y-51130000D02*
X59232500Y-51130000D01*
X60032500Y-51130000D02*
X60832500Y-51130000D01*
%TO.C,D3*%
X72100000Y-37965000D02*
X70915000Y-37965000D01*
%TO.C,J5*%
X24120000Y-59750000D02*
X26780000Y-59750000D01*
X24120000Y-50800000D02*
X24120000Y-49470000D01*
X24120000Y-52070000D02*
X26780000Y-52070000D01*
X24120000Y-49470000D02*
X25450000Y-49470000D01*
X24120000Y-52070000D02*
X24120000Y-59750000D01*
X26780000Y-52070000D02*
X26780000Y-59750000D01*
%TO.C,J7*%
X27230000Y-29605000D02*
X24570000Y-29605000D01*
X27230000Y-32205000D02*
X25900000Y-32205000D01*
X27230000Y-29605000D02*
X27230000Y-27005000D01*
X27230000Y-30875000D02*
X27230000Y-32205000D01*
X27230000Y-27005000D02*
X24570000Y-27005000D01*
X24570000Y-29605000D02*
X24570000Y-27005000D01*
%TO.C,C6*%
X36507836Y-44150000D02*
X36292164Y-44150000D01*
X36507836Y-43250000D02*
X36292164Y-43250000D01*
%TO.C,C13*%
X33607836Y-43750000D02*
X33392164Y-43750000D01*
X33607836Y-42850000D02*
X33392164Y-42850000D01*
%TO.C,C20*%
X40800000Y-28907836D02*
X40800000Y-28692164D01*
X41800000Y-28907836D02*
X41800000Y-28692164D01*
%TO.C,J4*%
X40830000Y-24230000D02*
X33150000Y-24230000D01*
X40830000Y-21570000D02*
X33150000Y-21570000D01*
X40830000Y-21570000D02*
X40830000Y-24230000D01*
X43430000Y-21570000D02*
X43430000Y-22900000D01*
X33150000Y-21570000D02*
X33150000Y-24230000D01*
X42100000Y-21570000D02*
X43430000Y-21570000D01*
%TO.C,J1*%
X74470000Y-55389999D02*
X74470000Y-49609999D01*
X67730000Y-49609999D02*
X74470000Y-49609999D01*
X73950000Y-55389999D02*
X73950000Y-49609999D01*
X67730000Y-55389999D02*
X74470000Y-55389999D01*
X67730000Y-55389999D02*
X67730000Y-49609999D01*
X74710000Y-55629999D02*
X74710000Y-55229999D01*
X74070000Y-55629999D02*
X74710000Y-55629999D01*
X68850000Y-55389999D02*
X68850000Y-49609999D01*
%TO.C,C1*%
X57790000Y-52788748D02*
X57790000Y-54211252D01*
X59610000Y-52788748D02*
X59610000Y-54211252D01*
%TO.C,R12*%
X58270000Y-59783641D02*
X58270000Y-59476359D01*
X57270000Y-59783641D02*
X57270000Y-59476359D01*
%TO.C,D1*%
X62470000Y-58475000D02*
X62470000Y-56475000D01*
X62470000Y-58475000D02*
X58570000Y-58475000D01*
X62470000Y-56475000D02*
X58570000Y-56475000D01*
%TO.C,C4*%
X32250000Y-46507836D02*
X32250000Y-46292164D01*
X33150000Y-46507836D02*
X33150000Y-46292164D01*
%TO.C,C8*%
X37150000Y-38217836D02*
X37150000Y-38002164D01*
X36250000Y-38217836D02*
X36250000Y-38002164D01*
%TO.C,L1*%
X55800000Y-39700000D02*
X64800000Y-39700000D01*
X64800000Y-39700000D02*
X64800000Y-47700000D01*
X64800000Y-47700000D02*
X55800000Y-47700000D01*
X55800000Y-47700000D02*
X55800000Y-39700000D01*
%TO.C,U2*%
X37865000Y-44940000D02*
X37865000Y-44465000D01*
X44610000Y-37720000D02*
X45085000Y-37720000D01*
X44610000Y-44940000D02*
X45085000Y-44940000D01*
X38340000Y-37720000D02*
X37865000Y-37720000D01*
X45085000Y-37720000D02*
X45085000Y-38195000D01*
X45085000Y-44940000D02*
X45085000Y-44465000D01*
X38340000Y-44940000D02*
X37865000Y-44940000D01*
%TD*%
M02*
